SplineFontDB: 3.0
FontName: Dhyana
FullName: Dhyana
FamilyName: Dhyana
Weight: Book
Copyright: Copyright (c) 2011 Vernon Adams (vern@newtypography.co.uk), with Reserved Font Names "Dhyana"
Version: 1.001
ItalicAngle: 0
UnderlinePosition: -188
UnderlineWidth: 48
Ascent: 1638
Descent: 410
sfntRevision: 0x00010000
LayerCount: 2
Layer: 0 1 "Back"  1
Layer: 1 1 "Fore"  0
XUID: [1021 288 713564382 646495]
FSType: 0
OS2Version: 2
OS2_WeightWidthSlopeOnly: 0
OS2_UseTypoMetrics: 1
CreationTime: 1283952577
ModificationTime: 1291305966
PfmFamily: 17
TTFWeight: 400
TTFWidth: 5
LineGap: 0
VLineGap: 0
Panose: 2 0 8 3 5 0 0 2 0 4
OS2TypoAscent: 1384
OS2TypoAOffset: 1
OS2TypoDescent: -260
OS2TypoDOffset: 1
OS2TypoLinegap: 0
OS2WinAscent: 0
OS2WinAOffset: 1
OS2WinDescent: 14
OS2WinDOffset: 1
HheadAscent: 0
HheadAOffset: 1
HheadDescent: -14
HheadDOffset: 1
OS2SubXSize: 1331
OS2SubYSize: 1433
OS2SubXOff: 0
OS2SubYOff: 286
OS2SupXSize: 1331
OS2SupYSize: 1433
OS2SupXOff: 0
OS2SupYOff: 983
OS2StrikeYSize: 102
OS2StrikeYPos: 512
OS2Vendor: 'PfEd'
OS2CodePages: 00000001.00000000
OS2UnicodeRanges: 82000067.1000200a.00000000.00000000
Lookup: 1 0 0 "'liga' Standard Ligatures lookup 0"  {"'liga' Standard Ligatures lookup 0 subtable"  } ['liga' ('lao ' <'dflt' > 'latn' <'dflt' > ) ]
Lookup: 4 0 1 "'liga' Standard Ligatures lookup 1"  {"'liga' Standard Ligatures lookup 1 subtable"  } ['liga' ('lao ' <'dflt' > 'latn' <'dflt' > ) ]
Lookup: 258 0 0 "'kern' Horizontal Kerning in Latin lookup 0"  {"'kern' Horizontal Kerning in Latin lookup 0 subtable"  } ['kern' ('latn' <'dflt' > ) ]
MarkAttachClasses: 1
DEI: 91125
TtTable: prep
PUSHW_1
 511
SCANCTRL
PUSHB_1
 1
SCANTYPE
SVTCA[y-axis]
MPPEM
PUSHB_1
 8
LT
IF
PUSHB_2
 1
 1
INSTCTRL
EIF
PUSHB_2
 70
 6
CALL
IF
POP
PUSHB_1
 16
EIF
MPPEM
PUSHB_1
 20
GT
IF
POP
PUSHB_1
 128
EIF
SCVTCI
PUSHB_1
 6
CALL
NOT
IF
SVTCA[y-axis]
PUSHB_1
 5
DUP
RCVT
PUSHB_1
 3
CALL
WCVTP
PUSHB_1
 8
DUP
RCVT
PUSHB_3
 5
 95
 2
CALL
PUSHB_1
 3
CALL
WCVTP
PUSHB_1
 7
DUP
RCVT
PUSHB_3
 8

StartChar: exclam
Encoding: 33 33 4
Width: 790
GlyphClass: 2
Flags: W
LayerCount: 2
Fore
SplineSet
343 1579 m 1,0,-1
 502 1579 l 1,1,-1
 502 399 l 1,2,-1
 343 399 l 1,3,-1
 343 1579 l 1,0,-1
319 202 m 1,4,-1
 528 202 l 1,5,-1
 528 0 l 1,6,-1
 319 0 l 1,7,-1
 319 202 l 1,4,-1
EndSplineSet
EndChar

StartChar: quotedbl
Encoding: 34 34 5
Width: 634
GlyphClass: 2
Flags: W
LayerCount: 2
Fore
SplineSet
374 1508 m 1,0,-1
 374 1579 l 1,1,-1
 602 1579 l 1,2,-1
 602 1508 l 1,3,-1
 542 1058 l 1,4,-1
 434 1058 l 1,5,-1
 374 1508 l 1,0,-1
36 1508 m 1,6,-1
 36 1579 l 1,7,-1
 264 1579 l 1,8,-1
 264 1508 l 1,9,-1
 204 1058 l 1,10,-1
 96 1058 l 1,11,-1
 36 1508 l 1,6,-1
EndSplineSet
EndChar

StartChar: numbersign
Encoding: 35 35 6
Width: 1234
GlyphClass: 2
Flags: W
LayerCount: 2
Fore
SplineSet
396 561 m 1,0,-1
 230 561 l 1,1,-1
 230 684 l 1,2,-1
 406 684 l 1,3,-1
 433 905 l 1,4,-1
 258 905 l 1,5,-1
 258 1030 l 1,6,-1
 447 1030 l 1,7,-1
 478 1309 l 1,8,-1
 617 1309 l 1,9,-1
 586 1030 l 1,10,-1
 775 1030 l 1,11,-1
 803 1307 l 1,12,-1
 945 1307 l 1,13,-1
 914 1030 l 1,14,-1
 1074 1030 l 1,15,-1
 1074 905 l 1,16,-1
 902 905 l 1,17,-1
 875 684 l 1,18,-1
 1051 684 l 1,19,-1
 1051 561 l 1,20,-1
 863 561 l 1,21,-1
 832 295 l 1,22,-1
 691 295 l 1,23,-1
 723 561 l 1,24,-1
 537 561 l 1,25,-1
 504 295 l 1,26,-1
 363 295 l 1,27,-1
 396 561 l 1,0,-1
732 684 m 1,28,-1
 758 905 l 1,29,-1
 576 905 l 1,30,-1
 549 684 l 1,31,-1
 732 684 l 1,28,-1
EndSplineSet
EndChar

StartChar: dollar
Encoding: 36 36 7
Width: 1139
GlyphClass: 2
Flags: W
LayerCount: 2
Fore
SplineSet
215 207 m 1,0,1
 275 185 275 185 334 168 c 0,2,3
 385 153 385 153 440 141 c 128,-1,4
 495 129 495 129 540 129 c 1,5,-1
 540 568 l 1,6,7
 423 598 423 598 344 634 c 128,-1,8
 265 670 265 670 217 714 c 128,-1,9
 169 758 169 758 148 811.5 c 128,-1,10
 127 865 127 865 127 929 c 0,11,12
 127 1022 127 1022 157 1079.5 c 128,-1,13
 187 1137 187 1137 241 1170 c 128,-1,14
 295 1203 295 1203 371 1217.5 c 128,-1,15
 447 1232 447 1232 540 1240 c 1,16,-1
 540 1390 l 1,17,-1
 643 1390 l 1,18,-1
 643 1236 l 1,19,20
 701 1236 701 1236 759.5 1225.5 c 128,-1,21
 818 1215 818 1215 866 1203 c 0,22,23
 921 1189 921 1189 974 1171 c 1,24,-1
 935 1044 l 1,25,26
 889 1059 889 1059 840 1071 c 0,27,28
 798 1082 798 1082 746 1090.5 c 128,-1,29
 694 1099 694 1099 643 1099 c 1,30,-1
 643 709 l 1,31,32
 758 668 758 668 833 627.5 c 128,-1,33
 908 587 908 587 951.5 543 c 128,-1,34
 995 499 995 499 1012 449.5 c 128,-1,35
 1029 400 1029 400 1029 340 c 0,36,37
 1029 248 1029 248 998 183 c 128,-1,38
 967 118 967 118 914.5 76 c 128,-1,39
 862 34 862 34 791.5 11.5 c 128,-1,40
 721 -11 721 -11 643 -18 c 1,41,-1
 643 -178 l 1,42,-1
 540 -178 l 1,43,-1
 540 -20 l 1,44,45
 514 -20 514 -20 484.5 -16.5 c 128,-1,46
 455 -13 455 -13 424 -7.5 c 128,-1,47
 393 -2 393 -2 362 5.5 c 128,-1,48
 331 13 331 13 302 21 c 0,49,50
 234 39 234 39 166 63 c 1,51,-1
 215 207 l 1,0,1
540 1099 m 1,52,53
 465 1099 465 1099 417.5 1085 c 128,-1,54
 370 1071 370 1071 342.5 1047.5 c 128,-1,55
 315 1024 315 1024 304.5 994 c 128,-1,56
 294 964 294 964 294 932 c 0,57,58
 294 902 294 902 303 877.5 c 128,-1,59
 312 853 312 853 339 831 c 128,-1,60
 366 809 366 809 414 786.5 c 128,-1,61
 462 764 462 764 540 739 c 1,62,-1
 540 1099 l 1,52,53
643 134 m 1,63,64
 693 135 693 135 734 150 c 128,-1,65
 775 165 775 165 804 190.5 c 128,-1,66
 833 216 833 216 848.5 251.5 c 128,-1,67
 864 287 864 287 864 329 c 0,68,69
 864 368 864 368 854 396 c 128,-1,70
 844 424 844 424 819.5 447.5 c 128,-1,71
 795 471 795 471 752 492.5 c 128,-1,72
 709 514 709 514 643 539 c 1,73,-1
 643 134 l 1,63,64
EndSplineSet
EndChar

StartChar: percent
Encoding: 37 37 8
Width: 1724
GlyphClass: 2
Flags: W
LayerCount: 2
Fore
SplineSet
409 678 m 0,0,1
 344 678 344 678 294.5 696.5 c 128,-1,2
 245 715 245 715 209.5 746 c 128,-1,3
 174 777 174 777 150.5 817.5 c 128,-1,4
 127 858 127 858 113 902 c 128,-1,5
 99 946 99 946 93.5 989.5 c 128,-1,6
 88 1033 88 1033 88 1071 c 0,7,8
 88 1180 88 1180 110 1260 c 128,-1,9
 132 1340 132 1340 173.5 1392.5 c 128,-1,10
 215 1445 215 1445 274.5 1470 c 128,-1,11
 334 1495 334 1495 409 1495 c 256,12,13
 484 1495 484 1495 543.5 1470 c 128,-1,14
 603 1445 603 1445 644.5 1392.5 c 128,-1,15
 686 1340 686 1340 708 1260 c 128,-1,16
 730 1180 730 1180 730 1071 c 0,17,18
 730 1035 730 1035 724.5 992 c 128,-1,19
 719 949 719 949 705.5 905 c 128,-1,20
 692 861 692 861 668.5 820.5 c 128,-1,21
 645 780 645 780 609.5 748 c 128,-1,22
 574 716 574 716 524.5 697 c 128,-1,23
 475 678 475 678 409 678 c 0,0,1
409 788 m 256,24,25
 454 788 454 788 489 805 c 128,-1,26
 524 822 524 822 548 858.5 c 128,-1,27
 572 895 572 895 584.5 953 c 128,-1,28
 597 1011 597 1011 597 1092 c 0,29,30
 597 1391 597 1391 409 1391 c 256,31,32
 221 1391 221 1391 221 1092 c 0,33,34
 221 1011 221 1011 233.5 953 c 128,-1,35
 246 895 246 895 270 858.5 c 128,-1,36
 294 822 294 822 329 805 c 128,-1,37
 364 788 364 788 409 788 c 256,24,25
999 372 m 0,38,39
 999 481 999 481 1021 561 c 128,-1,40
 1043 641 1043 641 1084.5 693.5 c 128,-1,41
 1126 746 1126 746 1185.5 771 c 128,-1,42
 1245 796 1245 796 1320 796 c 256,43,44
 1395 796 1395 796 1454.5 771 c 128,-1,45
 1514 746 1514 746 1555.5 693.5 c 128,-1,46
 1597 641 1597 641 1619 561 c 128,-1,47
 1641 481 1641 481 1641 372 c 0,48,49
 1641 336 1641 336 1635.5 293 c 128,-1,50
 1630 250 1630 250 1616.5 206 c 128,-1,51
 1603 162 1603 162 1579.5 121.5 c 128,-1,52
 1556 81 1556 81 1520.5 49 c 128,-1,53
 1485 17 1485 17 1435.5 -2 c 128,-1,54
 1386 -21 1386 -21 1320 -21 c 256,55,56
 1254 -21 1254 -21 1205 -2.5 c 128,-1,57
 1156 16 1156 16 1120.5 47 c 128,-1,58
 1085 78 1085 78 1061.5 118.5 c 128,-1,59
 1038 159 1038 159 1024 203 c 128,-1,60
 1010 247 1010 247 1004.5 290.5 c 128,-1,61
 999 334 999 334 999 372 c 0,38,39
1132 393 m 0,62,63
 1132 312 1132 312 1144.5 254 c 128,-1,64
 1157 196 1157 196 1181 159.5 c 128,-1,65
 1205 123 1205 123 1240 106 c 128,-1,66
 1275 89 1275 89 1320 89 c 256,67,68
 1365 89 1365 89 1400 106 c 128,-1,69
 1435 123 1435 123 1459 159.5 c 128,-1,70
 1483 196 1483 196 1495.5 254 c 128,-1,71
 1508 312 1508 312 1508 393 c 0,72,73
 1508 692 1508 692 1320 692 c 256,74,75
 1132 692 1132 692 1132 393 c 0,62,63
1136 1497 m 1,76,-1
 1265 1430 l 1,77,-1
 584 -22 l 1,78,-1
 454 37 l 1,79,-1
 1136 1497 l 1,76,-1
EndSplineSet
EndChar

StartChar: ampersand
Encoding: 38 38 9
Width: 1597
GlyphClass: 2
Flags: W
LayerCount: 2
Fore
SplineSet
1260 170 m 1,0,1
 1202 60 1202 60 1066 10.5 c 128,-1,2
 930 -39 930 -39 699 -39 c 0,3,4
 132 -39 132 -39 132 396 c 0,5,6
 132 565 132 565 215.5 669.5 c 128,-1,7
 299 774 299 774 466 822 c 1,8,9
 434 843 434 843 398.5 873 c 128,-1,10
 363 903 363 903 333 940.5 c 128,-1,11
 303 978 303 978 283.5 1021.5 c 128,-1,12
 264 1065 264 1065 264 1113 c 0,13,14
 264 1187 264 1187 290.5 1248 c 128,-1,15
 317 1309 317 1309 368 1353 c 128,-1,16
 419 1397 419 1397 493.5 1421 c 128,-1,17
 568 1445 568 1445 663 1445 c 0,18,19
 762 1445 762 1445 837 1419.5 c 128,-1,20
 912 1394 912 1394 962.5 1350 c 128,-1,21
 1013 1306 1013 1306 1038.5 1245.5 c 128,-1,22
 1064 1185 1064 1185 1064 1115 c 0,23,24
 1064 1043 1064 1043 1040 992 c 128,-1,25
 1016 941 1016 941 970 903 c 128,-1,26
 924 865 924 865 857 836.5 c 128,-1,27
 790 808 790 808 705 781 c 1,28,-1
 1200 391 l 1,29,30
 1205 419 1205 419 1208 453.5 c 128,-1,31
 1211 488 1211 488 1213 525.5 c 128,-1,32
 1215 563 1215 563 1215.5 601 c 128,-1,33
 1216 639 1216 639 1216 673 c 0,34,35
 1216 699 1216 699 1215.5 721.5 c 128,-1,36
 1215 744 1215 744 1215 761 c 0,37,38
 1214 780 1214 780 1214 796 c 1,39,-1
 1378 796 l 1,40,41
 1373 699 1373 699 1368 612 c 0,42,43
 1366 575 1366 575 1363 536 c 128,-1,44
 1360 497 1360 497 1357 461 c 128,-1,45
 1354 425 1354 425 1350.5 394 c 128,-1,46
 1347 363 1347 363 1343 341 c 2,47,-1
 1331 277 l 1,48,-1
 1557 95 l 1,49,-1
 1471 -7 l 1,50,-1
 1260 170 l 1,0,1
609 873 m 1,51,52
 625 877 625 877 653 886 c 128,-1,53
 681 895 681 895 714 909 c 128,-1,54
 747 923 747 923 780.5 942.5 c 128,-1,55
 814 962 814 962 841.5 988 c 128,-1,56
 869 1014 869 1014 886.5 1046.5 c 128,-1,57
 904 1079 904 1079 904 1119 c 0,58,59
 904 1165 904 1165 887 1200.5 c 128,-1,60
 870 1236 870 1236 838.5 1260.5 c 128,-1,61
 807 1285 807 1285 762.5 1297.5 c 128,-1,62
 718 1310 718 1310 663 1310 c 0,63,64
 430 1310 430 1310 430 1117 c 0,65,66
 430 993 430 993 609 873 c 1,51,52
560 726 m 1,67,68
 434 699 434 699 374 624.5 c 128,-1,69
 314 550 314 550 314 418 c 0,70,71
 314 342 314 342 336.5 283 c 128,-1,72
 359 224 359 224 406.5 183.5 c 128,-1,73
 454 143 454 143 526.5 121.5 c 128,-1,74
 599 100 599 100 699 100 c 0,75,76
 802 100 802 100 875.5 109.5 c 128,-1,77
 949 119 949 119 1001 138.5 c 128,-1,78
 1053 158 1053 158 1088 187.5 c 128,-1,79
 1123 217 1123 217 1148 256 c 1,80,-1
 560 726 l 1,67,68
EndSplineSet
EndChar

StartChar: quotesingle
Encoding: 39 39 10
Width: 512
GlyphClass: 2
Flags: W
LayerCount: 2
Fore
SplineSet
113 1127 m 1,0,1
 151 1140 151 1140 176 1154.5 c 128,-1,2
 201 1169 201 1169 216 1187.5 c 128,-1,3
 231 1206 231 1206 237 1230 c 128,-1,4
 243 1254 243 1254 243 1286 c 1,5,-1
 112 1286 l 1,6,-1
 112 1579 l 1,7,-1
 373 1579 l 1,8,-1
 373 1330 l 2,9,10
 373 1215 373 1215 314.5 1140 c 128,-1,11
 256 1065 256 1065 144 1033 c 1,12,-1
 113 1127 l 1,0,1
EndSplineSet
EndChar

StartChar: parenleft
Encoding: 40 40 11
Width: 864
GlyphClass: 2
Flags: W
LayerCount: 2
Fore
SplineSet
660 -205 m 1,0,1
 635 -189 635 -189 596 -154.5 c 128,-1,2
 557 -120 557 -120 514 -67 c 128,-1,3
 471 -14 471 -14 427.5 59.5 c 128,-1,4
 384 133 384 133 349.5 228 c 128,-1,5
 315 323 315 323 293 439.5 c 128,-1,6
 271 556 271 556 271 696 c 0,7,8
 271 824 271 824 290 934.5 c 128,-1,9
 309 1045 309 1045 340.5 1137 c 128,-1,10
 372 1229 372 1229 412 1303.5 c 128,-1,11
 452 1378 452 1378 494 1435.5 c 128,-1,12
 536 1493 536 1493 576 1532.5 c 128,-1,13
 616 1572 616 1572 648 1595 c 1,14,-1
 759 1493 l 1,15,16
 718 1457 718 1457 666 1389 c 128,-1,17
 614 1321 614 1321 567.5 1221 c 128,-1,18
 521 1121 521 1121 489 989 c 128,-1,19
 457 857 457 857 457 694 c 256,20,21
 457 531 457 531 486.5 398.5 c 128,-1,22
 516 266 516 266 559.5 166.5 c 128,-1,23
 603 67 603 67 652.5 0.5 c 128,-1,24
 702 -66 702 -66 743 -97 c 1,25,-1
 660 -205 l 1,0,1
EndSplineSet
EndChar

StartChar: parenright
Encoding: 41 41 12
Width: 864
GlyphClass: 2
Flags: W
LayerCount: 2
Fore
SplineSet
123 -99 m 1,0,1
 165 -63 165 -63 217 6 c 128,-1,2
 269 75 269 75 315.5 175.5 c 128,-1,3
 362 276 362 276 393.5 406 c 128,-1,4
 425 536 425 536 425 694 c 0,5,6
 425 854 425 854 396.5 985.5 c 128,-1,7
 368 1117 368 1117 325 1217.5 c 128,-1,8
 282 1318 282 1318 232 1387 c 128,-1,9
 182 1456 182 1456 140 1491 c 1,10,-1
 223 1599 l 1,11,12
 236 1590 236 1590 270.5 1561.5 c 128,-1,13
 305 1533 305 1533 348 1483.5 c 128,-1,14
 391 1434 391 1434 437.5 1362 c 128,-1,15
 484 1290 484 1290 523 1194.5 c 128,-1,16
 562 1099 562 1099 587 978 c 128,-1,17
 612 857 612 857 612 710 c 0,18,19
 612 572 612 572 592.5 457 c 128,-1,20
 573 342 573 342 541 248 c 128,-1,21
 509 154 509 154 467.5 80.5 c 128,-1,22
 426 7 426 7 383 -49 c 128,-1,23
 340 -105 340 -105 298 -143.5 c 128,-1,24
 256 -182 256 -182 223 -205 c 1,25,-1
 123 -99 l 1,0,1
EndSplineSet
EndChar

StartChar: asterisk
Encoding: 42 42 13
Width: 933
GlyphClass: 2
Flags: W
LayerCount: 2
Fore
SplineSet
164 872 m 1,0,-1
 334 1145 l 1,1,-1
 25 1145 l 1,2,-1
 25 1237 l 1,3,-1
 336 1237 l 1,4,-1
 178 1509 l 1,5,-1
 281 1567 l 1,6,-1
 420 1292 l 1,7,-1
 559 1567 l 1,8,-1
 662 1509 l 1,9,-1
 504 1237 l 1,10,-1
 815 1237 l 1,11,-1
 815 1145 l 1,12,-1
 506 1145 l 1,13,-1
 676 872 l 1,14,-1
 574 815 l 1,15,-1
 420 1090 l 1,16,-1
 266 815 l 1,17,-1
 164 872 l 1,0,-1
EndSplineSet
EndChar

StartChar: plus
Encoding: 43 43 14
Width: 1040
GlyphClass: 2
Flags: W
LayerCount: 2
Fore
SplineSet
479 518 m 1,0,-1
 166 518 l 1,1,-1
 166 651 l 1,2,-1
 479 651 l 1,3,-1
 479 995 l 1,4,-1
 620 995 l 1,5,-1
 620 651 l 1,6,-1
 934 651 l 1,7,-1
 934 518 l 1,8,-1
 620 518 l 1,9,-1
 620 174 l 1,10,-1
 479 174 l 1,11,-1
 479 518 l 1,0,-1
EndSplineSet
EndChar

StartChar: comma
Encoding: 44 44 15
Width: 537
GlyphClass: 2
Flags: W
LayerCount: 2
Fore
SplineSet
134 293 m 1,0,-1
 395 293 l 1,1,-1
 395 44 l 2,2,3
 395 -71 395 -71 336.5 -146 c 128,-1,4
 278 -221 278 -221 166 -253 c 1,5,-1
 135 -159 l 1,6,7
 173 -146 173 -146 198 -131.5 c 128,-1,8
 223 -117 223 -117 238 -98.5 c 128,-1,9
 253 -80 253 -80 259 -56 c 128,-1,10
 265 -32 265 -32 265 0 c 1,11,-1
 134 0 l 1,12,-1
 134 293 l 1,0,-1
EndSplineSet
EndChar

StartChar: hyphen
Encoding: 45 45 16
Width: 944
GlyphClass: 2
Flags: W
LayerCount: 2
Fore
SplineSet
134 665 m 1,0,-1
 810 665 l 1,1,-1
 810 508 l 1,2,-1
 134 508 l 1,3,-1
 134 665 l 1,0,-1
EndSplineSet
EndChar

StartChar: period
Encoding: 46 46 17
Width: 595
GlyphClass: 2
Flags: W
LayerCount: 2
Fore
SplineSet
190 293 m 1,0,-1
 451 293 l 1,1,-1
 451 0 l 1,2,-1
 190 0 l 1,3,-1
 190 293 l 1,0,-1
EndSplineSet
EndChar

StartChar: slash
Encoding: 47 47 18
Width: 1043
GlyphClass: 2
Flags: W
LayerCount: 2
Fore
SplineSet
818 1731 m 1,0,-1
 987 1669 l 1,1,-1
 363 -179 l 1,2,-1
 193 -117 l 1,3,-1
 818 1731 l 1,0,-1
EndSplineSet
EndChar

StartChar: zero
Encoding: 48 48 19
Width: 1356
GlyphClass: 2
Flags: W
LayerCount: 2
Fore
SplineSet
109 590 m 0,0,1
 109 723 109 723 145 836.5 c 128,-1,2
 181 950 181 950 252 1033 c 128,-1,3
 323 1116 323 1116 429 1163 c 128,-1,4
 535 1210 535 1210 676 1210 c 0,5,6
 789 1210 789 1210 875.5 1181.5 c 128,-1,7
 962 1153 962 1153 1025.5 1104.5 c 128,-1,8
 1089 1056 1089 1056 1131.5 993 c 128,-1,9
 1174 930 1174 930 1199.5 861 c 128,-1,10
 1225 792 1225 792 1236 722 c 128,-1,11
 1247 652 1247 652 1247 590 c 0,12,13
 1247 462 1247 462 1211.5 349 c 128,-1,14
 1176 236 1176 236 1104.5 151.5 c 128,-1,15
 1033 67 1033 67 926 18 c 128,-1,16
 819 -31 819 -31 676 -31 c 0,17,18
 563 -31 563 -31 477 -1.5 c 128,-1,19
 391 28 391 28 328 77.5 c 128,-1,20
 265 127 265 127 223 191.5 c 128,-1,21
 181 256 181 256 155.5 325 c 128,-1,22
 130 394 130 394 119.5 462.5 c 128,-1,23
 109 531 109 531 109 590 c 0,0,1
295 592 m 0,24,25
 295 491 295 491 312 416 c 128,-1,26
 329 341 329 341 358 287.5 c 128,-1,27
 387 234 387 234 425.5 199.5 c 128,-1,28
 464 165 464 165 506 145.5 c 128,-1,29
 548 126 548 126 592 118.5 c 128,-1,30
 636 111 636 111 676 111 c 0,31,32
 754 111 754 111 812.5 131 c 128,-1,33
 871 151 871 151 914 185.5 c 128,-1,34
 957 220 957 220 985 267.5 c 128,-1,35
 1013 315 1013 315 1030 370 c 128,-1,36
 1047 425 1047 425 1054 485 c 128,-1,37
 1061 545 1061 545 1061 606 c 0,38,39
 1061 657 1061 657 1054 711.5 c 128,-1,40
 1047 766 1047 766 1030.5 817.5 c 128,-1,41
 1014 869 1014 869 986 914.5 c 128,-1,42
 958 960 958 960 915 994.5 c 128,-1,43
 872 1029 872 1029 813 1049 c 128,-1,44
 754 1069 754 1069 676 1069 c 0,45,46
 563 1069 563 1069 489.5 1028 c 128,-1,47
 416 987 416 987 372.5 920 c 128,-1,48
 329 853 329 853 312 767.5 c 128,-1,49
 295 682 295 682 295 592 c 0,24,25
EndSplineSet
EndChar

StartChar: one
Encoding: 49 49 20
Width: 744
GlyphClass: 2
Flags: W
LayerCount: 2
Fore
SplineSet
324 1057 m 1,0,-1
 117 957 l 1,1,-1
 64 1083 l 1,2,-1
 321 1202 l 1,3,-1
 511 1202 l 1,4,-1
 511 0 l 1,5,-1
 324 0 l 1,6,-1
 324 1057 l 1,0,-1
EndSplineSet
EndChar

StartChar: two
Encoding: 50 50 21
Width: 1104
GlyphClass: 2
Flags: W
LayerCount: 2
Fore
SplineSet
123 146 m 1,0,-1
 531 480 l 2,1,2
 607 542 607 542 655 590.5 c 128,-1,3
 703 639 703 639 730 681 c 128,-1,4
 757 723 757 723 766.5 762 c 128,-1,5
 776 801 776 801 776 846 c 0,6,7
 776 949 776 949 706.5 1004 c 128,-1,8
 637 1059 637 1059 500 1059 c 0,9,10
 473 1059 473 1059 440 1054 c 128,-1,11
 407 1049 407 1049 372 1040 c 128,-1,12
 337 1031 337 1031 301.5 1018.5 c 128,-1,13
 266 1006 266 1006 235 992 c 1,14,-1
 182 1108 l 1,15,16
 203 1123 203 1123 234 1139 c 128,-1,17
 265 1155 265 1155 307 1168 c 128,-1,18
 349 1181 349 1181 402.5 1189.5 c 128,-1,19
 456 1198 456 1198 522 1198 c 0,20,21
 605 1198 605 1198 668.5 1183.5 c 128,-1,22
 732 1169 732 1169 778 1143.5 c 128,-1,23
 824 1118 824 1118 855 1083.5 c 128,-1,24
 886 1049 886 1049 904.5 1010 c 128,-1,25
 923 971 923 971 930.5 928.5 c 128,-1,26
 938 886 938 886 938 845 c 0,27,28
 938 790 938 790 923.5 738 c 128,-1,29
 909 686 909 686 872.5 630.5 c 128,-1,30
 836 575 836 575 775 513 c 128,-1,31
 714 451 714 451 621 376 c 2,32,-1
 342 152 l 1,33,-1
 938 152 l 1,34,-1
 938 0 l 1,35,-1
 123 0 l 1,36,-1
 123 146 l 1,0,-1
EndSplineSet
EndChar

StartChar: three
Encoding: 51 51 22
Width: 1136
GlyphClass: 2
Flags: W
LayerCount: 2
Fore
SplineSet
160 31 m 1,0,1
 210 5 210 5 268 -14 c 0,2,3
 318 -31 318 -31 381.5 -45 c 128,-1,4
 445 -59 445 -59 515 -59 c 0,5,6
 659 -59 659 -59 729 3 c 128,-1,7
 799 65 799 65 799 186 c 0,8,9
 799 433 799 433 463 471 c 1,10,-1
 463 614 l 1,11,12
 521 614 521 614 577 625 c 128,-1,13
 633 636 633 636 677 662 c 128,-1,14
 721 688 721 688 748 732.5 c 128,-1,15
 775 777 775 777 775 843 c 0,16,17
 775 958 775 958 704.5 1010.5 c 128,-1,18
 634 1063 634 1063 486 1063 c 0,19,20
 443 1063 443 1063 391.5 1052 c 128,-1,21
 340 1041 340 1041 295 1027 c 0,22,23
 242 1011 242 1011 189 992 c 1,24,-1
 143 1127 l 1,25,26
 195 1148 195 1148 253 1166 c 0,27,28
 303 1181 303 1181 365 1193.5 c 128,-1,29
 427 1206 427 1206 492 1206 c 0,30,31
 536 1206 536 1206 586 1200.5 c 128,-1,32
 636 1195 636 1195 686 1180.5 c 128,-1,33
 736 1166 736 1166 782 1141.5 c 128,-1,34
 828 1117 828 1117 863 1079 c 128,-1,35
 898 1041 898 1041 919 988.5 c 128,-1,36
 940 936 940 936 940 866 c 0,37,38
 940 806 940 806 925 759 c 128,-1,39
 910 712 910 712 885.5 676 c 128,-1,40
 861 640 861 640 830 615.5 c 128,-1,41
 799 591 799 591 767 575 c 128,-1,42
 735 559 735 559 704.5 552 c 128,-1,43
 674 545 674 545 651 545 c 1,44,45
 680 539 680 539 715.5 528 c 128,-1,46
 751 517 751 517 787.5 497.5 c 128,-1,47
 824 478 824 478 858.5 450 c 128,-1,48
 893 422 893 422 920 381.5 c 128,-1,49
 947 341 947 341 963 288 c 128,-1,50
 979 235 979 235 979 166 c 0,51,52
 979 71 979 71 937.5 2.5 c 128,-1,53
 896 -66 896 -66 829.5 -110.5 c 128,-1,54
 763 -155 763 -155 679 -176.5 c 128,-1,55
 595 -198 595 -198 511 -198 c 0,56,57
 433 -198 433 -198 360.5 -183 c 128,-1,58
 288 -168 288 -168 231 -150 c 0,59,60
 165 -129 165 -129 106 -102 c 1,61,-1
 160 31 l 1,0,1
EndSplineSet
EndChar

StartChar: four
Encoding: 52 52 23
Width: 1199
GlyphClass: 2
Flags: W
LayerCount: 2
Fore
SplineSet
78 205 m 1,0,-1
 762 1208 l 1,1,-1
 924 1169 l 1,2,-1
 924 207 l 1,3,-1
 1110 207 l 1,4,-1
 1110 68 l 1,5,-1
 924 68 l 1,6,-1
 924 -260 l 1,7,-1
 755 -260 l 1,8,-1
 755 68 l 1,9,-1
 106 68 l 1,10,-1
 78 205 l 1,0,-1
755 205 m 1,11,-1
 755 930 l 1,12,-1
 263 205 l 1,13,-1
 755 205 l 1,11,-1
EndSplineSet
EndChar

StartChar: five
Encoding: 53 53 24
Width: 1102
GlyphClass: 2
Flags: W
LayerCount: 2
Fore
SplineSet
186 31 m 1,0,1
 260 -9 260 -9 344.5 -32.5 c 128,-1,2
 429 -56 429 -56 518 -56 c 0,3,4
 835 -56 835 -56 835 244 c 0,5,6
 835 400 835 400 761 474.5 c 128,-1,7
 687 549 687 549 538 549 c 0,8,9
 466 549 466 549 397.5 524.5 c 128,-1,10
 329 500 329 500 269 458 c 1,11,-1
 171 537 l 1,12,-1
 171 1169 l 1,13,-1
 919 1169 l 1,14,-1
 919 1018 l 1,15,-1
 316 1018 l 1,16,-1
 316 622 l 2,17,18
 316 621 316 621 329.5 633 c 128,-1,19
 343 645 343 645 372 659.5 c 128,-1,20
 401 674 401 674 446.5 686 c 128,-1,21
 492 698 492 698 556 698 c 0,22,23
 656 698 656 698 739 667.5 c 128,-1,24
 822 637 822 637 881.5 579 c 128,-1,25
 941 521 941 521 974 436.5 c 128,-1,26
 1007 352 1007 352 1007 244 c 0,27,28
 1007 139 1007 139 973 55.5 c 128,-1,29
 939 -28 939 -28 875.5 -86.5 c 128,-1,30
 812 -145 812 -145 721 -176 c 128,-1,31
 630 -207 630 -207 516 -207 c 0,32,33
 418 -207 418 -207 321 -183.5 c 128,-1,34
 224 -160 224 -160 135 -115 c 1,35,-1
 186 31 l 1,0,1
EndSplineSet
EndChar

StartChar: six
Encoding: 54 54 25
Width: 1241
GlyphClass: 2
Flags: W
LayerCount: 2
Fore
SplineSet
882 1174 m 1,0,1
 803 1157 803 1157 715.5 1120.5 c 128,-1,2
 628 1084 628 1084 549.5 1024 c 128,-1,3
 471 964 471 964 410 879 c 128,-1,4
 349 794 349 794 323 680 c 1,5,6
 356 704 356 704 392.5 724.5 c 128,-1,7
 429 745 429 745 471 760 c 128,-1,8
 513 775 513 775 560.5 784 c 128,-1,9
 608 793 608 793 663 793 c 0,10,11
 771 793 771 793 857 759 c 128,-1,12
 943 725 943 725 1003.5 664.5 c 128,-1,13
 1064 604 1064 604 1096.5 519.5 c 128,-1,14
 1129 435 1129 435 1129 335 c 0,15,16
 1129 234 1129 234 1096.5 145 c 128,-1,17
 1064 56 1064 56 1001 -11 c 128,-1,18
 938 -78 938 -78 844.5 -117 c 128,-1,19
 751 -156 751 -156 629 -156 c 0,20,21
 505 -156 505 -156 410.5 -115 c 128,-1,22
 316 -74 316 -74 252.5 1.5 c 128,-1,23
 189 77 189 77 156.5 184.5 c 128,-1,24
 124 292 124 292 124 425 c 0,25,26
 124 555 124 555 151.5 665.5 c 128,-1,27
 179 776 179 776 227.5 868 c 128,-1,28
 276 960 276 960 343 1033.5 c 128,-1,29
 410 1107 410 1107 489.5 1163.5 c 128,-1,30
 569 1220 569 1220 658 1258.5 c 128,-1,31
 747 1297 747 1297 839 1319 c 1,32,-1
 882 1174 l 1,0,1
302 401 m 0,33,34
 302 356 302 356 307 307.5 c 128,-1,35
 312 259 312 259 325.5 212.5 c 128,-1,36
 339 166 339 166 362.5 125 c 128,-1,37
 386 84 386 84 422.5 53 c 128,-1,38
 459 22 459 22 509.5 4 c 128,-1,39
 560 -14 560 -14 629 -14 c 0,40,41
 718 -14 718 -14 780 18 c 128,-1,42
 842 50 842 50 880.5 100.5 c 128,-1,43
 919 151 919 151 936 213 c 128,-1,44
 953 275 953 275 953 335 c 0,45,46
 953 417 953 417 930 477.5 c 128,-1,47
 907 538 907 538 867.5 578 c 128,-1,48
 828 618 828 618 775.5 637.5 c 128,-1,49
 723 657 723 657 663 657 c 0,50,51
 605 657 605 657 547.5 642 c 128,-1,52
 490 627 490 627 441.5 606 c 128,-1,53
 393 585 393 585 357.5 562 c 128,-1,54
 322 539 322 539 308 523 c 1,55,56
 302 485 302 485 302 401 c 0,33,34
EndSplineSet
EndChar

StartChar: seven
Encoding: 55 55 26
Width: 1132
GlyphClass: 2
Flags: W
LayerCount: 2
Fore
SplineSet
823 1074 m 1,0,-1
 145 1074 l 1,1,-1
 145 1229 l 1,2,-1
 981 1229 l 1,3,-1
 1038 1107 l 1,4,-1
 466 -176 l 1,5,-1
 298 -100 l 1,6,-1
 823 1074 l 1,0,-1
EndSplineSet
EndChar

StartChar: eight
Encoding: 56 56 27
Width: 1262
GlyphClass: 2
Flags: W
LayerCount: 2
Fore
SplineSet
158 233 m 0,0,1
 158 396 158 396 224.5 496.5 c 128,-1,2
 291 597 291 597 420 636 c 1,3,4
 372 652 372 652 325.5 678.5 c 128,-1,5
 279 705 279 705 241.5 745 c 128,-1,6
 204 785 204 785 181 840 c 128,-1,7
 158 895 158 895 158 968 c 0,8,9
 158 1056 158 1056 194.5 1124 c 128,-1,10
 231 1192 231 1192 295.5 1238.5 c 128,-1,11
 360 1285 360 1285 447.5 1309.5 c 128,-1,12
 535 1334 535 1334 637 1334 c 0,13,14
 737 1334 737 1334 823 1309.5 c 128,-1,15
 909 1285 909 1285 971 1238 c 128,-1,16
 1033 1191 1033 1191 1068.5 1122.5 c 128,-1,17
 1104 1054 1104 1054 1104 966 c 0,18,19
 1104 894 1104 894 1081.5 839.5 c 128,-1,20
 1059 785 1059 785 1022 745 c 128,-1,21
 985 705 985 705 938 678 c 128,-1,22
 891 651 891 651 842 634 c 1,23,24
 971 595 971 595 1037.5 494.5 c 128,-1,25
 1104 394 1104 394 1104 231 c 0,26,27
 1104 137 1104 137 1069.5 66 c 128,-1,28
 1035 -5 1035 -5 973 -52.5 c 128,-1,29
 911 -100 911 -100 825.5 -124 c 128,-1,30
 740 -148 740 -148 637 -148 c 0,31,32
 538 -148 538 -148 451 -125 c 128,-1,33
 364 -102 364 -102 298.5 -55 c 128,-1,34
 233 -8 233 -8 195.5 63.5 c 128,-1,35
 158 135 158 135 158 233 c 0,0,1
637 691 m 0,36,37
 695 691 695 691 747.5 711.5 c 128,-1,38
 800 732 800 732 840 769 c 128,-1,39
 880 806 880 806 903 855.5 c 128,-1,40
 926 905 926 905 926 964 c 0,41,42
 926 1032 926 1032 902 1077.5 c 128,-1,43
 878 1123 878 1123 837.5 1150 c 128,-1,44
 797 1177 797 1177 745 1188 c 128,-1,45
 693 1199 693 1199 637 1199 c 0,46,47
 584 1199 584 1199 530.5 1189 c 128,-1,48
 477 1179 477 1179 433.5 1153 c 128,-1,49
 390 1127 390 1127 363 1081.5 c 128,-1,50
 336 1036 336 1036 336 966 c 0,51,52
 336 907 336 907 360.5 856.5 c 128,-1,53
 385 806 385 806 426.5 769.5 c 128,-1,54
 468 733 468 733 522.5 712 c 128,-1,55
 577 691 577 691 637 691 c 0,36,37
336 255 m 0,56,57
 336 191 336 191 351 142 c 128,-1,58
 366 93 366 93 401.5 59.5 c 128,-1,59
 437 26 437 26 494.5 8.5 c 128,-1,60
 552 -9 552 -9 637 -9 c 0,61,62
 724 -9 724 -9 780 9 c 128,-1,63
 836 27 836 27 868.5 61 c 128,-1,64
 901 95 901 95 913.5 143.5 c 128,-1,65
 926 192 926 192 926 253 c 0,66,67
 926 322 926 322 904.5 380.5 c 128,-1,68
 883 439 883 439 844.5 482.5 c 128,-1,69
 806 526 806 526 753 550.5 c 128,-1,70
 700 575 700 575 637 575 c 0,71,72
 572 575 572 575 517 551 c 128,-1,73
 462 527 462 527 422 484.5 c 128,-1,74
 382 442 382 442 359 383 c 128,-1,75
 336 324 336 324 336 255 c 0,56,57
EndSplineSet
EndChar

StartChar: nine
Encoding: 57 57 28
Width: 1246
GlyphClass: 2
Flags: W
LayerCount: 2
Fore
SplineSet
364 -16 m 1,0,1
 414 -6 414 -6 470 14 c 128,-1,2
 526 34 526 34 582.5 64 c 128,-1,3
 639 94 639 94 692.5 134.5 c 128,-1,4
 746 175 746 175 791 226.5 c 128,-1,5
 836 278 836 278 869 341.5 c 128,-1,6
 902 405 902 405 918 481 c 1,7,8
 866 430 866 430 779.5 397.5 c 128,-1,9
 693 365 693 365 583 365 c 0,10,11
 475 365 475 365 388.5 398.5 c 128,-1,12
 302 432 302 432 241.5 493 c 128,-1,13
 181 554 181 554 149 638 c 128,-1,14
 117 722 117 722 117 823 c 0,15,16
 117 923 117 923 149.5 1012.5 c 128,-1,17
 182 1102 182 1102 245 1169 c 128,-1,18
 308 1236 308 1236 401.5 1275 c 128,-1,19
 495 1314 495 1314 617 1314 c 0,20,21
 741 1314 741 1314 835.5 1273 c 128,-1,22
 930 1232 930 1232 993.5 1156.5 c 128,-1,23
 1057 1081 1057 1081 1089.5 973.5 c 128,-1,24
 1122 866 1122 866 1122 733 c 0,25,26
 1122 605 1122 605 1095 495 c 128,-1,27
 1068 385 1068 385 1020 293 c 128,-1,28
 972 201 972 201 905.5 126.5 c 128,-1,29
 839 52 839 52 759.5 -4.5 c 128,-1,30
 680 -61 680 -61 590.5 -100 c 128,-1,31
 501 -139 501 -139 407 -161 c 1,32,-1
 364 -16 l 1,0,1
583 501 m 0,33,34
 641 501 641 501 698.5 515.5 c 128,-1,35
 756 530 756 530 804.5 551 c 128,-1,36
 853 572 853 572 888.5 595 c 128,-1,37
 924 618 924 618 938 635 c 1,38,39
 944 672 944 672 944 757 c 0,40,41
 944 802 944 802 939 850.5 c 128,-1,42
 934 899 934 899 920.5 945 c 128,-1,43
 907 991 907 991 883.5 1032.5 c 128,-1,44
 860 1074 860 1074 823.5 1105 c 128,-1,45
 787 1136 787 1136 736 1154 c 128,-1,46
 685 1172 685 1172 617 1172 c 0,47,48
 528 1172 528 1172 466.5 1140 c 128,-1,49
 405 1108 405 1108 366.5 1058 c 128,-1,50
 328 1008 328 1008 310.5 946 c 128,-1,51
 293 884 293 884 293 823 c 0,52,53
 293 741 293 741 316 680.5 c 128,-1,54
 339 620 339 620 378.5 580 c 128,-1,55
 418 540 418 540 470.5 520.5 c 128,-1,56
 523 501 523 501 583 501 c 0,33,34
EndSplineSet
EndChar

StartChar: colon
Encoding: 58 58 29
Width: 596
GlyphClass: 2
Flags: W
LayerCount: 2
Fore
SplineSet
180 864 m 1,0,-1
 450 864 l 1,1,-1
 450 583 l 1,2,-1
 180 583 l 1,3,-1
 180 864 l 1,0,-1
180 281 m 1,4,-1
 450 281 l 1,5,-1
 450 0 l 1,6,-1
 180 0 l 1,7,-1
 180 281 l 1,4,-1
EndSplineSet
EndChar

StartChar: semicolon
Encoding: 59 59 30
Width: 574
GlyphClass: 2
Flags: W
LayerCount: 2
Fore
SplineSet
169 864 m 1,0,-1
 432 864 l 1,1,-1
 432 583 l 1,2,-1
 169 583 l 1,3,-1
 169 864 l 1,0,-1
171 293 m 1,4,-1
 432 293 l 1,5,-1
 432 44 l 2,6,7
 432 -71 432 -71 373.5 -146 c 128,-1,8
 315 -221 315 -221 203 -253 c 1,9,-1
 172 -159 l 1,10,11
 210 -146 210 -146 235 -131.5 c 128,-1,12
 260 -117 260 -117 275 -98.5 c 128,-1,13
 290 -80 290 -80 296 -56 c 128,-1,14
 302 -32 302 -32 302 0 c 1,15,-1
 171 0 l 1,16,-1
 171 293 l 1,4,-1
EndSplineSet
EndChar

StartChar: less
Encoding: 60 60 31
Width: 1250
GlyphClass: 2
Flags: W
LayerCount: 2
Fore
SplineSet
898 1266 m 1,0,-1
 1000 1156 l 1,1,-1
 449 663 l 1,2,-1
 1000 170 l 1,3,-1
 898 60 l 1,4,-1
 243 663 l 1,5,-1
 898 1266 l 1,0,-1
EndSplineSet
EndChar

StartChar: equal
Encoding: 61 61 32
Width: 944
GlyphClass: 2
Flags: W
LayerCount: 2
Fore
SplineSet
178 639 m 1,0,-1
 766 639 l 1,1,-1
 766 508 l 1,2,-1
 178 508 l 1,3,-1
 178 639 l 1,0,-1
178 411 m 1,4,-1
 766 411 l 1,5,-1
 766 280 l 1,6,-1
 178 280 l 1,7,-1
 178 411 l 1,4,-1
EndSplineSet
EndChar

StartChar: greater
Encoding: 62 62 33
Width: 1290
GlyphClass: 2
Flags: W
LayerCount: 2
Fore
SplineSet
874 663 m 1,0,-1
 323 1156 l 1,1,-1
 425 1266 l 1,2,-1
 1080 663 l 1,3,-1
 425 60 l 1,4,-1
 323 170 l 1,5,-1
 874 663 l 1,0,-1
EndSplineSet
EndChar

StartChar: question
Encoding: 63 63 34
Width: 1201
GlyphClass: 2
Flags: W
LayerCount: 2
Fore
SplineSet
318 777 m 1,0,1
 452 822 452 822 550.5 865 c 128,-1,2
 649 908 649 908 713.5 956 c 128,-1,3
 778 1004 778 1004 809.5 1062 c 128,-1,4
 841 1120 841 1120 841 1195 c 0,5,6
 841 1312 841 1312 767 1365 c 128,-1,7
 693 1418 693 1418 547 1418 c 0,8,9
 475 1418 475 1418 412.5 1404.5 c 128,-1,10
 350 1391 350 1391 303 1375 c 0,11,12
 248 1356 248 1356 202 1332 c 1,13,-1
 141 1477 l 1,14,15
 196 1505 196 1505 261 1528 c 0,16,17
 317 1547 317 1547 390.5 1563 c 128,-1,18
 464 1579 464 1579 549 1579 c 0,19,20
 652 1579 652 1579 740 1556.5 c 128,-1,21
 828 1534 828 1534 893 1487 c 128,-1,22
 958 1440 958 1440 995 1368 c 128,-1,23
 1032 1296 1032 1296 1032 1197 c 0,24,25
 1032 1112 1032 1112 1007.5 1046 c 128,-1,26
 983 980 983 980 942 928.5 c 128,-1,27
 901 877 901 877 847 838 c 128,-1,28
 793 799 793 799 733.5 769 c 128,-1,29
 674 739 674 739 613.5 716.5 c 128,-1,30
 553 694 553 694 498 675 c 1,31,-1
 498 296 l 1,32,-1
 318 296 l 1,33,-1
 318 777 l 1,0,1
308 218 m 1,34,-1
 508 218 l 1,35,-1
 508 0 l 1,36,-1
 308 0 l 1,37,-1
 308 218 l 1,34,-1
EndSplineSet
EndChar

StartChar: at
Encoding: 64 64 35
Width: 1927
GlyphClass: 2
Flags: W
LayerCount: 2
Fore
SplineSet
1561 42 m 1,0,1
 1520 -3 1520 -3 1460 -39.5 c 128,-1,2
 1400 -76 1400 -76 1324.5 -101.5 c 128,-1,3
 1249 -127 1249 -127 1160 -141 c 128,-1,4
 1071 -155 1071 -155 973 -155 c 0,5,6
 753 -155 753 -155 595 -96 c 128,-1,7
 437 -37 437 -37 335.5 63.5 c 128,-1,8
 234 164 234 164 186 297 c 128,-1,9
 138 430 138 430 138 578 c 0,10,11
 138 720 138 720 171.5 840 c 128,-1,12
 205 960 205 960 264 1057.5 c 128,-1,13
 323 1155 323 1155 404 1229.5 c 128,-1,14
 485 1304 485 1304 579.5 1354.5 c 128,-1,15
 674 1405 674 1405 778.5 1430.5 c 128,-1,16
 883 1456 883 1456 990 1456 c 0,17,18
 1098 1456 1098 1456 1200.5 1437.5 c 128,-1,19
 1303 1419 1303 1419 1393 1380.5 c 128,-1,20
 1483 1342 1483 1342 1557.5 1284.5 c 128,-1,21
 1632 1227 1632 1227 1685.5 1149.5 c 128,-1,22
 1739 1072 1739 1072 1769 973.5 c 128,-1,23
 1799 875 1799 875 1799 756 c 0,24,25
 1799 649 1799 649 1778 566 c 128,-1,26
 1757 483 1757 483 1721.5 421 c 128,-1,27
 1686 359 1686 359 1640.5 317 c 128,-1,28
 1595 275 1595 275 1546 248.5 c 128,-1,29
 1497 222 1497 222 1448 210.5 c 128,-1,30
 1399 199 1399 199 1358 199 c 0,31,32
 1323 199 1323 199 1303.5 208.5 c 128,-1,33
 1284 218 1284 218 1273.5 234 c 128,-1,34
 1263 250 1263 250 1260.5 271 c 128,-1,35
 1258 292 1258 292 1258 316 c 2,36,-1
 1258 548 l 1,37,38
 1246 489 1246 489 1215.5 427.5 c 128,-1,39
 1185 366 1185 366 1134 315 c 128,-1,40
 1083 264 1083 264 1010.5 231.5 c 128,-1,41
 938 199 938 199 842 199 c 0,42,43
 756 199 756 199 688 226.5 c 128,-1,44
 620 254 620 254 573.5 304.5 c 128,-1,45
 527 355 527 355 502.5 427.5 c 128,-1,46
 478 500 478 500 478 590 c 0,47,48
 478 655 478 655 497.5 720 c 128,-1,49
 517 785 517 785 553 845 c 128,-1,50
 589 905 589 905 640 956.5 c 128,-1,51
 691 1008 691 1008 754 1046 c 128,-1,52
 817 1084 817 1084 890.5 1106 c 128,-1,53
 964 1128 964 1128 1045 1128 c 0,54,55
 1061 1128 1061 1128 1090 1125.5 c 128,-1,56
 1119 1123 1119 1123 1152 1119.5 c 128,-1,57
 1185 1116 1185 1116 1218.5 1112 c 128,-1,58
 1252 1108 1252 1108 1276 1104 c 2,59,-1
 1330 1096 l 1,60,-1
 1385 987 l 1,61,-1
 1385 317 l 1,62,63
 1446 317 1446 317 1493.5 341.5 c 128,-1,64
 1541 366 1541 366 1573 419.5 c 128,-1,65
 1605 473 1605 473 1622 556.5 c 128,-1,66
 1639 640 1639 640 1639 758 c 0,67,68
 1639 869 1639 869 1613 953.5 c 128,-1,69
 1587 1038 1587 1038 1541 1100 c 128,-1,70
 1495 1162 1495 1162 1433 1203.5 c 128,-1,71
 1371 1245 1371 1245 1299.5 1270.5 c 128,-1,72
 1228 1296 1228 1296 1150.5 1306.5 c 128,-1,73
 1073 1317 1073 1317 996 1317 c 0,74,75
 845 1317 845 1317 717 1267 c 128,-1,76
 589 1217 589 1217 495.5 1122 c 128,-1,77
 402 1027 402 1027 349.5 889.5 c 128,-1,78
 297 752 297 752 297 578 c 0,79,80
 297 440 297 440 341 329.5 c 128,-1,81
 385 219 385 219 471.5 142.5 c 128,-1,82
 558 66 558 66 686 25 c 128,-1,83
 814 -16 814 -16 983 -16 c 0,84,85
 1099 -16 1099 -16 1185 3 c 128,-1,86
 1271 22 1271 22 1329.5 46.5 c 128,-1,87
 1388 71 1388 71 1421 95 c 128,-1,88
 1454 119 1454 119 1464 129 c 1,89,-1
 1470 134 l 1,90,-1
 1561 42 l 1,0,1
1237 987 m 2,91,92
 1238 987 1238 987 1221 990.5 c 128,-1,93
 1204 994 1204 994 1178 997.5 c 128,-1,94
 1152 1001 1152 1001 1120.5 1004.5 c 128,-1,95
 1089 1008 1089 1008 1061 1008 c 0,96,97
 977 1008 977 1008 899.5 976.5 c 128,-1,98
 822 945 822 945 762.5 888 c 128,-1,99
 703 831 703 831 668 750.5 c 128,-1,100
 633 670 633 670 633 573 c 0,101,102
 633 330 633 330 858 330 c 0,103,104
 935 330 935 330 1003 363 c 128,-1,105
 1071 396 1071 396 1122 466 c 128,-1,106
 1173 536 1173 536 1203.5 645 c 128,-1,107
 1234 754 1234 754 1236 906 c 2,108,-1
 1237 987 l 2,91,92
EndSplineSet
EndChar

StartChar: A
Encoding: 65 65 36
Width: 1458
GlyphClass: 2
Flags: W
LayerCount: 2
Fore
SplineSet
579 1579 m 1,0,-1
 879 1579 l 1,1,-1
 1395 0 l 1,2,-1
 1196 0 l 1,3,-1
 1073 383 l 1,4,-1
 385 383 l 1,5,-1
 262 0 l 1,6,-1
 63 0 l 1,7,-1
 579 1579 l 1,0,-1
1046 485 m 1,8,-1
 729 1456 l 1,9,-1
 412 485 l 1,10,-1
 1046 485 l 1,8,-1
EndSplineSet
EndChar

StartChar: B
Encoding: 66 66 37
Width: 1365
GlyphClass: 2
Flags: W
LayerCount: 2
Fore
SplineSet
153 1579 m 1,0,-1
 514 1579 l 2,1,2
 576 1579 576 1579 650.5 1576.5 c 128,-1,3
 725 1574 725 1574 800 1563 c 128,-1,4
 875 1552 875 1552 945.5 1529.5 c 128,-1,5
 1016 1507 1016 1507 1070.5 1467 c 128,-1,6
 1125 1427 1125 1427 1158 1367 c 128,-1,7
 1191 1307 1191 1307 1191 1221 c 0,8,9
 1191 1159 1191 1159 1184.5 1116 c 128,-1,10
 1178 1073 1178 1073 1166 1043 c 128,-1,11
 1154 1013 1154 1013 1137.5 992.5 c 128,-1,12
 1121 972 1121 972 1101 955 c 0,13,14
 1062 922 1062 922 1006 898.5 c 128,-1,15
 950 875 950 875 866 862 c 1,16,17
 929 855 929 855 982.5 839.5 c 128,-1,18
 1036 824 1036 824 1084 798 c 0,19,20
 1120 778 1120 778 1154 749 c 128,-1,21
 1188 720 1188 720 1214.5 675.5 c 128,-1,22
 1241 631 1241 631 1257 569 c 128,-1,23
 1273 507 1273 507 1273 421 c 0,24,25
 1273 326 1273 326 1250.5 258 c 128,-1,26
 1228 190 1228 190 1185.5 143.5 c 128,-1,27
 1143 97 1143 97 1081.5 68.5 c 128,-1,28
 1020 40 1020 40 942 25 c 128,-1,29
 864 10 864 10 771 5 c 128,-1,30
 678 0 678 0 573 0 c 2,31,-1
 153 0 l 1,32,-1
 153 1579 l 1,0,-1
606 915 m 2,33,34
 730 915 730 915 811.5 931 c 128,-1,35
 893 947 893 947 940.5 982.5 c 128,-1,36
 988 1018 988 1018 1007 1074.5 c 128,-1,37
 1026 1131 1026 1131 1026 1212 c 0,38,39
 1026 1272 1026 1272 998.5 1314.5 c 128,-1,40
 971 1357 971 1357 910.5 1384 c 128,-1,41
 850 1411 850 1411 753 1423.5 c 128,-1,42
 656 1436 656 1436 518 1436 c 2,43,-1
 347 1436 l 1,44,-1
 347 915 l 1,45,-1
 606 915 l 2,33,34
573 143 m 2,46,47
 721 143 721 143 820.5 161 c 128,-1,48
 920 179 920 179 980 217 c 128,-1,49
 1040 255 1040 255 1065.5 314.5 c 128,-1,50
 1091 374 1091 374 1091 457 c 0,51,52
 1091 550 1091 550 1062.5 613.5 c 128,-1,53
 1034 677 1034 677 974.5 715 c 128,-1,54
 915 753 915 753 824.5 769.5 c 128,-1,55
 734 786 734 786 610 786 c 2,56,-1
 347 786 l 1,57,-1
 347 143 l 1,58,-1
 573 143 l 2,46,47
EndSplineSet
EndChar

StartChar: C
Encoding: 67 67 38
Width: 1273
GlyphClass: 2
Flags: W
LayerCount: 2
Fore
SplineSet
1213 79 m 1,0,1
 1153 45 1153 45 1083 19 c 0,2,3
 1023 -4 1023 -4 943.5 -22.5 c 128,-1,4
 864 -41 864 -41 773 -41 c 0,5,6
 601 -41 601 -41 475 15 c 128,-1,7
 349 71 349 71 266.5 175.5 c 128,-1,8
 184 280 184 280 143.5 429.5 c 128,-1,9
 103 579 103 579 103 767 c 0,10,11
 103 858 103 858 117 955.5 c 128,-1,12
 131 1053 131 1053 163 1147 c 128,-1,13
 195 1241 195 1241 246.5 1325 c 128,-1,14
 298 1409 298 1409 373.5 1472.5 c 128,-1,15
 449 1536 449 1536 549.5 1573 c 128,-1,16
 650 1610 650 1610 781 1610 c 0,17,18
 868 1610 868 1610 942 1597.5 c 128,-1,19
 1016 1585 1016 1585 1070 1570 c 0,20,21
 1133 1552 1133 1552 1185 1530 c 1,22,-1
 1140 1385 l 1,23,24
 1095 1405 1095 1405 1040 1421 c 0,25,26
 992 1435 992 1435 928.5 1446.5 c 128,-1,27
 865 1458 865 1458 788 1458 c 0,28,29
 660 1458 660 1458 568 1406 c 128,-1,30
 476 1354 476 1354 417.5 1262 c 128,-1,31
 359 1170 359 1170 331.5 1043.5 c 128,-1,32
 304 917 304 917 304 768 c 0,33,34
 304 613 304 613 331.5 491 c 128,-1,35
 359 369 359 369 416 284 c 128,-1,36
 473 199 473 199 562 154 c 128,-1,37
 651 109 651 109 774 109 c 0,38,39
 852 109 852 109 921.5 126 c 128,-1,40
 991 143 991 143 1044 163 c 0,41,42
 1106 187 1106 187 1157 218 c 1,43,-1
 1213 79 l 1,0,1
EndSplineSet
EndChar

StartChar: D
Encoding: 68 68 39
Width: 1489
GlyphClass: 2
Flags: W
LayerCount: 2
Fore
SplineSet
153 1579 m 1,0,-1
 728 1579 l 2,1,2
 1059 1579 1059 1579 1222.5 1379 c 128,-1,3
 1386 1179 1386 1179 1386 789 c 0,4,5
 1386 595 1386 595 1346.5 447.5 c 128,-1,6
 1307 300 1307 300 1225.5 200.5 c 128,-1,7
 1144 101 1144 101 1020 50.5 c 128,-1,8
 896 0 896 0 728 0 c 2,9,-1
 153 0 l 1,10,-1
 153 1579 l 1,0,-1
728 143 m 2,11,12
 819 143 819 143 888.5 170.5 c 128,-1,13
 958 198 958 198 1009 245.5 c 128,-1,14
 1060 293 1060 293 1094 356.5 c 128,-1,15
 1128 420 1128 420 1148.5 492.5 c 128,-1,16
 1169 565 1169 565 1177.5 642.5 c 128,-1,17
 1186 720 1186 720 1186 795 c 0,18,19
 1186 963 1186 963 1158.5 1084 c 128,-1,20
 1131 1205 1131 1205 1074.5 1283 c 128,-1,21
 1018 1361 1018 1361 931.5 1398.5 c 128,-1,22
 845 1436 845 1436 728 1436 c 2,23,-1
 347 1436 l 1,24,-1
 347 143 l 1,25,-1
 728 143 l 2,11,12
EndSplineSet
EndChar

StartChar: E
Encoding: 69 69 40
Width: 1192
GlyphClass: 2
Flags: W
LayerCount: 2
Fore
SplineSet
153 1579 m 1,0,-1
 1123 1579 l 1,1,-1
 1123 1436 l 1,2,-1
 347 1436 l 1,3,-1
 347 891 l 1,4,-1
 1025 891 l 1,5,-1
 1025 776 l 1,6,-1
 347 776 l 1,7,-1
 347 143 l 1,8,-1
 1136 143 l 1,9,-1
 1136 0 l 1,10,-1
 153 0 l 1,11,-1
 153 1579 l 1,0,-1
EndSplineSet
EndChar

StartChar: F
Encoding: 70 70 41
Width: 1124
GlyphClass: 2
Flags: W
LayerCount: 2
Fore
SplineSet
153 1579 m 1,0,-1
 1074 1579 l 1,1,-1
 1074 1436 l 1,2,-1
 347 1436 l 1,3,-1
 347 879 l 1,4,-1
 1013 879 l 1,5,-1
 1013 764 l 1,6,-1
 347 764 l 1,7,-1
 347 0 l 1,8,-1
 153 0 l 1,9,-1
 153 1579 l 1,0,-1
EndSplineSet
EndChar

StartChar: G
Encoding: 71 71 42
Width: 1469
GlyphClass: 2
Flags: W
LayerCount: 2
Fore
SplineSet
1167 1341 m 1,0,1
 1139 1365 1139 1365 1098 1386 c 128,-1,2
 1057 1407 1057 1407 1005 1423 c 128,-1,3
 953 1439 953 1439 892.5 1448.5 c 128,-1,4
 832 1458 832 1458 765 1458 c 0,5,6
 652 1458 652 1458 566 1418.5 c 128,-1,7
 480 1379 480 1379 421.5 1297 c 128,-1,8
 363 1215 363 1215 333.5 1089.5 c 128,-1,9
 304 964 304 964 304 792 c 0,10,11
 304 628 304 628 328 501.5 c 128,-1,12
 352 375 352 375 406 288 c 128,-1,13
 460 201 460 201 548 156 c 128,-1,14
 636 111 636 111 764 111 c 0,15,16
 850 111 850 111 923.5 126 c 128,-1,17
 997 141 997 141 1051 175.5 c 128,-1,18
 1105 210 1105 210 1135.5 264.5 c 128,-1,19
 1166 319 1166 319 1166 399 c 2,20,-1
 1166 684 l 1,21,-1
 755 684 l 1,22,-1
 755 811 l 1,23,-1
 1342 811 l 1,24,-1
 1342 0 l 1,25,-1
 1254 0 l 1,26,-1
 1201 213 l 1,27,28
 1189 162 1189 162 1156 116 c 128,-1,29
 1123 70 1123 70 1067 35 c 128,-1,30
 1011 0 1011 0 930.5 -20.5 c 128,-1,31
 850 -41 850 -41 744 -41 c 0,32,33
 585 -41 585 -41 465 21 c 128,-1,34
 345 83 345 83 264.5 193 c 128,-1,35
 184 303 184 303 143.5 455 c 128,-1,36
 103 607 103 607 103 786 c 0,37,38
 103 996 103 996 149 1151 c 128,-1,39
 195 1306 195 1306 282 1408 c 128,-1,40
 369 1510 369 1510 494 1560 c 128,-1,41
 619 1610 619 1610 777 1610 c 0,42,43
 835 1610 835 1610 895 1602.5 c 128,-1,44
 955 1595 955 1595 1013.5 1579 c 128,-1,45
 1072 1563 1072 1563 1127.5 1537.5 c 128,-1,46
 1183 1512 1183 1512 1233 1476 c 1,47,-1
 1167 1341 l 1,0,1
EndSplineSet
EndChar

StartChar: H
Encoding: 72 72 43
Width: 1527
GlyphClass: 2
Flags: W
LayerCount: 2
Fore
SplineSet
153 1579 m 1,0,-1
 347 1579 l 1,1,-1
 347 879 l 1,2,-1
 1179 879 l 1,3,-1
 1179 1579 l 1,4,-1
 1373 1579 l 1,5,-1
 1373 0 l 1,6,-1
 1179 0 l 1,7,-1
 1179 764 l 1,8,-1
 347 764 l 1,9,-1
 347 0 l 1,10,-1
 153 0 l 1,11,-1
 153 1579 l 1,0,-1
EndSplineSet
EndChar

StartChar: I
Encoding: 73 73 44
Width: 781
GlyphClass: 2
Flags: W
LayerCount: 2
Fore
SplineSet
98 112 m 1,0,-1
 302 112 l 1,1,-1
 302 1461 l 1,2,-1
 98 1461 l 1,3,-1
 98 1579 l 1,4,-1
 691 1579 l 1,5,-1
 691 1461 l 1,6,-1
 485 1461 l 1,7,-1
 485 112 l 1,8,-1
 691 112 l 1,9,-1
 691 0 l 1,10,-1
 98 0 l 1,11,-1
 98 112 l 1,0,-1
EndSplineSet
EndChar

StartChar: J
Encoding: 74 74 45
Width: 721
GlyphClass: 2
Flags: W
LayerCount: 2
Fore
SplineSet
49 35 m 1,0,1
 160 55 160 55 224.5 89 c 128,-1,2
 289 123 289 123 322.5 175.5 c 128,-1,3
 356 228 356 228 365.5 302.5 c 128,-1,4
 375 377 375 377 375 479 c 2,5,-1
 375 1579 l 1,6,-1
 567 1579 l 1,7,-1
 567 514 l 2,8,9
 567 391 567 391 551.5 286 c 128,-1,10
 536 181 536 181 487 102.5 c 128,-1,11
 438 24 438 24 345.5 -26 c 128,-1,12
 253 -76 253 -76 100 -90 c 1,13,-1
 49 35 l 1,0,1
EndSplineSet
EndChar

StartChar: K
Encoding: 75 75 46
Width: 1389
GlyphClass: 2
Flags: W
LayerCount: 2
Fore
SplineSet
153 1579 m 1,0,-1
 347 1579 l 1,1,-1
 347 854 l 1,2,-1
 570 854 l 1,3,-1
 1060 1579 l 1,4,-1
 1267 1579 l 1,5,-1
 724 798 l 1,6,-1
 1334 0 l 1,7,-1
 1117 0 l 1,8,-1
 562 747 l 1,9,-1
 347 747 l 1,10,-1
 347 0 l 1,11,-1
 153 0 l 1,12,-1
 153 1579 l 1,0,-1
EndSplineSet
EndChar

StartChar: L
Encoding: 76 76 47
Width: 1180
GlyphClass: 2
Flags: W
LayerCount: 2
Fore
SplineSet
153 1579 m 1,0,-1
 347 1579 l 1,1,-1
 347 143 l 1,2,-1
 1093 143 l 1,3,-1
 1093 0 l 1,4,-1
 153 0 l 1,5,-1
 153 1579 l 1,0,-1
EndSplineSet
EndChar

StartChar: M
Encoding: 77 77 48
Width: 1917
GlyphClass: 2
Flags: W
LayerCount: 2
Fore
SplineSet
153 1579 m 1,0,-1
 483 1579 l 1,1,-1
 958 208 l 1,2,-1
 1433 1579 l 1,3,-1
 1763 1579 l 1,4,-1
 1763 0 l 1,5,-1
 1569 0 l 1,6,-1
 1569 1459 l 1,7,-1
 1056 0 l 1,8,-1
 860 0 l 1,9,-1
 347 1459 l 1,10,-1
 347 0 l 1,11,-1
 153 0 l 1,12,-1
 153 1579 l 1,0,-1
EndSplineSet
EndChar

StartChar: N
Encoding: 78 78 49
Width: 1597
GlyphClass: 2
Flags: W
LayerCount: 2
Fore
SplineSet
153 1579 m 1,0,-1
 415 1579 l 1,1,-1
 1249 185 l 1,2,-1
 1249 1579 l 1,3,-1
 1443 1579 l 1,4,-1
 1443 0 l 1,5,-1
 1194 0 l 1,6,-1
 347 1404 l 1,7,-1
 347 0 l 1,8,-1
 153 0 l 1,9,-1
 153 1579 l 1,0,-1
EndSplineSet
EndChar

StartChar: O
Encoding: 79 79 50
Width: 1516
GlyphClass: 2
Flags: W
LayerCount: 2
Fore
SplineSet
758 -41 m 0,0,1
 599 -41 599 -41 476.5 12 c 128,-1,2
 354 65 354 65 271 168 c 128,-1,3
 188 271 188 271 145.5 422.5 c 128,-1,4
 103 574 103 574 103 772 c 0,5,6
 103 988 103 988 147.5 1146 c 128,-1,7
 192 1304 192 1304 277.5 1407 c 128,-1,8
 363 1510 363 1510 486.5 1560 c 128,-1,9
 610 1610 610 1610 769 1610 c 0,10,11
 922 1610 922 1610 1041.5 1558 c 128,-1,12
 1161 1506 1161 1506 1243.5 1401.5 c 128,-1,13
 1326 1297 1326 1297 1369.5 1140 c 128,-1,14
 1413 983 1413 983 1413 772 c 0,15,16
 1413 559 1413 559 1367 405.5 c 128,-1,17
 1321 252 1321 252 1235.5 152.5 c 128,-1,18
 1150 53 1150 53 1029 6 c 128,-1,19
 908 -41 908 -41 758 -41 c 0,0,1
303 826 m 0,20,21
 303 735 303 735 309 647.5 c 128,-1,22
 315 560 315 560 332.5 482 c 128,-1,23
 350 404 350 404 381 338 c 128,-1,24
 412 272 412 272 462.5 223 c 128,-1,25
 513 174 513 174 585.5 144.5 c 128,-1,26
 658 115 658 115 758 111 c 1,27,28
 857 114 857 114 929 142 c 128,-1,29
 1001 170 1001 170 1052 217.5 c 128,-1,30
 1103 265 1103 265 1134 329.5 c 128,-1,31
 1165 394 1165 394 1183 470 c 128,-1,32
 1201 546 1201 546 1207 631.5 c 128,-1,33
 1213 717 1213 717 1213 807 c 0,34,35
 1213 963 1213 963 1186 1084 c 128,-1,36
 1159 1205 1159 1205 1102.5 1288.5 c 128,-1,37
 1046 1372 1046 1372 960.5 1415 c 128,-1,38
 875 1458 875 1458 758 1458 c 0,39,40
 643 1458 643 1458 557.5 1415 c 128,-1,41
 472 1372 472 1372 415.5 1291 c 128,-1,42
 359 1210 359 1210 331 1092.5 c 128,-1,43
 303 975 303 975 303 826 c 0,20,21
EndSplineSet
EndChar

StartChar: P
Encoding: 80 80 51
Width: 1330
GlyphClass: 2
Flags: W
LayerCount: 2
Fore
SplineSet
153 1579 m 1,0,-1
 550 1579 l 2,1,2
 631 1579 631 1579 714.5 1572 c 128,-1,3
 798 1565 798 1565 876 1546.5 c 128,-1,4
 954 1528 954 1528 1022 1495.5 c 128,-1,5
 1090 1463 1090 1463 1140.5 1411 c 128,-1,6
 1191 1359 1191 1359 1220.5 1285.5 c 128,-1,7
 1250 1212 1250 1212 1250 1112 c 0,8,9
 1250 993 1250 993 1211 904 c 128,-1,10
 1172 815 1172 815 1085 756 c 128,-1,11
 998 697 998 697 858 668 c 128,-1,12
 718 639 718 639 517 639 c 2,13,-1
 347 639 l 1,14,-1
 347 0 l 1,15,-1
 153 0 l 1,16,-1
 153 1579 l 1,0,-1
499 784 m 2,17,18
 650 784 650 784 755.5 801.5 c 128,-1,19
 861 819 861 819 926 856 c 128,-1,20
 991 893 991 893 1020.5 950.5 c 128,-1,21
 1050 1008 1050 1008 1050 1088 c 0,22,23
 1050 1208 1050 1208 1011.5 1277 c 128,-1,24
 973 1346 973 1346 905.5 1381.5 c 128,-1,25
 838 1417 838 1417 745 1426.5 c 128,-1,26
 652 1436 652 1436 544 1436 c 2,27,-1
 347 1436 l 1,28,-1
 347 784 l 1,29,-1
 499 784 l 2,17,18
EndSplineSet
EndChar

StartChar: Q
Encoding: 81 81 52
Width: 1533
GlyphClass: 2
Flags: W
LayerCount: 2
Fore
SplineSet
669 -35 m 1,0,1
 553 -22 553 -22 466 20 c 128,-1,2
 379 62 379 62 316 125 c 128,-1,3
 253 188 253 188 212 267.5 c 128,-1,4
 171 347 171 347 146.5 434.5 c 128,-1,5
 122 522 122 522 112.5 614 c 128,-1,6
 103 706 103 706 103 794 c 0,7,8
 103 898 103 898 118 998.5 c 128,-1,9
 133 1099 133 1099 165 1190 c 128,-1,10
 197 1281 197 1281 248 1358 c 128,-1,11
 299 1435 299 1435 371 1491 c 128,-1,12
 443 1547 443 1547 537.5 1578.5 c 128,-1,13
 632 1610 632 1610 751 1610 c 0,14,15
 915 1610 915 1610 1041.5 1558.5 c 128,-1,16
 1168 1507 1168 1507 1254.5 1402.5 c 128,-1,17
 1341 1298 1341 1298 1385.5 1140.5 c 128,-1,18
 1430 983 1430 983 1430 772 c 0,19,20
 1430 610 1430 610 1399 472.5 c 128,-1,21
 1368 335 1368 335 1303.5 231 c 128,-1,22
 1239 127 1239 127 1139.5 60 c 128,-1,23
 1040 -7 1040 -7 902 -29 c 1,24,-1
 1281 -293 l 1,25,-1
 1162 -424 l 1,26,-1
 669 -35 l 1,0,1
767 111 m 0,27,28
 865 111 865 111 938 141.5 c 128,-1,29
 1011 172 1011 172 1062.5 223.5 c 128,-1,30
 1114 275 1114 275 1146.5 343 c 128,-1,31
 1179 411 1179 411 1197.5 485.5 c 128,-1,32
 1216 560 1216 560 1223 636.5 c 128,-1,33
 1230 713 1230 713 1230 783 c 0,34,35
 1230 922 1230 922 1208.5 1044.5 c 128,-1,36
 1187 1167 1187 1167 1134 1259 c 128,-1,37
 1081 1351 1081 1351 991.5 1404.5 c 128,-1,38
 902 1458 902 1458 767 1458 c 0,39,40
 637 1458 637 1458 548.5 1408 c 128,-1,41
 460 1358 460 1358 405.5 1268.5 c 128,-1,42
 351 1179 351 1179 327.5 1055.5 c 128,-1,43
 304 932 304 932 304 784 c 0,44,45
 304 634 304 634 327.5 510 c 128,-1,46
 351 386 351 386 405.5 297.5 c 128,-1,47
 460 209 460 209 548.5 160 c 128,-1,48
 637 111 637 111 767 111 c 0,27,28
EndSplineSet
EndChar

StartChar: R
Encoding: 82 82 53
Width: 1377
GlyphClass: 2
Flags: W
LayerCount: 2
Fore
SplineSet
153 1579 m 1,0,-1
 619 1579 l 2,1,2
 764 1579 764 1579 880.5 1557.5 c 128,-1,3
 997 1536 997 1536 1078 1489.5 c 128,-1,4
 1159 1443 1159 1443 1202.5 1369 c 128,-1,5
 1246 1295 1246 1295 1246 1190 c 0,6,7
 1246 1090 1246 1090 1215 1016 c 128,-1,8
 1184 942 1184 942 1128.5 893.5 c 128,-1,9
 1073 845 1073 845 997.5 821 c 128,-1,10
 922 797 922 797 833 797 c 1,11,12
 943 785 943 785 1021 754 c 128,-1,13
 1099 723 1099 723 1148.5 673 c 128,-1,14
 1198 623 1198 623 1221 554 c 128,-1,15
 1244 485 1244 485 1244 397 c 2,16,-1
 1244 0 l 1,17,-1
 1050 0 l 1,18,-1
 1050 412 l 2,19,20
 1050 492 1050 492 1032 546.5 c 128,-1,21
 1014 601 1014 601 981 636.5 c 128,-1,22
 948 672 948 672 901 691.5 c 128,-1,23
 854 711 854 711 796 720.5 c 128,-1,24
 738 730 738 730 670 731.5 c 128,-1,25
 602 733 602 733 527 733 c 2,26,-1
 347 733 l 1,27,-1
 347 0 l 1,28,-1
 153 0 l 1,29,-1
 153 1579 l 1,0,-1
647 862 m 2,30,31
 760 862 760 862 836.5 887 c 128,-1,32
 913 912 913 912 959 954.5 c 128,-1,33
 1005 997 1005 997 1024.5 1053.5 c 128,-1,34
 1044 1110 1044 1110 1044 1174 c 0,35,36
 1044 1255 1044 1255 1010.5 1306 c 128,-1,37
 977 1357 977 1357 923 1386 c 128,-1,38
 869 1415 869 1415 800.5 1425.5 c 128,-1,39
 732 1436 732 1436 662 1436 c 2,40,-1
 347 1436 l 1,41,-1
 347 862 l 1,42,-1
 647 862 l 2,30,31
EndSplineSet
EndChar

StartChar: S
Encoding: 83 83 54
Width: 1264
GlyphClass: 2
Flags: W
LayerCount: 2
Fore
SplineSet
167 222 m 1,0,1
 226 191 226 191 293 166 c 0,2,3
 350 145 350 145 424 128 c 128,-1,4
 498 111 498 111 577 111 c 256,5,6
 656 111 656 111 728 123.5 c 128,-1,7
 800 136 800 136 854 169 c 128,-1,8
 908 202 908 202 940 260 c 128,-1,9
 972 318 972 318 972 409 c 0,10,11
 972 466 972 466 954.5 512 c 128,-1,12
 937 558 937 558 904 594.5 c 128,-1,13
 871 631 871 631 824.5 659 c 128,-1,14
 778 687 778 687 720 707 c 2,15,-1
 436 807 l 2,16,17
 368 831 368 831 303.5 864.5 c 128,-1,18
 239 898 239 898 189 945.5 c 128,-1,19
 139 993 139 993 108.5 1055 c 128,-1,20
 78 1117 78 1117 78 1198 c 0,21,22
 78 1309 78 1309 116 1387 c 128,-1,23
 154 1465 154 1465 222.5 1514.5 c 128,-1,24
 291 1564 291 1564 385.5 1587 c 128,-1,25
 480 1610 480 1610 594 1610 c 0,26,27
 667 1610 667 1610 734 1599.5 c 128,-1,28
 801 1589 801 1589 861.5 1571 c 128,-1,29
 922 1553 922 1553 974.5 1530.5 c 128,-1,30
 1027 1508 1027 1508 1070 1484 c 1,31,-1
 1040 1337 l 1,32,33
 1003 1359 1003 1359 955.5 1380.5 c 128,-1,34
 908 1402 908 1402 854 1419 c 128,-1,35
 800 1436 800 1436 741.5 1447 c 128,-1,36
 683 1458 683 1458 624 1458 c 0,37,38
 531 1458 531 1458 465.5 1444 c 128,-1,39
 400 1430 400 1430 358.5 1400 c 128,-1,40
 317 1370 317 1370 297.5 1323 c 128,-1,41
 278 1276 278 1276 278 1210 c 0,42,43
 278 1053 278 1053 471 986 c 2,44,-1
 784 877 l 2,45,46
 862 850 862 850 932.5 809.5 c 128,-1,47
 1003 769 1003 769 1056.5 713 c 128,-1,48
 1110 657 1110 657 1141 584 c 128,-1,49
 1172 511 1172 511 1172 418 c 0,50,51
 1172 332 1172 332 1143.5 250 c 128,-1,52
 1115 168 1115 168 1048.5 103 c 128,-1,53
 982 38 982 38 873 -1.5 c 128,-1,54
 764 -41 764 -41 604 -41 c 0,55,56
 516 -41 516 -41 434 -23.5 c 128,-1,57
 352 -6 352 -6 288 15 c 0,58,59
 213 40 213 40 147 72 c 1,60,-1
 167 222 l 1,0,1
EndSplineSet
EndChar

StartChar: T
Encoding: 84 84 55
Width: 1247
GlyphClass: 2
Flags: W
LayerCount: 2
Fore
SplineSet
524 1436 m 1,0,-1
 66 1436 l 1,1,-1
 66 1579 l 1,2,-1
 1174 1579 l 1,3,-1
 1174 1436 l 1,4,-1
 718 1436 l 1,5,-1
 718 0 l 1,6,-1
 524 0 l 1,7,-1
 524 1436 l 1,0,-1
EndSplineSet
EndChar

StartChar: U
Encoding: 85 85 56
Width: 1533
GlyphClass: 2
Flags: W
LayerCount: 2
Fore
SplineSet
1390 715 m 2,0,1
 1390 537 1390 537 1355.5 396.5 c 128,-1,2
 1321 256 1321 256 1247 159 c 128,-1,3
 1173 62 1173 62 1055 10.5 c 128,-1,4
 937 -41 937 -41 771 -41 c 0,5,6
 593 -41 593 -41 471.5 10.5 c 128,-1,7
 350 62 350 62 275 159.5 c 128,-1,8
 200 257 200 257 167 397 c 128,-1,9
 134 537 134 537 134 715 c 2,10,-1
 134 1579 l 1,11,-1
 328 1579 l 1,12,-1
 328 711 l 2,13,14
 328 550 328 550 353 436 c 128,-1,15
 378 322 378 322 430.5 250 c 128,-1,16
 483 178 483 178 565.5 144.5 c 128,-1,17
 648 111 648 111 762 111 c 0,18,19
 888 111 888 111 972 144.5 c 128,-1,20
 1056 178 1056 178 1105.5 250 c 128,-1,21
 1155 322 1155 322 1175.5 436 c 128,-1,22
 1196 550 1196 550 1196 711 c 2,23,-1
 1196 1579 l 1,24,-1
 1390 1579 l 1,25,-1
 1390 715 l 2,0,1
EndSplineSet
EndChar

StartChar: V
Encoding: 86 86 57
Width: 1360
GlyphClass: 2
Flags: W
LayerCount: 2
Fore
SplineSet
63 1579 m 1,0,-1
 247 1579 l 1,1,-1
 681 180 l 1,2,-1
 1115 1579 l 1,3,-1
 1297 1579 l 1,4,-1
 803 0 l 1,5,-1
 559 0 l 1,6,-1
 63 1579 l 1,0,-1
EndSplineSet
EndChar

StartChar: W
Encoding: 87 87 58
Width: 1961
GlyphClass: 2
Flags: W
LayerCount: 2
Fore
SplineSet
55 1579 m 1,0,-1
 241 1579 l 1,1,-1
 545 135 l 1,2,-1
 839 1579 l 1,3,-1
 1113 1579 l 1,4,-1
 1407 135 l 1,5,-1
 1711 1579 l 1,6,-1
 1898 1579 l 1,7,-1
 1552 -6 l 1,8,-1
 1235 -6 l 1,9,-1
 980 1462 l 1,10,-1
 683 0 l 1,11,-1
 401 0 l 1,12,-1
 55 1579 l 1,0,-1
EndSplineSet
EndChar

StartChar: X
Encoding: 88 88 59
Width: 1322
GlyphClass: 2
Flags: W
LayerCount: 2
Fore
SplineSet
552 780 m 1,0,-1
 57 1579 l 1,1,-1
 253 1579 l 1,2,-1
 661 923 l 1,3,-1
 1069 1579 l 1,4,-1
 1265 1579 l 1,5,-1
 770 780 l 1,6,-1
 1267 0 l 1,7,-1
 1049 0 l 1,8,-1
 661 626 l 1,9,-1
 273 0 l 1,10,-1
 55 0 l 1,11,-1
 552 780 l 1,0,-1
EndSplineSet
EndChar

StartChar: Y
Encoding: 89 89 60
Width: 1318
GlyphClass: 2
Flags: W
LayerCount: 2
Fore
SplineSet
562 485 m 1,0,-1
 48 1579 l 1,1,-1
 245 1579 l 1,2,-1
 662 677 l 1,3,-1
 1075 1579 l 1,4,-1
 1266 1579 l 1,5,-1
 752 485 l 1,6,-1
 752 0 l 1,7,-1
 562 0 l 1,8,-1
 562 485 l 1,0,-1
EndSplineSet
EndChar

StartChar: Z
Encoding: 90 90 61
Width: 1244
GlyphClass: 2
Flags: W
LayerCount: 2
Fore
SplineSet
112 180 m 1,0,-1
 941 1436 l 1,1,-1
 112 1436 l 1,2,-1
 112 1579 l 1,3,-1
 1142 1579 l 1,4,-1
 1142 1419 l 1,5,-1
 309 143 l 1,6,-1
 1144 143 l 1,7,-1
 1144 0 l 1,8,-1
 112 0 l 1,9,-1
 112 180 l 1,0,-1
EndSplineSet
EndChar

StartChar: bracketleft
Encoding: 91 91 62
Width: 1054
GlyphClass: 2
Flags: W
LayerCount: 2
Fore
SplineSet
269 1579 m 1,0,-1
 933 1579 l 1,1,-1
 933 1436 l 1,2,-1
 462 1436 l 1,3,-1
 462 143 l 1,4,-1
 933 143 l 1,5,-1
 933 0 l 1,6,-1
 269 0 l 1,7,-1
 269 1579 l 1,0,-1
EndSplineSet
EndChar

StartChar: backslash
Encoding: 92 92 63
Width: 1031
GlyphClass: 2
Flags: W
LayerCount: 2
Fore
SplineSet
117 1679 m 1,0,-1
 275 1731 l 1,1,-1
 898 -114 l 1,2,-1
 738 -172 l 1,3,-1
 117 1679 l 1,0,-1
EndSplineSet
EndChar

StartChar: bracketright
Encoding: 93 93 64
Width: 1114
GlyphClass: 2
Flags: W
LayerCount: 2
Fore
SplineSet
161 143 m 1,0,-1
 632 143 l 1,1,-1
 632 1436 l 1,2,-1
 161 1436 l 1,3,-1
 161 1579 l 1,4,-1
 825 1579 l 1,5,-1
 825 0 l 1,6,-1
 161 0 l 1,7,-1
 161 143 l 1,0,-1
EndSplineSet
EndChar

StartChar: asciicircum
Encoding: 94 94 65
Width: 1428
GlyphClass: 2
Flags: W
LayerCount: 2
Fore
SplineSet
666 1011 m 1,0,-1
 762 1011 l 1,1,-1
 1054 510 l 1,2,-1
 926 432 l 1,3,-1
 714 809 l 1,4,-1
 502 432 l 1,5,-1
 374 510 l 1,6,-1
 666 1011 l 1,0,-1
EndSplineSet
EndChar

StartChar: underscore
Encoding: 95 95 66
Width: 1265
GlyphClass: 2
Flags: W
LayerCount: 2
Fore
SplineSet
1067 33 m 1,0,-1
 1067 -111 l 1,1,-1
 127 -111 l 1,2,-1
 127 33 l 1,3,-1
 1067 33 l 1,0,-1
EndSplineSet
EndChar

StartChar: grave
Encoding: 96 96 67
Width: 512
GlyphClass: 2
Flags: W
LayerCount: 2
Fore
SplineSet
372 1545 m 1,0,1
 334 1532 334 1532 309 1517.5 c 128,-1,2
 284 1503 284 1503 269 1484.5 c 128,-1,3
 254 1466 254 1466 248 1442 c 128,-1,4
 242 1418 242 1418 242 1386 c 1,5,-1
 373 1386 l 1,6,-1
 373 1093 l 1,7,-1
 112 1093 l 1,8,-1
 112 1342 l 2,9,10
 112 1457 112 1457 170.5 1532 c 128,-1,11
 229 1607 229 1607 341 1639 c 1,12,-1
 372 1545 l 1,0,1
EndSplineSet
EndChar

StartChar: a
Encoding: 97 97 68
Width: 1200
GlyphClass: 2
Flags: W
LayerCount: 2
Fore
SplineSet
898 178 m 1,0,1
 757 -20 757 -20 493 -20 c 0,2,3
 408 -20 408 -20 336 1 c 128,-1,4
 264 22 264 22 212 66 c 128,-1,5
 160 110 160 110 130.5 179 c 128,-1,6
 101 248 101 248 101 343 c 0,7,8
 101 428 101 428 132.5 497 c 128,-1,9
 164 566 164 566 219.5 614.5 c 128,-1,10
 275 663 275 663 349 689 c 128,-1,11
 423 715 423 715 509 715 c 0,12,13
 591 715 591 715 658 707 c 128,-1,14
 725 699 725 699 774 690 c 0,15,16
 830 679 830 679 876 665 c 1,17,-1
 876 717 l 2,18,19
 876 805 876 805 869.5 868.5 c 128,-1,20
 863 932 863 932 836.5 973 c 128,-1,21
 810 1014 810 1014 757 1033.5 c 128,-1,22
 704 1053 704 1053 610 1053 c 0,23,24
 566 1053 566 1053 516.5 1045 c 128,-1,25
 467 1037 467 1037 417.5 1021 c 128,-1,26
 368 1005 368 1005 322.5 982.5 c 128,-1,27
 277 960 277 960 241 932 c 1,28,-1
 173 1064 l 1,29,30
 230 1095 230 1095 279 1118.5 c 128,-1,31
 328 1142 328 1142 378.5 1158 c 128,-1,32
 429 1174 429 1174 484.5 1182 c 128,-1,33
 540 1190 540 1190 610 1190 c 0,34,35
 744 1190 744 1190 832 1163.5 c 128,-1,36
 920 1137 920 1137 972 1077.5 c 128,-1,37
 1024 1018 1024 1018 1045 921.5 c 128,-1,38
 1066 825 1066 825 1066 686 c 2,39,-1
 1066 0 l 1,40,-1
 926 0 l 1,41,-1
 898 178 l 1,0,1
876 569 m 1,42,43
 836 575 836 575 796 579 c 0,44,45
 761 583 761 583 720 586.5 c 128,-1,46
 679 590 679 590 644 590 c 0,47,48
 601 590 601 590 558 587.5 c 128,-1,49
 515 585 515 585 476 577 c 128,-1,50
 437 569 437 569 403.5 554 c 128,-1,51
 370 539 370 539 345 512.5 c 128,-1,52
 320 486 320 486 306 447 c 128,-1,53
 292 408 292 408 292 353 c 0,54,55
 292 282 292 282 310 236.5 c 128,-1,56
 328 191 328 191 361 164.5 c 128,-1,57
 394 138 394 138 439.5 127.5 c 128,-1,58
 485 117 485 117 540 117 c 0,59,60
 713 117 713 117 876 271 c 1,61,-1
 876 569 l 1,42,43
EndSplineSet
EndChar

StartChar: b
Encoding: 98 98 69
Width: 1254
GlyphClass: 2
Flags: W
LayerCount: 2
Fore
SplineSet
144 1579 m 1,0,-1
 334 1614 l 1,1,-1
 334 1030 l 1,2,3
 373 1070 373 1070 418 1100 c 128,-1,4
 463 1130 463 1130 507.5 1150 c 128,-1,5
 552 1170 552 1170 592.5 1180 c 128,-1,6
 633 1190 633 1190 663 1190 c 0,7,8
 781 1190 781 1190 872 1155.5 c 128,-1,9
 963 1121 963 1121 1025.5 1050 c 128,-1,10
 1088 979 1088 979 1120.5 870 c 128,-1,11
 1153 761 1153 761 1153 613 c 0,12,13
 1153 487 1153 487 1135 391.5 c 128,-1,14
 1117 296 1117 296 1085 225.5 c 128,-1,15
 1053 155 1053 155 1008.5 108 c 128,-1,16
 964 61 964 61 911 32.5 c 128,-1,17
 858 4 858 4 799 -8 c 128,-1,18
 740 -20 740 -20 678 -20 c 0,19,20
 628 -20 628 -20 578.5 -6 c 128,-1,21
 529 8 529 8 482 34 c 128,-1,22
 435 60 435 60 392 96.5 c 128,-1,23
 349 133 349 133 312 178 c 1,24,-1
 284 0 l 1,25,-1
 144 0 l 1,26,-1
 144 1579 l 1,0,-1
334 273 m 1,27,28
 502 117 502 117 689 117 c 0,29,30
 829 117 829 117 903 237.5 c 128,-1,31
 977 358 977 358 977 613 c 0,32,33
 977 730 977 730 957 813.5 c 128,-1,34
 937 897 937 897 899.5 950 c 128,-1,35
 862 1003 862 1003 808.5 1028 c 128,-1,36
 755 1053 755 1053 689 1053 c 0,37,38
 517 1053 517 1053 334 902 c 1,39,-1
 334 273 l 1,27,28
EndSplineSet
EndChar

StartChar: c
Encoding: 99 99 70
Width: 1071
GlyphClass: 2
Flags: W
LayerCount: 2
Fore
SplineSet
1000 111 m 1,0,1
 968 88 968 88 928.5 65 c 128,-1,2
 889 42 889 42 840.5 23 c 128,-1,3
 792 4 792 4 734 -8 c 128,-1,4
 676 -20 676 -20 609 -20 c 0,5,6
 511 -20 511 -20 419.5 13 c 128,-1,7
 328 46 328 46 257 118 c 128,-1,8
 186 190 186 190 143.5 304 c 128,-1,9
 101 418 101 418 101 580 c 0,10,11
 101 703 101 703 134.5 813.5 c 128,-1,12
 168 924 168 924 232.5 1007.5 c 128,-1,13
 297 1091 297 1091 392.5 1140.5 c 128,-1,14
 488 1190 488 1190 612 1190 c 0,15,16
 730 1190 730 1190 826 1156 c 128,-1,17
 922 1122 922 1122 1000 1068 c 1,18,-1
 943 935 l 1,19,20
 919 959 919 959 883 980.5 c 128,-1,21
 847 1002 847 1002 806 1018 c 128,-1,22
 765 1034 765 1034 721.5 1043.5 c 128,-1,23
 678 1053 678 1053 638 1053 c 1,24,25
 526 1044 526 1044 458 1005.5 c 128,-1,26
 390 967 390 967 353 904 c 128,-1,27
 316 841 316 841 303.5 756.5 c 128,-1,28
 291 672 291 672 291 572 c 0,29,30
 291 458 291 458 313.5 373 c 128,-1,31
 336 288 336 288 377.5 231 c 128,-1,32
 419 174 419 174 478 145.5 c 128,-1,33
 537 117 537 117 609 117 c 0,34,35
 669 117 669 117 714.5 125 c 128,-1,36
 760 133 760 133 798.5 149 c 128,-1,37
 837 165 837 165 871.5 189 c 128,-1,38
 906 213 906 213 943 245 c 1,39,-1
 1000 111 l 1,0,1
EndSplineSet
EndChar

StartChar: d
Encoding: 100 100 71
Width: 1259
GlyphClass: 2
Flags: W
LayerCount: 2
Fore
SplineSet
949 179 m 1,0,1
 917 138 917 138 876 101.5 c 128,-1,2
 835 65 835 65 787.5 38 c 128,-1,3
 740 11 740 11 687 -4.5 c 128,-1,4
 634 -20 634 -20 577 -20 c 0,5,6
 467 -20 467 -20 379 20.5 c 128,-1,7
 291 61 291 61 229 140.5 c 128,-1,8
 167 220 167 220 134 337 c 128,-1,9
 101 454 101 454 101 608 c 0,10,11
 101 726 101 726 132.5 832 c 128,-1,12
 164 938 164 938 222.5 1017.5 c 128,-1,13
 281 1097 281 1097 364 1143.5 c 128,-1,14
 447 1190 447 1190 549 1190 c 0,15,16
 664 1190 664 1190 760 1151.5 c 128,-1,17
 856 1113 856 1113 928 1028 c 1,18,-1
 928 1579 l 1,19,-1
 1118 1614 l 1,20,-1
 1118 0 l 1,21,-1
 977 0 l 1,22,-1
 949 179 l 1,0,1
928 903 m 1,23,24
 886 934 886 934 844 961.5 c 128,-1,25
 802 989 802 989 758.5 1009.5 c 128,-1,26
 715 1030 715 1030 669.5 1041.5 c 128,-1,27
 624 1053 624 1053 575 1053 c 0,28,29
 491 1053 491 1053 435 1016.5 c 128,-1,30
 379 980 379 980 345 917 c 128,-1,31
 311 854 311 854 297 768.5 c 128,-1,32
 283 683 283 683 283 584 c 0,33,34
 283 450 283 450 305.5 360.5 c 128,-1,35
 328 271 328 271 368 217 c 128,-1,36
 408 163 408 163 462.5 140 c 128,-1,37
 517 117 517 117 581 117 c 0,38,39
 623 117 623 117 668.5 127 c 128,-1,40
 714 137 714 137 759.5 156.5 c 128,-1,41
 805 176 805 176 848 205.5 c 128,-1,42
 891 235 891 235 928 275 c 1,43,-1
 928 903 l 1,23,24
EndSplineSet
EndChar

StartChar: e
Encoding: 101 101 72
Width: 1144
GlyphClass: 2
Flags: W
LayerCount: 2
Fore
SplineSet
1005 101 m 1,0,1
 965 72 965 72 914 49.5 c 128,-1,2
 863 27 863 27 810.5 11.5 c 128,-1,3
 758 -4 758 -4 709 -12 c 128,-1,4
 660 -20 660 -20 625 -20 c 0,5,6
 497 -20 497 -20 399.5 22 c 128,-1,7
 302 64 302 64 235.5 142 c 128,-1,8
 169 220 169 220 135 330.5 c 128,-1,9
 101 441 101 441 101 578 c 0,10,11
 101 692 101 692 131 801.5 c 128,-1,12
 161 911 161 911 222 997.5 c 128,-1,13
 283 1084 283 1084 375.5 1137 c 128,-1,14
 468 1190 468 1190 594 1190 c 0,15,16
 704 1190 704 1190 790.5 1157 c 128,-1,17
 877 1124 877 1124 936.5 1060 c 128,-1,18
 996 996 996 996 1027.5 901.5 c 128,-1,19
 1059 807 1059 807 1059 684 c 0,20,21
 1059 652 1059 652 1057 622.5 c 128,-1,22
 1055 593 1055 593 1051 567 c 1,23,-1
 291 567 l 1,24,25
 291 441 291 441 315 355 c 128,-1,26
 339 269 339 269 384.5 216 c 128,-1,27
 430 163 430 163 495 140 c 128,-1,28
 560 117 560 117 641 117 c 0,29,30
 688 117 688 117 728 124 c 128,-1,31
 768 131 768 131 804 145.5 c 128,-1,32
 840 160 840 160 873.5 182 c 128,-1,33
 907 204 907 204 943 234 c 1,34,-1
 1005 101 l 1,0,1
891 682 m 1,35,-1
 891 717 l 2,36,37
 891 798 891 798 871 860.5 c 128,-1,38
 851 923 851 923 815 965.5 c 128,-1,39
 779 1008 779 1008 729.5 1030.5 c 128,-1,40
 680 1053 680 1053 621 1053 c 0,41,42
 547 1053 547 1053 488.5 1026 c 128,-1,43
 430 999 430 999 388 950 c 128,-1,44
 346 901 346 901 321.5 832.5 c 128,-1,45
 297 764 297 764 291 682 c 1,46,-1
 891 682 l 1,35,-1
EndSplineSet
EndChar

StartChar: f
Encoding: 102 102 73
Width: 837
GlyphClass: 2
Flags: W
LayerCount: 2
Fore
SplineSet
233 1064 m 1,0,-1
 38 1064 l 1,1,-1
 38 1169 l 1,2,-1
 233 1169 l 1,3,-1
 233 1198 l 2,4,5
 233 1324 233 1324 253 1411.5 c 128,-1,6
 273 1499 273 1499 313 1554 c 128,-1,7
 353 1609 353 1609 411.5 1634 c 128,-1,8
 470 1659 470 1659 548 1659 c 0,9,10
 617 1659 617 1659 684 1638 c 128,-1,11
 751 1617 751 1617 814 1579 c 1,12,-1
 751 1454 l 1,13,14
 710 1477 710 1477 665 1496.5 c 128,-1,15
 620 1516 620 1516 571 1516 c 0,16,17
 536 1516 536 1516 508.5 1506.5 c 128,-1,18
 481 1497 481 1497 462 1474 c 128,-1,19
 443 1451 443 1451 433 1412.5 c 128,-1,20
 423 1374 423 1374 423 1316 c 2,21,-1
 423 1169 l 1,22,-1
 771 1169 l 1,23,-1
 771 1064 l 1,24,-1
 423 1064 l 1,25,-1
 423 0 l 1,26,-1
 233 0 l 1,27,-1
 233 1064 l 1,0,-1
EndSplineSet
EndChar

StartChar: g
Encoding: 103 103 74
Width: 1257
GlyphClass: 2
Flags: W
LayerCount: 2
Fore
SplineSet
562 -427 m 2,0,1
 465 -427 465 -427 386.5 -407.5 c 128,-1,2
 308 -388 308 -388 252 -347 c 128,-1,3
 196 -306 196 -306 165.5 -243.5 c 128,-1,4
 135 -181 135 -181 135 -95 c 0,5,6
 135 -60 135 -60 143 -32 c 128,-1,7
 151 -4 151 -4 164.5 19 c 128,-1,8
 178 42 178 42 195.5 60 c 128,-1,9
 213 78 213 78 231 92 c 0,10,11
 275 125 275 125 328 142 c 1,12,13
 294 149 294 149 267 166 c 0,14,15
 244 180 244 180 222.5 202.5 c 128,-1,16
 201 225 201 225 196 260 c 2,17,-1
 179 396 l 2,18,19
 178 401 178 401 178 411 c 0,20,21
 178 446 178 446 198 469 c 128,-1,22
 218 492 218 492 248 506 c 128,-1,23
 278 520 278 520 313 528 c 128,-1,24
 348 536 348 536 378 542 c 1,25,26
 342 554 342 554 306.5 581 c 128,-1,27
 271 608 271 608 243.5 648 c 128,-1,28
 216 688 216 688 198.5 740 c 128,-1,29
 181 792 181 792 181 854 c 0,30,31
 181 933 181 933 210.5 995.5 c 128,-1,32
 240 1058 240 1058 295.5 1101.5 c 128,-1,33
 351 1145 351 1145 431 1167.5 c 128,-1,34
 511 1190 511 1190 612 1190 c 0,35,36
 693 1190 693 1190 762 1173 c 128,-1,37
 831 1156 831 1156 882 1114 c 1,38,39
 920 1133 920 1133 945 1144.5 c 128,-1,40
 970 1156 970 1156 997 1162.5 c 128,-1,41
 1024 1169 1024 1169 1060.5 1171 c 128,-1,42
 1097 1173 1097 1173 1157 1173 c 2,43,-1
 1187 1173 l 1,44,-1
 1187 1025 l 1,45,-1
 949 1025 l 1,46,47
 987 987 987 987 1008.5 949 c 128,-1,48
 1030 911 1030 911 1030 860 c 0,49,50
 1030 779 1030 779 1010 714.5 c 128,-1,51
 990 650 990 650 946.5 602 c 128,-1,52
 903 554 903 554 835.5 521.5 c 128,-1,53
 768 489 768 489 673 472 c 2,54,-1
 323 408 l 1,55,-1
 342 260 l 1,56,-1
 674 260 l 2,57,58
 755 260 755 260 816 254 c 128,-1,59
 877 248 877 248 923.5 236 c 128,-1,60
 970 224 970 224 1004.5 206.5 c 128,-1,61
 1039 189 1039 189 1066 166 c 0,62,63
 1085 149 1085 149 1104 127 c 128,-1,64
 1123 105 1123 105 1137 76 c 128,-1,65
 1151 47 1151 47 1160 11 c 128,-1,66
 1169 -25 1169 -25 1169 -70 c 0,67,68
 1169 -149 1169 -149 1142 -205.5 c 128,-1,69
 1115 -262 1115 -262 1076 -300 c 0,70,71
 1050 -326 1050 -326 1010.5 -351 c 128,-1,72
 971 -376 971 -376 913 -393 c 256,73,74
 855 -410 855 -410 792.5 -418.5 c 128,-1,75
 730 -427 730 -427 645 -427 c 2,76,-1
 562 -427 l 2,0,1
657 594 m 2,77,78
 716 603 716 603 756 625 c 128,-1,79
 796 647 796 647 820 681 c 128,-1,80
 844 715 844 715 854.5 759.5 c 128,-1,81
 865 804 865 804 865 860 c 256,82,83
 865 916 865 916 849.5 954 c 128,-1,84
 834 992 834 992 802.5 1015 c 128,-1,85
 771 1038 771 1038 722.5 1048 c 128,-1,86
 674 1058 674 1058 608 1058 c 0,87,88
 553 1058 553 1058 504.5 1048.5 c 128,-1,89
 456 1039 456 1039 420 1015 c 128,-1,90
 384 991 384 991 363 949.5 c 128,-1,91
 342 908 342 908 342 845 c 0,92,93
 342 797 342 797 357.5 754 c 128,-1,94
 373 711 373 711 397.5 675.5 c 128,-1,95
 422 640 422 640 453 613 c 128,-1,96
 484 586 484 586 515 571 c 1,97,-1
 657 594 l 2,77,78
410 127 m 1,98,99
 389 111 389 111 368.5 91.5 c 128,-1,100
 348 72 348 72 331 48.5 c 128,-1,101
 314 25 314 25 303.5 -3 c 128,-1,102
 293 -31 293 -31 293 -64 c 0,103,104
 293 -124 293 -124 307 -164.5 c 128,-1,105
 321 -205 321 -205 354 -230 c 128,-1,106
 387 -255 387 -255 440.5 -266 c 128,-1,107
 494 -277 494 -277 573 -277 c 2,108,-1
 662 -277 l 2,109,110
 767 -277 767 -277 834 -263.5 c 128,-1,111
 901 -250 901 -250 939.5 -223.5 c 128,-1,112
 978 -197 978 -197 992.5 -157.5 c 128,-1,113
 1007 -118 1007 -118 1007 -66 c 0,114,115
 1007 -9 1007 -9 987.5 26 c 128,-1,116
 968 61 968 61 936 81 c 0,117,118
 905 100 905 100 852.5 113 c 128,-1,119
 800 126 800 126 712 126 c 2,120,-1
 410 127 l 1,98,99
EndSplineSet
EndChar

StartChar: h
Encoding: 104 104 75
Width: 1270
GlyphClass: 2
Flags: W
LayerCount: 2
Fore
SplineSet
144 1579 m 1,0,-1
 334 1616 l 1,1,-1
 334 989 l 1,2,3
 391 1050 391 1050 439 1089 c 128,-1,4
 487 1128 487 1128 532.5 1150.5 c 128,-1,5
 578 1173 578 1173 624.5 1181.5 c 128,-1,6
 671 1190 671 1190 726 1190 c 0,7,8
 822 1190 822 1190 897.5 1162.5 c 128,-1,9
 973 1135 973 1135 1024.5 1078.5 c 128,-1,10
 1076 1022 1076 1022 1103.5 934.5 c 128,-1,11
 1131 847 1131 847 1131 727 c 2,12,-1
 1131 0 l 1,13,-1
 941 0 l 1,14,-1
 941 727 l 2,15,16
 941 896 941 896 884.5 974.5 c 128,-1,17
 828 1053 828 1053 710 1053 c 0,18,19
 645 1053 645 1053 585.5 1035 c 128,-1,20
 526 1017 526 1017 476.5 991.5 c 128,-1,21
 427 966 427 966 390 937.5 c 128,-1,22
 353 909 353 909 334 888 c 1,23,-1
 334 0 l 1,24,-1
 144 0 l 1,25,-1
 144 1579 l 1,0,-1
EndSplineSet
EndChar

StartChar: i
Encoding: 105 105 76
Width: 540
GlyphClass: 2
Flags: W
LayerCount: 2
Fore
SplineSet
270 1347 m 256,0,1
 246 1347 246 1347 225.5 1356.5 c 128,-1,2
 205 1366 205 1366 190.5 1381.5 c 128,-1,3
 176 1397 176 1397 168 1418 c 128,-1,4
 160 1439 160 1439 160 1462 c 256,5,6
 160 1485 160 1485 168 1506 c 128,-1,7
 176 1527 176 1527 191 1542.5 c 128,-1,8
 206 1558 206 1558 226 1567.5 c 128,-1,9
 246 1577 246 1577 270 1577 c 256,10,11
 294 1577 294 1577 314 1567.5 c 128,-1,12
 334 1558 334 1558 349 1542.5 c 128,-1,13
 364 1527 364 1527 372 1506 c 128,-1,14
 380 1485 380 1485 380 1462 c 256,15,16
 380 1439 380 1439 372 1418 c 128,-1,17
 364 1397 364 1397 349.5 1381.5 c 128,-1,18
 335 1366 335 1366 314.5 1356.5 c 128,-1,19
 294 1347 294 1347 270 1347 c 256,0,1
177 1169 m 1,20,-1
 359 1169 l 1,21,-1
 359 0 l 1,22,-1
 177 0 l 1,23,-1
 177 1169 l 1,20,-1
EndSplineSet
EndChar

StartChar: j
Encoding: 106 106 77
Width: 546
GlyphClass: 2
Flags: W
LayerCount: 2
Fore
SplineSet
302 1347 m 256,0,1
 278 1347 278 1347 257.5 1356.5 c 128,-1,2
 237 1366 237 1366 222.5 1381.5 c 128,-1,3
 208 1397 208 1397 200 1418 c 128,-1,4
 192 1439 192 1439 192 1462 c 256,5,6
 192 1485 192 1485 200 1506 c 128,-1,7
 208 1527 208 1527 223 1542.5 c 128,-1,8
 238 1558 238 1558 258 1567.5 c 128,-1,9
 278 1577 278 1577 302 1577 c 256,10,11
 326 1577 326 1577 346 1567.5 c 128,-1,12
 366 1558 366 1558 381 1542.5 c 128,-1,13
 396 1527 396 1527 404 1506 c 128,-1,14
 412 1485 412 1485 412 1462 c 256,15,16
 412 1439 412 1439 404 1418 c 128,-1,17
 396 1397 396 1397 381.5 1381.5 c 128,-1,18
 367 1366 367 1366 346.5 1356.5 c 128,-1,19
 326 1347 326 1347 302 1347 c 256,0,1
19 -258 m 1,20,21
 80 -219 80 -219 117 -177 c 128,-1,22
 154 -135 154 -135 174 -83.5 c 128,-1,23
 194 -32 194 -32 200.5 31.5 c 128,-1,24
 207 95 207 95 207 176 c 2,25,-1
 207 1169 l 1,26,-1
 397 1169 l 1,27,-1
 397 154 l 2,28,29
 397 50 397 50 374.5 -38 c 128,-1,30
 352 -126 352 -126 309 -194.5 c 128,-1,31
 266 -263 266 -263 205 -308.5 c 128,-1,32
 144 -354 144 -354 66 -373 c 1,33,-1
 19 -258 l 1,20,21
EndSplineSet
EndChar

StartChar: k
Encoding: 107 107 78
Width: 1225
GlyphClass: 2
Flags: W
LayerCount: 2
Fore
SplineSet
144 1579 m 1,0,-1
 334 1614 l 1,1,-1
 334 627 l 1,2,-1
 893 1169 l 1,3,-1
 1118 1169 l 1,4,-1
 565 648 l 1,5,-1
 1151 0 l 1,6,-1
 930 0 l 1,7,-1
 450 555 l 1,8,-1
 334 459 l 1,9,-1
 334 0 l 1,10,-1
 144 0 l 1,11,-1
 144 1579 l 1,0,-1
EndSplineSet
EndChar

StartChar: l
Encoding: 108 108 79
Width: 508
GlyphClass: 2
Flags: W
LayerCount: 2
Fore
SplineSet
158 1579 m 1,0,-1
 348 1614 l 1,1,-1
 348 0 l 1,2,-1
 158 0 l 1,3,-1
 158 1579 l 1,0,-1
EndSplineSet
EndChar

StartChar: m
Encoding: 109 109 80
Width: 1941
GlyphClass: 2
Flags: W
LayerCount: 2
Fore
SplineSet
144 1169 m 1,0,-1
 285 1169 l 1,1,-1
 312 963 l 1,2,3
 344 1015 344 1015 385.5 1057 c 128,-1,4
 427 1099 427 1099 477.5 1128.5 c 128,-1,5
 528 1158 528 1158 585.5 1174 c 128,-1,6
 643 1190 643 1190 707 1190 c 0,7,8
 773 1190 773 1190 825 1172.5 c 128,-1,9
 877 1155 877 1155 916.5 1125 c 128,-1,10
 956 1095 956 1095 983 1054 c 128,-1,11
 1010 1013 1010 1013 1026 967 c 1,12,13
 1060 1016 1060 1016 1107 1057.5 c 128,-1,14
 1154 1099 1154 1099 1209 1128 c 128,-1,15
 1264 1157 1264 1157 1324.5 1173.5 c 128,-1,16
 1385 1190 1385 1190 1446 1190 c 0,17,18
 1532 1190 1532 1190 1598.5 1159.5 c 128,-1,19
 1665 1129 1665 1129 1710 1073.5 c 128,-1,20
 1755 1018 1755 1018 1778.5 939.5 c 128,-1,21
 1802 861 1802 861 1802 766 c 2,22,-1
 1802 0 l 1,23,-1
 1612 0 l 1,24,-1
 1612 768 l 2,25,26
 1612 859 1612 859 1596.5 915 c 128,-1,27
 1581 971 1581 971 1554.5 1001.5 c 128,-1,28
 1528 1032 1528 1032 1493 1042.5 c 128,-1,29
 1458 1053 1458 1053 1418 1053 c 0,30,31
 1243 1053 1243 1053 1056 858 c 1,32,-1
 1056 0 l 1,33,-1
 866 0 l 1,34,-1
 866 768 l 2,35,36
 866 838 866 838 857 891.5 c 128,-1,37
 848 945 848 945 825.5 981 c 128,-1,38
 803 1017 803 1017 766 1035 c 128,-1,39
 729 1053 729 1053 674 1053 c 0,40,41
 599 1053 599 1053 515 1005 c 128,-1,42
 431 957 431 957 334 860 c 1,43,-1
 334 0 l 1,44,-1
 144 0 l 1,45,-1
 144 1169 l 1,0,-1
EndSplineSet
EndChar

StartChar: n
Encoding: 110 110 81
Width: 1267
GlyphClass: 2
Flags: W
LayerCount: 2
Fore
SplineSet
144 1169 m 1,0,-1
 284 1169 l 1,1,-1
 308 982 l 1,2,3
 338 1019 338 1019 388 1056 c 128,-1,4
 438 1093 438 1093 497.5 1123 c 128,-1,5
 557 1153 557 1153 621.5 1171.5 c 128,-1,6
 686 1190 686 1190 745 1190 c 0,7,8
 850 1190 850 1190 922.5 1158.5 c 128,-1,9
 995 1127 995 1127 1041 1067.5 c 128,-1,10
 1087 1008 1087 1008 1107.5 922 c 128,-1,11
 1128 836 1128 836 1128 727 c 2,12,-1
 1128 0 l 1,13,-1
 938 0 l 1,14,-1
 938 727 l 2,15,16
 938 803 938 803 926 863.5 c 128,-1,17
 914 924 914 924 887 966 c 128,-1,18
 860 1008 860 1008 816.5 1030.5 c 128,-1,19
 773 1053 773 1053 711 1053 c 0,20,21
 663 1053 663 1053 606 1034 c 128,-1,22
 549 1015 549 1015 496 988 c 128,-1,23
 443 961 443 961 399 931 c 128,-1,24
 355 901 355 901 334 880 c 1,25,-1
 334 0 l 1,26,-1
 144 0 l 1,27,-1
 144 1169 l 1,0,-1
EndSplineSet
EndChar

StartChar: o
Encoding: 111 111 82
Width: 1264
GlyphClass: 2
Flags: W
LayerCount: 2
Fore
SplineSet
101 568 m 256,0,1
 101 634 101 634 110 704.5 c 128,-1,2
 119 775 119 775 142 842.5 c 128,-1,3
 165 910 165 910 203.5 970.5 c 128,-1,4
 242 1031 242 1031 301 1076.5 c 128,-1,5
 360 1122 360 1122 441.5 1149 c 128,-1,6
 523 1176 523 1176 632 1176 c 256,7,8
 741 1176 741 1176 822.5 1149 c 128,-1,9
 904 1122 904 1122 963 1076.5 c 128,-1,10
 1022 1031 1022 1031 1060.5 970.5 c 128,-1,11
 1099 910 1099 910 1122 842.5 c 128,-1,12
 1145 775 1145 775 1154 704.5 c 128,-1,13
 1163 634 1163 634 1163 568 c 256,14,15
 1163 502 1163 502 1154 431.5 c 128,-1,16
 1145 361 1145 361 1122 293.5 c 128,-1,17
 1099 226 1099 226 1060.5 165.5 c 128,-1,18
 1022 105 1022 105 963 59.5 c 128,-1,19
 904 14 904 14 822.5 -13 c 128,-1,20
 741 -40 741 -40 632 -40 c 256,21,22
 523 -40 523 -40 441.5 -13 c 128,-1,23
 360 14 360 14 301 59.5 c 128,-1,24
 242 105 242 105 203.5 165.5 c 128,-1,25
 165 226 165 226 142 293.5 c 128,-1,26
 119 361 119 361 110 431.5 c 128,-1,27
 101 502 101 502 101 568 c 256,0,1
284 568 m 256,28,29
 284 513 284 513 290.5 456.5 c 128,-1,30
 297 400 297 400 313 348 c 128,-1,31
 329 296 329 296 354.5 250 c 128,-1,32
 380 204 380 204 419 170 c 128,-1,33
 458 136 458 136 510.5 116.5 c 128,-1,34
 563 97 563 97 632 97 c 0,35,36
 735 97 735 97 802.5 139.5 c 128,-1,37
 870 182 870 182 909.5 250 c 128,-1,38
 949 318 949 318 964.5 401.5 c 128,-1,39
 980 485 980 485 980 568 c 0,40,41
 980 623 980 623 973.5 679.5 c 128,-1,42
 967 736 967 736 951 788 c 128,-1,43
 935 840 935 840 909.5 886 c 128,-1,44
 884 932 884 932 845 966 c 128,-1,45
 806 1000 806 1000 753.5 1019.5 c 128,-1,46
 701 1039 701 1039 632 1039 c 256,47,48
 563 1039 563 1039 510.5 1019.5 c 128,-1,49
 458 1000 458 1000 419 966 c 128,-1,50
 380 932 380 932 354.5 886 c 128,-1,51
 329 840 329 840 313 788 c 128,-1,52
 297 736 297 736 290.5 679.5 c 128,-1,53
 284 623 284 623 284 568 c 256,28,29
EndSplineSet
EndChar

StartChar: p
Encoding: 112 112 83
Width: 1263
GlyphClass: 2
Flags: W
LayerCount: 2
Fore
SplineSet
334 -465 m 1,0,-1
 144 -487 l 1,1,-1
 144 1169 l 1,2,-1
 285 1169 l 1,3,-1
 318 971 l 1,4,5
 352 1016 352 1016 394 1056 c 128,-1,6
 436 1096 436 1096 483 1125.5 c 128,-1,7
 530 1155 530 1155 580 1172.5 c 128,-1,8
 630 1190 630 1190 681 1190 c 0,9,10
 786 1190 786 1190 874.5 1157.5 c 128,-1,11
 963 1125 963 1125 1026.5 1053 c 128,-1,12
 1090 981 1090 981 1126 866 c 128,-1,13
 1162 751 1162 751 1162 587 c 0,14,15
 1162 516 1162 516 1150.5 443.5 c 128,-1,16
 1139 371 1139 371 1115 303.5 c 128,-1,17
 1091 236 1091 236 1053 177 c 128,-1,18
 1015 118 1015 118 962 74.5 c 128,-1,19
 909 31 909 31 840.5 5.5 c 128,-1,20
 772 -20 772 -20 686 -20 c 0,21,22
 635 -20 635 -20 585 -5.5 c 128,-1,23
 535 9 535 9 489.5 34 c 128,-1,24
 444 59 444 59 404 92.5 c 128,-1,25
 364 126 364 126 334 164 c 1,26,-1
 334 -465 l 1,0,-1
334 285 m 1,27,28
 362 251 362 251 402.5 220.5 c 128,-1,29
 443 190 443 190 489.5 167 c 128,-1,30
 536 144 536 144 585 130.5 c 128,-1,31
 634 117 634 117 679 117 c 0,32,33
 766 117 766 117 824 153.5 c 128,-1,34
 882 190 882 190 916.5 251.5 c 128,-1,35
 951 313 951 313 965.5 393.5 c 128,-1,36
 980 474 980 474 980 561 c 0,37,38
 980 691 980 691 958.5 784 c 128,-1,39
 937 877 937 877 899.5 937 c 128,-1,40
 862 997 862 997 810.5 1025 c 128,-1,41
 759 1053 759 1053 699 1053 c 0,42,43
 652 1053 652 1053 601.5 1040.5 c 128,-1,44
 551 1028 551 1028 502.5 1006.5 c 128,-1,45
 454 985 454 985 410.5 955 c 128,-1,46
 367 925 367 925 334 890 c 1,47,-1
 334 285 l 1,27,28
EndSplineSet
EndChar

StartChar: q
Encoding: 113 113 84
Width: 1259
GlyphClass: 2
Flags: W
LayerCount: 2
Fore
SplineSet
928 164 m 1,0,1
 899 128 899 128 861 94.5 c 128,-1,2
 823 61 823 61 777 35.5 c 128,-1,3
 731 10 731 10 678.5 -5 c 128,-1,4
 626 -20 626 -20 568 -20 c 0,5,6
 449 -20 449 -20 361.5 28.5 c 128,-1,7
 274 77 274 77 216 160.5 c 128,-1,8
 158 244 158 244 129.5 355.5 c 128,-1,9
 101 467 101 467 101 593 c 0,10,11
 101 717 101 717 124 825.5 c 128,-1,12
 147 934 147 934 202 1015 c 128,-1,13
 257 1096 257 1096 347 1143 c 128,-1,14
 437 1190 437 1190 571 1190 c 0,15,16
 627 1190 627 1190 681.5 1171.5 c 128,-1,17
 736 1153 736 1153 785 1122.5 c 128,-1,18
 834 1092 834 1092 875 1052.5 c 128,-1,19
 916 1013 916 1013 945 971 c 1,20,-1
 979 1169 l 1,21,-1
 1118 1169 l 1,22,-1
 1118 -479 l 1,23,-1
 928 -502 l 1,24,-1
 928 164 l 1,0,1
928 891 m 1,25,26
 892 927 892 927 844.5 957 c 128,-1,27
 797 987 797 987 747 1008 c 128,-1,28
 697 1029 697 1029 648.5 1041 c 128,-1,29
 600 1053 600 1053 562 1053 c 0,30,31
 476 1053 476 1053 421.5 1014 c 128,-1,32
 367 975 367 975 336.5 910 c 128,-1,33
 306 845 306 845 294.5 760 c 128,-1,34
 283 675 283 675 283 584 c 0,35,36
 283 462 283 462 301.5 374 c 128,-1,37
 320 286 320 286 358.5 229 c 128,-1,38
 397 172 397 172 456 144.5 c 128,-1,39
 515 117 515 117 597 117 c 0,40,41
 638 117 638 117 687 132.5 c 128,-1,42
 736 148 736 148 782 171 c 128,-1,43
 828 194 828 194 867 220 c 128,-1,44
 906 246 906 246 928 268 c 1,45,-1
 928 891 l 1,25,26
EndSplineSet
EndChar

StartChar: r
Encoding: 114 114 85
Width: 803
GlyphClass: 2
Flags: W
LayerCount: 2
Fore
SplineSet
144 1169 m 1,0,-1
 287 1169 l 1,1,-1
 317 977 l 1,2,3
 351 1019 351 1019 386 1058 c 128,-1,4
 421 1097 421 1097 459.5 1126 c 128,-1,5
 498 1155 498 1155 542 1172.5 c 128,-1,6
 586 1190 586 1190 639 1190 c 0,7,8
 698 1190 698 1190 739 1178 c 1,9,-1
 739 1026 l 1,10,11
 737 1027 737 1027 728 1028 c 128,-1,12
 719 1029 719 1029 705 1029.5 c 128,-1,13
 691 1030 691 1030 673 1030 c 128,-1,14
 655 1030 655 1030 637 1030 c 0,15,16
 595 1030 595 1030 554 1016 c 128,-1,17
 513 1002 513 1002 474.5 979.5 c 128,-1,18
 436 957 436 957 400.5 928.5 c 128,-1,19
 365 900 365 900 334 870 c 1,20,-1
 334 0 l 1,21,-1
 144 0 l 1,22,-1
 144 1169 l 1,0,-1
EndSplineSet
EndChar

StartChar: s
Encoding: 115 115 86
Width: 1018
GlyphClass: 2
Flags: W
LayerCount: 2
Fore
SplineSet
167 231 m 1,0,1
 189 213 189 213 226.5 193 c 128,-1,2
 264 173 264 173 309.5 156 c 128,-1,3
 355 139 355 139 404 128 c 128,-1,4
 453 117 453 117 498 117 c 0,5,6
 531 117 531 117 575.5 125 c 128,-1,7
 620 133 620 133 659.5 154 c 128,-1,8
 699 175 699 175 726.5 212 c 128,-1,9
 754 249 754 249 754 306 c 0,10,11
 754 346 754 346 740 376.5 c 128,-1,12
 726 407 726 407 700.5 430.5 c 128,-1,13
 675 454 675 454 640 472 c 128,-1,14
 605 490 605 490 563 505 c 2,15,-1
 339 584 l 2,16,17
 288 602 288 602 243 628.5 c 128,-1,18
 198 655 198 655 165 691.5 c 128,-1,19
 132 728 132 728 113 775 c 128,-1,20
 94 822 94 822 94 881 c 0,21,22
 94 959 94 959 126.5 1017.5 c 128,-1,23
 159 1076 159 1076 213 1114 c 128,-1,24
 267 1152 267 1152 336 1171 c 128,-1,25
 405 1190 405 1190 479 1190 c 0,26,27
 545 1190 545 1190 607.5 1177 c 128,-1,28
 670 1164 670 1164 722.5 1145 c 128,-1,29
 775 1126 775 1126 814 1104.5 c 128,-1,30
 853 1083 853 1083 873 1067 c 1,31,-1
 811 941 l 1,32,33
 750 988 750 988 668.5 1020.5 c 128,-1,34
 587 1053 587 1053 492 1053 c 0,35,36
 433 1053 433 1053 388.5 1039.5 c 128,-1,37
 344 1026 344 1026 314 1003.5 c 128,-1,38
 284 981 284 981 269 952 c 128,-1,39
 254 923 254 923 254 891 c 0,40,41
 254 835 254 835 297.5 799.5 c 128,-1,42
 341 764 341 764 418 737 c 2,43,-1
 586 678 l 2,44,45
 663 651 663 651 725.5 619 c 128,-1,46
 788 587 788 587 832.5 545 c 128,-1,47
 877 503 877 503 901.5 449 c 128,-1,48
 926 395 926 395 926 325 c 0,49,50
 926 262 926 262 904.5 200 c 128,-1,51
 883 138 883 138 834.5 89 c 128,-1,52
 786 40 786 40 708 9.5 c 128,-1,53
 630 -21 630 -21 516 -21 c 0,54,55
 438 -21 438 -21 371.5 -7 c 128,-1,56
 305 7 305 7 253 26.5 c 128,-1,57
 201 46 201 46 163 67.5 c 128,-1,58
 125 89 125 89 104 104 c 1,59,-1
 167 231 l 1,0,1
EndSplineSet
EndChar

StartChar: t
Encoding: 116 116 87
Width: 891
GlyphClass: 2
Flags: W
LayerCount: 2
Fore
SplineSet
246 1065 m 1,0,-1
 63 1065 l 1,1,-1
 63 1169 l 1,2,-1
 249 1169 l 1,3,-1
 274 1530 l 1,4,-1
 436 1576 l 1,5,-1
 436 1169 l 1,6,-1
 769 1169 l 1,7,-1
 769 1065 l 1,8,-1
 436 1065 l 1,9,-1
 436 295 l 2,10,11
 436 241 436 241 441.5 206.5 c 128,-1,12
 447 172 447 172 460 152 c 128,-1,13
 473 132 473 132 494.5 124.5 c 128,-1,14
 516 117 516 117 548 117 c 0,15,16
 584 117 584 117 631.5 137.5 c 128,-1,17
 679 158 679 158 760 203 c 1,18,-1
 827 80 l 1,19,20
 739 26 739 26 663 3 c 128,-1,21
 587 -20 587 -20 514 -20 c 0,22,23
 439 -20 439 -20 387.5 3.5 c 128,-1,24
 336 27 336 27 304.5 73.5 c 128,-1,25
 273 120 273 120 259.5 188.5 c 128,-1,26
 246 257 246 257 246 347 c 2,27,-1
 246 1065 l 1,0,-1
EndSplineSet
EndChar

StartChar: u
Encoding: 117 117 88
Width: 1241
GlyphClass: 2
Flags: W
LayerCount: 2
Fore
SplineSet
932 176 m 1,0,1
 904 145 904 145 866.5 110.5 c 128,-1,2
 829 76 829 76 782 47 c 128,-1,3
 735 18 735 18 678 -1 c 128,-1,4
 621 -20 621 -20 554 -20 c 0,5,6
 454 -20 454 -20 376 6 c 128,-1,7
 298 32 298 32 244 88 c 128,-1,8
 190 144 190 144 162 231.5 c 128,-1,9
 134 319 134 319 134 442 c 2,10,-1
 134 1169 l 1,11,-1
 324 1169 l 1,12,-1
 324 442 l 2,13,14
 324 355 324 355 339.5 293.5 c 128,-1,15
 355 232 355 232 384.5 192.5 c 128,-1,16
 414 153 414 153 457 135 c 128,-1,17
 500 117 500 117 556 117 c 0,18,19
 603 117 603 117 647 125 c 128,-1,20
 691 133 691 133 734 152 c 128,-1,21
 777 171 777 171 820 200.5 c 128,-1,22
 863 230 863 230 910 274 c 1,23,-1
 910 1169 l 1,24,-1
 1100 1169 l 1,25,-1
 1100 0 l 1,26,-1
 959 0 l 1,27,-1
 932 176 l 1,0,1
EndSplineSet
EndChar

StartChar: v
Encoding: 118 118 89
Width: 1134
GlyphClass: 2
Flags: W
LayerCount: 2
Fore
SplineSet
45 1169 m 1,0,-1
 233 1169 l 1,1,-1
 569 199 l 1,2,-1
 899 1169 l 1,3,-1
 1089 1169 l 1,4,-1
 659 0 l 1,5,-1
 473 0 l 1,6,-1
 45 1169 l 1,0,-1
EndSplineSet
EndChar

StartChar: w
Encoding: 119 119 90
Width: 1644
GlyphClass: 2
Flags: W
LayerCount: 2
Fore
SplineSet
45 1169 m 1,0,-1
 229 1169 l 1,1,-1
 463 124 l 1,2,-1
 721 1169 l 1,3,-1
 923 1169 l 1,4,-1
 1173 122 l 1,5,-1
 1413 1169 l 1,6,-1
 1599 1169 l 1,7,-1
 1279 0 l 1,8,-1
 1073 0 l 1,9,-1
 823 995 l 1,10,-1
 571 0 l 1,11,-1
 365 0 l 1,12,-1
 45 1169 l 1,0,-1
EndSplineSet
EndChar

StartChar: x
Encoding: 120 120 91
Width: 1126
GlyphClass: 2
Flags: W
LayerCount: 2
Fore
SplineSet
476 584 m 1,0,-1
 64 1169 l 1,1,-1
 280 1169 l 1,2,-1
 562 702 l 1,3,-1
 852 1169 l 1,4,-1
 1062 1169 l 1,5,-1
 656 584 l 1,6,-1
 1054 0 l 1,7,-1
 850 0 l 1,8,-1
 568 477 l 1,9,-1
 280 0 l 1,10,-1
 68 0 l 1,11,-1
 476 584 l 1,0,-1
EndSplineSet
EndChar

StartChar: y
Encoding: 121 121 92
Width: 1123
GlyphClass: 2
Flags: W
LayerCount: 2
Fore
SplineSet
156 -334 m 1,0,1
 215 -320 215 -320 266 -296.5 c 128,-1,2
 317 -273 317 -273 359 -232 c 128,-1,3
 401 -191 401 -191 435.5 -129 c 128,-1,4
 470 -67 470 -67 496 23 c 1,5,-1
 45 1169 l 1,6,-1
 227 1169 l 1,7,-1
 582 249 l 1,8,-1
 883 1169 l 1,9,-1
 1078 1169 l 1,10,-1
 641 -37 l 2,11,12
 613 -114 613 -114 579.5 -173.5 c 128,-1,13
 546 -233 546 -233 510 -277 c 128,-1,14
 474 -321 474 -321 438 -352 c 128,-1,15
 402 -383 402 -383 368 -403 c 0,16,17
 289 -451 289 -451 207 -459 c 1,18,-1
 156 -334 l 1,0,1
EndSplineSet
EndChar

StartChar: z
Encoding: 122 122 93
Width: 1024
GlyphClass: 2
Flags: W
LayerCount: 2
Fore
SplineSet
103 166 m 1,0,-1
 741 1035 l 1,1,-1
 133 1035 l 1,2,-1
 133 1169 l 1,3,-1
 905 1169 l 1,4,-1
 905 1004 l 1,5,-1
 279 136 l 1,6,-1
 905 136 l 1,7,-1
 905 0 l 1,8,-1
 103 0 l 1,9,-1
 103 166 l 1,0,-1
EndSplineSet
EndChar

StartChar: braceleft
Encoding: 123 123 94
Width: 823
GlyphClass: 2
Flags: W
LayerCount: 2
Fore
SplineSet
742 -209 m 1,0,1
 529 -209 529 -209 431 -91.5 c 128,-1,2
 333 26 333 26 333 263 c 0,3,4
 333 347 333 347 315.5 405.5 c 128,-1,5
 298 464 298 464 266.5 500.5 c 128,-1,6
 235 537 235 537 191 554 c 128,-1,7
 147 571 147 571 95 571 c 1,8,-1
 95 759 l 1,9,10
 149 759 149 759 193 776 c 128,-1,11
 237 793 237 793 268 830 c 128,-1,12
 299 867 299 867 316 925.5 c 128,-1,13
 333 984 333 984 333 1067 c 0,14,15
 333 1304 333 1304 431 1421.5 c 128,-1,16
 529 1539 529 1539 742 1539 c 1,17,-1
 742 1370 l 1,18,19
 694 1370 694 1370 651 1363 c 128,-1,20
 608 1356 608 1356 576 1329 c 128,-1,21
 544 1302 544 1302 524.5 1247 c 128,-1,22
 505 1192 505 1192 504 1096 c 0,23,24
 502 997 502 997 489.5 924 c 128,-1,25
 477 851 477 851 448.5 799.5 c 128,-1,26
 420 748 420 748 374.5 715.5 c 128,-1,27
 329 683 329 683 262 665 c 1,28,29
 328 647 328 647 373.5 615 c 128,-1,30
 419 583 419 583 447.5 531.5 c 128,-1,31
 476 480 476 480 489 407 c 128,-1,32
 502 334 502 334 504 234 c 0,33,34
 505 138 505 138 524.5 83 c 128,-1,35
 544 28 544 28 576 1 c 128,-1,36
 608 -26 608 -26 651 -33 c 128,-1,37
 694 -40 694 -40 742 -40 c 1,38,-1
 742 -209 l 1,0,1
EndSplineSet
EndChar

StartChar: bar
Encoding: 124 124 95
Width: 625
GlyphClass: 2
Flags: W
LayerCount: 2
Fore
SplineSet
224 1696 m 1,0,-1
 402 1696 l 1,1,-1
 402 -111 l 1,2,-1
 224 -111 l 1,3,-1
 224 1696 l 1,0,-1
EndSplineSet
EndChar

StartChar: asciitilde
Encoding: 126 126 97
Width: 899
GlyphClass: 2
Flags: W
LayerCount: 2
Fore
SplineSet
93 394 m 1,0,1
 93 468 93 468 108.5 518 c 128,-1,2
 124 568 124 568 151.5 598 c 128,-1,3
 179 628 179 628 217 641 c 128,-1,4
 255 654 255 654 300 654 c 0,5,6
 351 654 351 654 408 628 c 128,-1,7
 465 602 465 602 526 567 c 0,8,9
 591 529 591 529 640 529 c 0,10,11
 661 529 661 529 672.5 540.5 c 128,-1,12
 684 552 684 552 689.5 569 c 128,-1,13
 695 586 695 586 696 605.5 c 128,-1,14
 697 625 697 625 697 640 c 1,15,-1
 853 640 l 1,16,17
 853 585 853 585 840.5 539 c 128,-1,18
 828 493 828 493 803 460 c 128,-1,19
 778 427 778 427 741 408.5 c 128,-1,20
 704 390 704 390 656 390 c 0,21,22
 604 390 604 390 554 406 c 128,-1,23
 504 422 504 422 453 450 c 256,24,25
 402 478 402 478 367.5 493.5 c 128,-1,26
 333 509 333 509 315 509 c 0,27,28
 279 509 279 509 264 484.5 c 128,-1,29
 249 460 249 460 249 394 c 1,30,-1
 93 394 l 1,0,1
EndSplineSet
EndChar

StartChar: exclamdown
Encoding: 161 161 99
Width: 790
GlyphClass: 2
Flags: W
LayerCount: 2
Fore
SplineSet
502 1377 m 1,0,-1
 293 1377 l 1,1,-1
 293 1579 l 1,2,-1
 502 1579 l 1,3,-1
 502 1377 l 1,0,-1
453 1180 m 1,4,-1
 502 0 l 1,5,-1
 293 0 l 1,6,-1
 343 1180 l 1,7,-1
 453 1180 l 1,4,-1
EndSplineSet
EndChar

StartChar: cent
Encoding: 162 162 100
Width: 1138
GlyphClass: 2
Flags: W
LayerCount: 2
Fore
SplineSet
142 580 m 0,0,1
 142 713 142 713 173.5 821 c 128,-1,2
 205 929 205 929 266 1007.5 c 128,-1,3
 327 1086 327 1086 415 1132.5 c 128,-1,4
 503 1179 503 1179 616 1189 c 1,5,-1
 616 1329 l 1,6,-1
 719 1329 l 1,7,-1
 719 1186 l 1,8,9
 843 1186 843 1186 1022 1088 c 1,10,-1
 1041 1077 l 1,11,-1
 984 944 l 1,12,-1
 959 959 l 2,13,14
 952 964 952 964 942 970 c 128,-1,15
 932 976 932 976 918 983 c 2,16,-1
 885 999 l 2,17,18
 843 1019 843 1019 802 1028 c 128,-1,19
 761 1037 761 1037 719 1038 c 1,20,-1
 719 130 l 1,21,22
 779 131 779 131 838.5 145 c 128,-1,23
 898 159 898 159 956 190 c 2,24,-1
 984 205 l 1,25,-1
 1030 68 l 1,26,27
 1003 53 1003 53 966 38 c 128,-1,28
 929 23 929 23 887 10 c 128,-1,29
 845 -3 845 -3 801.5 -11 c 128,-1,30
 758 -19 758 -19 719 -19 c 1,31,-1
 719 -159 l 1,32,-1
 616 -159 l 1,33,-1
 616 -22 l 1,34,35
 502 -14 502 -14 414 31.5 c 128,-1,36
 326 77 326 77 265.5 154.5 c 128,-1,37
 205 232 205 232 173.5 340 c 128,-1,38
 142 448 142 448 142 580 c 0,0,1
616 1037 m 1,39,40
 332 999 332 999 332 580 c 0,41,42
 332 480 332 480 349.5 400 c 128,-1,43
 367 320 367 320 402 262 c 128,-1,44
 437 204 437 204 490.5 170 c 128,-1,45
 544 136 544 136 616 129 c 1,46,-1
 616 1037 l 1,39,40
EndSplineSet
EndChar

StartChar: sterling
Encoding: 163 163 101
Width: 1128
GlyphClass: 2
Flags: W
LayerCount: 2
Fore
SplineSet
1004 143 m 1,0,-1
 1004 0 l 1,1,-1
 207 0 l 1,2,-1
 207 137 l 1,3,4
 232 167 232 167 257.5 214 c 128,-1,5
 283 261 283 261 303 321 c 128,-1,6
 323 381 323 381 336 452.5 c 128,-1,7
 349 524 349 524 349 603 c 1,8,-1
 152 603 l 1,9,-1
 152 706 l 1,10,-1
 322 706 l 2,11,12
 320 706 320 706 311 717 c 1,13,14
 300 727 300 727 287 747 c 1,15,16
 248 801 248 801 228.5 851.5 c 128,-1,17
 209 902 209 902 209 956 c 0,18,19
 209 1031 209 1031 239.5 1098 c 128,-1,20
 270 1165 270 1165 323.5 1214.5 c 128,-1,21
 377 1264 377 1264 448 1293 c 128,-1,22
 519 1322 519 1322 600 1322 c 0,23,24
 861 1322 861 1322 1039 1219 c 1,25,-1
 989 1088 l 1,26,27
 799 1180 799 1180 659 1180 c 0,28,29
 391 1180 391 1180 391 959 c 0,30,31
 391 850 391 850 476 741 c 1,32,-1
 507 706 l 1,33,-1
 935 706 l 1,34,-1
 935 603 l 1,35,-1
 507 603 l 1,36,37
 507 534 507 534 498 467 c 128,-1,38
 489 400 489 400 473 340 c 128,-1,39
 457 280 457 280 435 229.5 c 128,-1,40
 413 179 413 179 388 143 c 1,41,-1
 1004 143 l 1,0,-1
EndSplineSet
EndChar

StartChar: currency
Encoding: 164 164 102
Width: 1366
GlyphClass: 2
Flags: W
LayerCount: 2
Fore
SplineSet
321 742 m 1,0,1
 253 846 253 846 253 970 c 0,2,3
 253 1097 253 1097 328 1208 c 1,4,-1
 134 1402 l 1,5,-1
 258 1526 l 1,6,-1
 452 1333 l 1,7,8
 564 1409 564 1409 691 1409 c 0,9,10
 816 1409 816 1409 920 1341 c 1,11,-1
 1106 1526 l 1,12,-1
 1230 1402 l 1,13,-1
 1043 1215 l 1,14,15
 1104 1118 1104 1118 1104 993 c 0,16,17
 1104 869 1104 869 1028 757 c 1,18,-1
 1230 555 l 1,19,-1
 1106 430 l 1,20,-1
 903 633 l 1,21,22
 793 558 793 558 669 558 c 0,23,24
 544 558 544 558 447 619 c 1,25,-1
 258 430 l 1,26,-1
 134 555 l 1,27,-1
 321 742 l 1,0,1
685 1266 m 256,28,29
 628 1266 628 1266 575.5 1242 c 128,-1,30
 523 1218 523 1218 483.5 1177.5 c 128,-1,31
 444 1137 444 1137 420 1084.5 c 128,-1,32
 396 1032 396 1032 396 975 c 256,33,34
 396 918 396 918 418 867.5 c 128,-1,35
 440 817 440 817 478 779.5 c 128,-1,36
 516 742 516 742 566 720.5 c 128,-1,37
 616 699 616 699 672 699 c 0,38,39
 729 699 729 699 781 723 c 128,-1,40
 833 747 833 747 873.5 787 c 128,-1,41
 914 827 914 827 938 879.5 c 128,-1,42
 962 932 962 932 962 989 c 256,43,44
 962 1046 962 1046 940 1096.5 c 128,-1,45
 918 1147 918 1147 880.5 1184.5 c 128,-1,46
 843 1222 843 1222 792.5 1244 c 128,-1,47
 742 1266 742 1266 685 1266 c 256,28,29
EndSplineSet
EndChar

StartChar: yen
Encoding: 165 165 103
Width: 1277
GlyphClass: 2
Flags: W
LayerCount: 2
Fore
SplineSet
524 688 m 1,0,-1
 41 1579 l 1,1,-1
 235 1579 l 1,2,-1
 655 788 l 1,3,-1
 1075 1579 l 1,4,-1
 1269 1579 l 1,5,-1
 788 688 l 1,6,-1
 1051 688 l 1,7,-1
 1051 584 l 1,8,-1
 755 584 l 1,9,-1
 755 488 l 1,10,-1
 1051 488 l 1,11,-1
 1051 389 l 1,12,-1
 755 389 l 1,13,-1
 755 0 l 1,14,-1
 565 0 l 1,15,-1
 565 389 l 1,16,-1
 263 389 l 1,17,-1
 263 488 l 1,18,-1
 565 488 l 1,19,-1
 565 584 l 1,20,-1
 263 584 l 1,21,-1
 263 688 l 1,22,-1
 524 688 l 1,0,-1
EndSplineSet
EndChar

StartChar: brokenbar
Encoding: 166 166 104
Width: 640
GlyphClass: 2
Flags: W
LayerCount: 2
Fore
SplineSet
249 889 m 1,0,-1
 249 1579 l 1,1,-1
 437 1579 l 1,2,-1
 437 889 l 1,3,-1
 249 889 l 1,0,-1
249 0 m 1,4,-1
 249 690 l 1,5,-1
 437 690 l 1,6,-1
 437 0 l 1,7,-1
 249 0 l 1,4,-1
EndSplineSet
EndChar

StartChar: section
Encoding: 167 167 105
Width: 1192
GlyphClass: 2
Flags: W
LayerCount: 2
Fore
SplineSet
480 995 m 1,0,1
 400 1025 400 1025 350.5 1056 c 128,-1,2
 301 1087 301 1087 273 1122 c 128,-1,3
 245 1157 245 1157 235 1199 c 128,-1,4
 225 1241 225 1241 225 1292 c 0,5,6
 225 1350 225 1350 252 1400.5 c 128,-1,7
 279 1451 279 1451 328.5 1488.5 c 128,-1,8
 378 1526 378 1526 447.5 1547.5 c 128,-1,9
 517 1569 517 1569 602 1569 c 0,10,11
 653 1569 653 1569 709 1557 c 128,-1,12
 765 1545 765 1545 815.5 1527.5 c 128,-1,13
 866 1510 866 1510 905.5 1489.5 c 128,-1,14
 945 1469 945 1469 964 1452 c 1,15,-1
 906 1316 l 1,16,17
 768 1424 768 1424 612 1424 c 0,18,19
 381 1424 381 1424 381 1275 c 0,20,21
 381 1251 381 1251 389.5 1232 c 128,-1,22
 398 1213 398 1213 417 1197.5 c 128,-1,23
 436 1182 436 1182 465.5 1168 c 128,-1,24
 495 1154 495 1154 537 1139 c 2,25,-1
 692 1083 l 2,26,27
 791 1047 791 1047 854 1010 c 128,-1,28
 917 973 917 973 952 933.5 c 128,-1,29
 987 894 987 894 1000 850 c 128,-1,30
 1013 806 1013 806 1013 756 c 256,31,32
 1013 706 1013 706 995 665 c 128,-1,33
 977 624 977 624 944.5 593.5 c 128,-1,34
 912 563 912 563 866 544.5 c 128,-1,35
 820 526 820 526 764 522 c 1,36,37
 837 496 837 496 885.5 464 c 128,-1,38
 934 432 934 432 962.5 392 c 128,-1,39
 991 352 991 352 1003 302.5 c 128,-1,40
 1015 253 1015 253 1015 192 c 0,41,42
 1015 132 1015 132 984.5 79 c 128,-1,43
 954 26 954 26 899.5 -13.5 c 128,-1,44
 845 -53 845 -53 768.5 -76 c 128,-1,45
 692 -99 692 -99 600 -99 c 0,46,47
 558 -99 558 -99 504.5 -88 c 128,-1,48
 451 -77 451 -77 399 -59.5 c 128,-1,49
 347 -42 347 -42 303 -21 c 128,-1,50
 259 0 259 0 235 20 c 1,51,-1
 296 158 l 1,52,53
 324 132 324 132 361 112 c 128,-1,54
 398 92 398 92 437.5 78 c 128,-1,55
 477 64 477 64 515 57 c 128,-1,56
 553 50 553 50 582 50 c 0,57,58
 846 50 846 50 846 223 c 0,59,60
 846 257 846 257 836.5 283 c 128,-1,61
 827 309 827 309 806 330 c 128,-1,62
 785 351 785 351 750.5 369 c 128,-1,63
 716 387 716 387 665 405 c 2,64,-1
 505 459 l 2,65,66
 434 483 434 483 387.5 506.5 c 128,-1,67
 341 530 341 530 312 554 c 128,-1,68
 283 578 283 578 267.5 602.5 c 128,-1,69
 252 627 252 627 243 653 c 0,70,71
 232 683 232 683 228.5 710 c 128,-1,72
 225 737 225 737 225 761 c 0,73,74
 225 797 225 797 235.5 834.5 c 128,-1,75
 246 872 246 872 274.5 905 c 128,-1,76
 303 938 303 938 352.5 962 c 128,-1,77
 402 986 402 986 480 995 c 1,0,1
853 751 m 0,78,79
 853 788 853 788 840.5 817 c 128,-1,80
 828 846 828 846 799.5 866 c 128,-1,81
 771 886 771 886 725.5 896 c 128,-1,82
 680 906 680 906 614 906 c 0,83,84
 379 906 379 906 379 753 c 256,85,86
 379 600 379 600 614 600 c 0,87,88
 729 600 729 600 791 638 c 128,-1,89
 853 676 853 676 853 751 c 0,78,79
EndSplineSet
EndChar

StartChar: dieresis
Encoding: 168 168 106
Width: 952
GlyphClass: 2
Flags: W
LayerCount: 2
Fore
SplineSet
723 611 m 0,0,1
 771 611 771 611 801 577.5 c 128,-1,2
 831 544 831 544 831 496 c 256,3,4
 831 448 831 448 801 414.5 c 128,-1,5
 771 381 771 381 723 381 c 0,6,7
 698 381 698 381 677.5 390 c 128,-1,8
 657 399 657 399 642 415 c 128,-1,9
 627 431 627 431 619 452 c 128,-1,10
 611 473 611 473 611 496 c 256,11,12
 611 519 611 519 619 540 c 128,-1,13
 627 561 627 561 642 576.5 c 128,-1,14
 657 592 657 592 677.5 601.5 c 128,-1,15
 698 611 698 611 723 611 c 0,0,1
233 611 m 0,16,17
 281 611 281 611 311 577.5 c 128,-1,18
 341 544 341 544 341 496 c 256,19,20
 341 448 341 448 311 414.5 c 128,-1,21
 281 381 281 381 233 381 c 0,22,23
 208 381 208 381 187.5 390 c 128,-1,24
 167 399 167 399 152 415 c 128,-1,25
 137 431 137 431 129 452 c 128,-1,26
 121 473 121 473 121 496 c 256,27,28
 121 519 121 519 129 540 c 128,-1,29
 137 561 137 561 152 576.5 c 128,-1,30
 167 592 167 592 187.5 601.5 c 128,-1,31
 208 611 208 611 233 611 c 0,16,17
EndSplineSet
EndChar

StartChar: copyright
Encoding: 169 169 107
Width: 2101
GlyphClass: 2
Flags: W
LayerCount: 2
Fore
SplineSet
164 830 m 256,0,1
 164 961 164 961 199 1075 c 128,-1,2
 234 1189 234 1189 296 1284 c 128,-1,3
 358 1379 358 1379 442 1454 c 128,-1,4
 526 1529 526 1529 623 1581 c 128,-1,5
 720 1633 720 1633 826 1660 c 128,-1,6
 932 1687 932 1687 1039 1687 c 256,7,8
 1146 1687 1146 1687 1252.5 1659.5 c 128,-1,9
 1359 1632 1359 1632 1456.5 1580 c 128,-1,10
 1554 1528 1554 1528 1637.5 1453 c 128,-1,11
 1721 1378 1721 1378 1782.5 1283 c 128,-1,12
 1844 1188 1844 1188 1879 1074 c 128,-1,13
 1914 960 1914 960 1914 830 c 1,14,15
 1913 702 1913 702 1879.5 589 c 128,-1,16
 1846 476 1846 476 1786.5 381.5 c 128,-1,17
 1727 287 1727 287 1645.5 211.5 c 128,-1,18
 1564 136 1564 136 1467 84 c 128,-1,19
 1370 32 1370 32 1261.5 4.5 c 128,-1,20
 1153 -23 1153 -23 1039 -23 c 0,21,22
 928 -23 928 -23 820 4 c 128,-1,23
 712 31 712 31 614.5 82 c 128,-1,24
 517 133 517 133 434.5 207.5 c 128,-1,25
 352 282 352 282 292 377 c 128,-1,26
 232 472 232 472 198 585.5 c 128,-1,27
 164 699 164 699 164 830 c 256,0,1
312 829 m 0,28,29
 312 677 312 677 364.5 544.5 c 128,-1,30
 417 412 417 412 512.5 313.5 c 128,-1,31
 608 215 608 215 742 158 c 128,-1,32
 876 101 876 101 1039 101 c 256,33,34
 1202 101 1202 101 1336 158 c 128,-1,35
 1470 215 1470 215 1565.5 313.5 c 128,-1,36
 1661 412 1661 412 1713.5 544.5 c 128,-1,37
 1766 677 1766 677 1766 829 c 0,38,39
 1766 942 1766 942 1736 1040.5 c 128,-1,40
 1706 1139 1706 1139 1654.5 1220.5 c 128,-1,41
 1603 1302 1603 1302 1532.5 1365.5 c 128,-1,42
 1462 1429 1462 1429 1381.5 1472.5 c 128,-1,43
 1301 1516 1301 1516 1213.5 1539 c 128,-1,44
 1126 1562 1126 1562 1039 1562 c 0,45,46
 951 1562 951 1562 863 1539 c 128,-1,47
 775 1516 775 1516 694 1472 c 128,-1,48
 613 1428 613 1428 543.5 1364.5 c 128,-1,49
 474 1301 474 1301 422.5 1219.5 c 128,-1,50
 371 1138 371 1138 341.5 1040 c 128,-1,51
 312 942 312 942 312 829 c 0,28,29
1076 336 m 0,52,53
 920 336 920 336 818.5 378 c 128,-1,54
 717 420 717 420 658.5 489 c 128,-1,55
 600 558 600 558 577 647 c 128,-1,56
 554 736 554 736 554 831 c 0,57,58
 554 894 554 894 563.5 955 c 128,-1,59
 573 1016 573 1016 596.5 1071 c 128,-1,60
 620 1126 620 1126 658.5 1173 c 128,-1,61
 697 1220 697 1220 755 1254 c 128,-1,62
 813 1288 813 1288 892 1307 c 128,-1,63
 971 1326 971 1326 1076 1326 c 0,64,65
 1203 1326 1203 1326 1356 1248 c 1,66,-1
 1356 1122 l 1,67,68
 1205 1198 1205 1198 1062 1198 c 0,69,70
 975 1198 975 1198 910 1181 c 128,-1,71
 845 1164 845 1164 802 1122 c 128,-1,72
 759 1080 759 1080 737.5 1009 c 128,-1,73
 716 938 716 938 716 831 c 256,74,75
 716 724 716 724 737.5 653 c 128,-1,76
 759 582 759 582 802 540 c 128,-1,77
 845 498 845 498 910 481 c 128,-1,78
 975 464 975 464 1062 464 c 0,79,80
 1205 464 1205 464 1356 540 c 1,81,-1
 1356 414 l 1,82,83
 1203 336 1203 336 1076 336 c 0,52,53
EndSplineSet
EndChar

StartChar: ordfeminine
Encoding: 170 170 108
Width: 1186
GlyphClass: 2
Flags: W
LayerCount: 2
Fore
SplineSet
206 960 m 0,0,1
 206 1032 206 1032 232 1087.5 c 128,-1,2
 258 1143 258 1143 305.5 1181 c 128,-1,3
 353 1219 353 1219 419 1238.5 c 128,-1,4
 485 1258 485 1258 565 1258 c 0,5,6
 598 1258 598 1258 630 1255 c 128,-1,7
 662 1252 662 1252 690.5 1247.5 c 128,-1,8
 719 1243 719 1243 742 1237.5 c 128,-1,9
 765 1232 765 1232 779 1227 c 0,10,11
 798 1221 798 1221 799 1218 c 1,12,-1
 799 1276 l 2,13,14
 799 1334 799 1334 792.5 1378.5 c 128,-1,15
 786 1423 786 1423 765.5 1453 c 128,-1,16
 745 1483 745 1483 707.5 1498 c 128,-1,17
 670 1513 670 1513 607 1513 c 0,18,19
 548 1513 548 1513 495.5 1502 c 128,-1,20
 443 1491 443 1491 403.5 1478 c 128,-1,21
 364 1465 364 1465 340.5 1454 c 128,-1,22
 317 1443 317 1443 316 1443 c 2,23,-1
 263 1552 l 2,24,25
 264 1552 264 1552 290 1565.5 c 128,-1,26
 316 1579 316 1579 361 1595 c 128,-1,27
 406 1611 406 1611 467 1624.5 c 128,-1,28
 528 1638 528 1638 599 1638 c 0,29,30
 701 1638 701 1638 770 1616 c 128,-1,31
 839 1594 839 1594 881.5 1545.5 c 128,-1,32
 924 1497 924 1497 942 1420.5 c 128,-1,33
 960 1344 960 1344 960 1235 c 2,34,-1
 960 686 l 1,35,-1
 844 686 l 1,36,-1
 817 828 l 2,37,38
 816 828 816 828 801 803 c 128,-1,39
 786 778 786 778 752 748 c 128,-1,40
 718 718 718 718 662 693 c 128,-1,41
 606 668 606 668 523 668 c 0,42,43
 449 668 449 668 390.5 687.5 c 128,-1,44
 332 707 332 707 291 744 c 128,-1,45
 250 781 250 781 228 835.5 c 128,-1,46
 206 890 206 890 206 960 c 0,0,1
561 781 m 256,47,48
 616 781 616 781 660 799.5 c 128,-1,49
 704 818 704 818 735 840.5 c 128,-1,50
 766 863 766 863 782.5 882 c 128,-1,51
 799 901 799 901 799 903 c 2,52,-1
 799 1141 l 1,53,54
 748 1149 748 1149 704 1153.5 c 128,-1,55
 660 1158 660 1158 623 1158 c 0,56,57
 367 1158 367 1158 367 971 c 0,58,59
 367 918 367 918 377 882 c 128,-1,60
 387 846 387 846 409.5 823.5 c 128,-1,61
 432 801 432 801 469 791 c 128,-1,62
 506 781 506 781 561 781 c 256,47,48
270 575 m 1,63,-1
 954 575 l 1,64,-1
 954 446 l 1,65,-1
 270 446 l 1,66,-1
 270 575 l 1,63,-1
EndSplineSet
EndChar

StartChar: guillemotleft
Encoding: 171 171 109
Width: 1533
GlyphClass: 2
Flags: W
LayerCount: 2
Fore
SplineSet
1366 842 m 1,0,-1
 929 577 l 1,1,-1
 1366 306 l 1,2,-1
 1366 99 l 1,3,-1
 758 481 l 1,4,-1
 758 666 l 1,5,-1
 1366 1049 l 1,6,-1
 1366 842 l 1,0,-1
758 842 m 1,7,-1
 322 577 l 1,8,-1
 758 306 l 1,9,-1
 758 99 l 1,10,-1
 150 481 l 1,11,-1
 150 666 l 1,12,-1
 758 1049 l 1,13,-1
 758 842 l 1,7,-1
EndSplineSet
EndChar

StartChar: logicalnot
Encoding: 172 172 110
Width: 1724
GlyphClass: 2
Flags: W
LayerCount: 2
Fore
SplineSet
1272 338 m 1,0,-1
 1272 1018 l 1,1,-1
 94 1018 l 1,2,-1
 94 1169 l 1,3,-1
 1448 1169 l 1,4,-1
 1448 338 l 1,5,-1
 1272 338 l 1,0,-1
EndSplineSet
EndChar

StartChar: uni00AD
Encoding: 173 173 111
Width: 864
GlyphClass: 2
Flags: W
LayerCount: 2
Fore
SplineSet
622 508 m 1,0,-1
 154 508 l 1,1,-1
 154 639 l 1,2,-1
 622 639 l 1,3,-1
 622 508 l 1,0,-1
EndSplineSet
EndChar

StartChar: registered
Encoding: 174 174 112
Width: 1334
GlyphClass: 2
Flags: W
LayerCount: 2
Fore
SplineSet
691 542 m 0,0,1
 565 542 565 542 457 586.5 c 128,-1,2
 349 631 349 631 270 708 c 128,-1,3
 191 785 191 785 146.5 888 c 128,-1,4
 102 991 102 991 102 1108 c 0,5,6
 102 1224 102 1224 147 1327 c 128,-1,7
 192 1430 192 1430 271 1507 c 128,-1,8
 350 1584 350 1584 457.5 1629 c 128,-1,9
 565 1674 565 1674 691 1674 c 0,10,11
 815 1674 815 1674 922.5 1630 c 128,-1,12
 1030 1586 1030 1586 1109.5 1509.5 c 128,-1,13
 1189 1433 1189 1433 1235 1329.5 c 128,-1,14
 1281 1226 1281 1226 1281 1108 c 0,15,16
 1281 989 1281 989 1235.5 886 c 128,-1,17
 1190 783 1190 783 1110.5 706.5 c 128,-1,18
 1031 630 1031 630 923 586 c 128,-1,19
 815 542 815 542 691 542 c 0,0,1
690 641 m 256,20,21
 794 641 794 641 882.5 677.5 c 128,-1,22
 971 714 971 714 1035.5 777 c 128,-1,23
 1100 840 1100 840 1136.5 924.5 c 128,-1,24
 1173 1009 1173 1009 1173 1106 c 0,25,26
 1173 1205 1173 1205 1136 1290 c 128,-1,27
 1099 1375 1099 1375 1034 1438 c 128,-1,28
 969 1501 969 1501 880.5 1536.5 c 128,-1,29
 792 1572 792 1572 690 1572 c 0,30,31
 587 1572 587 1572 499.5 1536 c 128,-1,32
 412 1500 412 1500 347.5 1437.5 c 128,-1,33
 283 1375 283 1375 246.5 1289.5 c 128,-1,34
 210 1204 210 1204 210 1105 c 0,35,36
 210 1007 210 1007 246 922 c 128,-1,37
 282 837 282 837 346.5 774.5 c 128,-1,38
 411 712 411 712 498.5 676.5 c 128,-1,39
 586 641 586 641 690 641 c 256,20,21
920 1261 m 0,40,41
 920 1225 920 1225 912.5 1197.5 c 128,-1,42
 905 1170 905 1170 886 1149.5 c 128,-1,43
 867 1129 867 1129 835 1113.5 c 128,-1,44
 803 1098 803 1098 754 1086 c 1,45,-1
 934 836 l 1,46,47
 929 834 929 834 922 831 c 128,-1,48
 915 828 915 828 906 823 c 2,49,-1
 861 799 l 1,50,-1
 834 785 l 1,51,52
 746 928 746 928 703.5 997.5 c 128,-1,53
 661 1067 661 1067 660 1068 c 1,54,-1
 617 1068 l 1,55,-1
 617 807 l 1,56,-1
 511 807 l 1,57,-1
 511 1408 l 1,58,-1
 631 1408 l 2,59,60
 678 1408 678 1408 715 1405 c 128,-1,61
 752 1402 752 1402 781.5 1395 c 128,-1,62
 811 1388 811 1388 834.5 1375.5 c 128,-1,63
 858 1363 858 1363 879 1344 c 0,64,65
 920 1306 920 1306 920 1261 c 0,40,41
668 1150 m 2,66,67
 741 1150 741 1150 778.5 1173 c 128,-1,68
 816 1196 816 1196 816 1256 c 0,69,70
 816 1273 816 1273 808.5 1286 c 128,-1,71
 801 1299 801 1299 779.5 1308 c 128,-1,72
 758 1317 758 1317 719.5 1321.5 c 128,-1,73
 681 1326 681 1326 620 1326 c 1,74,-1
 620 1150 l 1,75,-1
 668 1150 l 2,66,67
EndSplineSet
EndChar

StartChar: glyph113
Encoding: 175 175 113
Width: 1003
GlyphClass: 2
Flags: W
LayerCount: 2
Fore
SplineSet
780 98 m 1,0,-1
 98 98 l 1,1,-1
 98 215 l 1,2,-1
 780 215 l 1,3,-1
 780 98 l 1,0,-1
EndSplineSet
EndChar

StartChar: degree
Encoding: 176 176 114
Width: 780
GlyphClass: 2
Flags: W
LayerCount: 2
Fore
SplineSet
387 1139 m 0,0,1
 439 1139 439 1139 482.5 1121 c 128,-1,2
 526 1103 526 1103 557 1070.5 c 128,-1,3
 588 1038 588 1038 605.5 994 c 128,-1,4
 623 950 623 950 623 899 c 256,5,6
 623 848 623 848 606 804 c 128,-1,7
 589 760 589 760 558 728 c 128,-1,8
 527 696 527 696 483.5 678 c 128,-1,9
 440 660 440 660 387 660 c 0,10,11
 333 660 333 660 288 678.5 c 128,-1,12
 243 697 243 697 210.5 729 c 128,-1,13
 178 761 178 761 160.5 804.5 c 128,-1,14
 143 848 143 848 143 899 c 0,15,16
 143 951 143 951 161 995 c 128,-1,17
 179 1039 179 1039 211.5 1071 c 128,-1,18
 244 1103 244 1103 289 1121 c 128,-1,19
 334 1139 334 1139 387 1139 c 0,0,1
385 1048 m 0,20,21
 353 1048 353 1048 326.5 1036 c 128,-1,22
 300 1024 300 1024 281 1004 c 128,-1,23
 262 984 262 984 251 956.5 c 128,-1,24
 240 929 240 929 240 899 c 0,25,26
 240 868 240 868 251.5 841 c 128,-1,27
 263 814 263 814 282.5 793.5 c 128,-1,28
 302 773 302 773 328.5 761.5 c 128,-1,29
 355 750 355 750 385 750 c 0,30,31
 416 750 416 750 442 761.5 c 128,-1,32
 468 773 468 773 487 793.5 c 128,-1,33
 506 814 506 814 516 841 c 128,-1,34
 526 868 526 868 526 899 c 256,35,36
 526 930 526 930 516 957.5 c 128,-1,37
 506 985 506 985 487 1005 c 128,-1,38
 468 1025 468 1025 442 1036.5 c 128,-1,39
 416 1048 416 1048 385 1048 c 0,20,21
EndSplineSet
EndChar

StartChar: plusminus
Encoding: 177 177 115
Width: 1143
GlyphClass: 2
Flags: W
LayerCount: 2
Fore
SplineSet
974 577 m 1,0,-1
 660 577 l 1,1,-1
 660 233 l 1,2,-1
 519 233 l 1,3,-1
 519 577 l 1,4,-1
 206 577 l 1,5,-1
 206 710 l 1,6,-1
 519 710 l 1,7,-1
 519 1054 l 1,8,-1
 660 1054 l 1,9,-1
 660 710 l 1,10,-1
 974 710 l 1,11,-1
 974 577 l 1,0,-1
941 -56 m 1,12,-1
 240 -56 l 1,13,-1
 240 83 l 1,14,-1
 941 83 l 1,15,-1
 941 -56 l 1,12,-1
EndSplineSet
EndChar

StartChar: uni00B2
Encoding: 178 178 116
Width: 1126
GlyphClass: 2
Flags: W
LayerCount: 2
Fore
SplineSet
485 820 m 1,0,-1
 891 820 l 1,1,-1
 891 668 l 1,2,-1
 253 668 l 1,3,-1
 253 805 l 1,4,-1
 524 1045 l 2,5,6
 592 1105 592 1105 635.5 1147.5 c 128,-1,7
 679 1190 679 1190 703.5 1224.5 c 128,-1,8
 728 1259 728 1259 737.5 1289 c 128,-1,9
 747 1319 747 1319 747 1354 c 0,10,11
 747 1424 747 1424 695 1459.5 c 128,-1,12
 643 1495 643 1495 558 1495 c 0,13,14
 529 1495 529 1495 493 1490.5 c 128,-1,15
 457 1486 457 1486 421.5 1479 c 128,-1,16
 386 1472 386 1472 353.5 1464.5 c 128,-1,17
 321 1457 321 1457 300 1451 c 2,18,-1
 270 1443 l 1,19,-1
 270 1588 l 1,20,21
 318 1605 318 1605 391.5 1621.5 c 128,-1,22
 465 1638 465 1638 576 1638 c 0,23,24
 676 1638 676 1638 742 1610 c 128,-1,25
 808 1582 808 1582 847.5 1540 c 128,-1,26
 887 1498 887 1498 903 1448.5 c 128,-1,27
 919 1399 919 1399 919 1357 c 0,28,29
 919 1309 919 1309 907 1266.5 c 128,-1,30
 895 1224 895 1224 867 1180.5 c 128,-1,31
 839 1137 839 1137 792.5 1089 c 128,-1,32
 746 1041 746 1041 676 982 c 2,33,-1
 485 820 l 1,0,-1
EndSplineSet
EndChar

StartChar: uni00B3
Encoding: 179 179 117
Width: 1208
GlyphClass: 2
Flags: W
LayerCount: 2
Fore
SplineSet
832 1383 m 1,0,1
 832 1458 832 1458 777.5 1499.5 c 128,-1,2
 723 1541 723 1541 608 1541 c 0,3,4
 579 1541 579 1541 548.5 1536.5 c 128,-1,5
 518 1532 518 1532 490 1525.5 c 128,-1,6
 462 1519 462 1519 439 1511.5 c 128,-1,7
 416 1504 416 1504 403 1498 c 2,8,-1
 374 1484 l 1,9,-1
 327 1611 l 1,10,11
 329 1612 329 1612 352.5 1622.5 c 128,-1,12
 376 1633 376 1633 415 1645 c 128,-1,13
 454 1657 454 1657 505 1667 c 128,-1,14
 556 1677 556 1677 613 1677 c 0,15,16
 650 1677 650 1677 692 1671.5 c 128,-1,17
 734 1666 734 1666 775.5 1653.5 c 128,-1,18
 817 1641 817 1641 855 1620 c 128,-1,19
 893 1599 893 1599 922 1567.5 c 128,-1,20
 951 1536 951 1536 968.5 1493 c 128,-1,21
 986 1450 986 1450 986 1394 c 0,22,23
 985 1324 985 1324 957 1276 c 128,-1,24
 929 1228 929 1228 890.5 1198 c 128,-1,25
 852 1168 852 1168 810.5 1155 c 128,-1,26
 769 1142 769 1142 741 1142 c 1,27,28
 766 1137 766 1137 796 1127.5 c 128,-1,29
 826 1118 826 1118 856.5 1102.5 c 128,-1,30
 887 1087 887 1087 915.5 1063.5 c 128,-1,31
 944 1040 944 1040 966 1007.5 c 128,-1,32
 988 975 988 975 1002 932.5 c 128,-1,33
 1016 890 1016 890 1017 835 c 1,34,35
 1017 758 1017 758 982 702 c 128,-1,36
 947 646 947 646 891 610 c 128,-1,37
 835 574 835 574 765.5 557 c 128,-1,38
 696 540 696 540 628 540 c 0,39,40
 457 540 457 540 314 610 c 0,41,42
 300 616 300 616 300 618 c 2,43,-1
 351 745 l 1,44,-1
 373 734 l 2,45,46
 389 726 389 726 415.5 715 c 128,-1,47
 442 704 442 704 475.5 694.5 c 128,-1,48
 509 685 509 685 548.5 678.5 c 128,-1,49
 588 672 588 672 631 672 c 0,50,51
 679 673 679 673 719.5 686 c 128,-1,52
 760 699 760 699 789.5 722.5 c 128,-1,53
 819 746 819 746 835 779 c 128,-1,54
 851 812 851 812 851 853 c 0,55,56
 851 947 851 947 788 1002 c 128,-1,57
 725 1057 725 1057 589 1072 c 1,58,-1
 589 1207 l 1,59,60
 635 1207 635 1207 678.5 1217.5 c 128,-1,61
 722 1228 722 1228 755.5 1249.5 c 128,-1,62
 789 1271 789 1271 810 1304.5 c 128,-1,63
 831 1338 831 1338 832 1383 c 1,0,1
EndSplineSet
EndChar

StartChar: acute
Encoding: 180 180 118
Width: 1097
GlyphClass: 2
Flags: W
LayerCount: 2
Fore
SplineSet
546 328 m 1,0,-1
 489 354 l 1,1,-1
 648 965 l 1,2,-1
 880 874 l 1,3,-1
 546 328 l 1,0,-1
EndSplineSet
EndChar

StartChar: uni00B5
Encoding: 181 181 119
Width: 1320
GlyphClass: 2
Flags: W
LayerCount: 2
Fore
SplineSet
599 -20 m 0,0,1
 553 -20 553 -20 515 -6.5 c 128,-1,2
 477 7 477 7 448 26 c 128,-1,3
 419 45 419 45 399 65.5 c 128,-1,4
 379 86 379 86 369 100 c 2,5,-1
 359 113 l 1,6,-1
 359 -291 l 1,7,-1
 185 -291 l 1,8,-1
 185 1169 l 1,9,-1
 359 1169 l 1,10,-1
 359 442 l 2,11,12
 359 123 359 123 611 123 c 0,13,14
 681 123 681 123 740 142 c 128,-1,15
 799 161 799 161 844.5 186.5 c 128,-1,16
 890 212 890 212 919 237 c 128,-1,17
 948 262 948 262 958 274 c 1,18,-1
 958 1169 l 1,19,-1
 1166 1169 l 1,20,-1
 1166 16 l 1,21,-1
 1020 16 l 1,22,-1
 996 170 l 1,23,24
 825 -20 825 -20 599 -20 c 0,0,1
EndSplineSet
EndChar

StartChar: paragraph
Encoding: 182 182 120
Width: 1314
GlyphClass: 2
Flags: W
LayerCount: 2
Fore
SplineSet
1128 1578 m 1,0,-1
 1128 0 l 1,1,-1
 942 0 l 1,2,-1
 942 1436 l 1,3,-1
 807 1436 l 1,4,-1
 807 0 l 1,5,-1
 617 0 l 1,6,-1
 617 905 l 1,7,8
 523 905 523 905 435 921 c 128,-1,9
 347 937 347 937 278.5 976.5 c 128,-1,10
 210 1016 210 1016 169 1082.5 c 128,-1,11
 128 1149 128 1149 128 1250 c 0,12,13
 128 1321 128 1321 148.5 1373 c 128,-1,14
 169 1425 169 1425 205.5 1461 c 128,-1,15
 242 1497 242 1497 292 1519.5 c 128,-1,16
 342 1542 342 1542 401.5 1554.5 c 128,-1,17
 461 1567 461 1567 527 1572 c 128,-1,18
 593 1577 593 1577 662 1578 c 1,19,-1
 1128 1578 l 1,0,-1
EndSplineSet
EndChar

StartChar: periodcentered
Encoding: 183 183 121
Width: 518
GlyphClass: 2
Flags: W
LayerCount: 2
Fore
SplineSet
245 765 m 0,0,1
 293 765 293 765 323 731.5 c 128,-1,2
 353 698 353 698 353 650 c 256,3,4
 353 602 353 602 323 568.5 c 128,-1,5
 293 535 293 535 245 535 c 0,6,7
 220 535 220 535 199.5 544 c 128,-1,8
 179 553 179 553 164 569 c 128,-1,9
 149 585 149 585 141 606 c 128,-1,10
 133 627 133 627 133 650 c 256,11,12
 133 673 133 673 141 694 c 128,-1,13
 149 715 149 715 164 730.5 c 128,-1,14
 179 746 179 746 199.5 755.5 c 128,-1,15
 220 765 220 765 245 765 c 0,0,1
EndSplineSet
EndChar

StartChar: cedilla
Encoding: 184 184 122
Width: 575
GlyphClass: 2
Flags: W
LayerCount: 2
Fore
SplineSet
136 -540 m 1,0,-1
 136 -423 l 2,1,2
 136 -424 136 -424 157.5 -430.5 c 128,-1,3
 179 -437 179 -437 206.5 -444.5 c 128,-1,4
 234 -452 234 -452 261 -458 c 128,-1,5
 288 -464 288 -464 300 -464 c 0,6,7
 334 -464 334 -464 359.5 -460 c 128,-1,8
 385 -456 385 -456 402 -442 c 128,-1,9
 419 -428 419 -428 428 -401 c 128,-1,10
 437 -374 437 -374 439 -328 c 1,11,12
 439 -289 439 -289 424.5 -261.5 c 128,-1,13
 410 -234 410 -234 379.5 -217.5 c 128,-1,14
 349 -201 349 -201 301 -193.5 c 128,-1,15
 253 -186 253 -186 186 -186 c 1,16,-1
 186 76 l 1,17,-1
 307 76 l 1,18,-1
 307 -98 l 1,19,20
 368 -98 368 -98 417 -110.5 c 128,-1,21
 466 -123 466 -123 500.5 -151.5 c 128,-1,22
 535 -180 535 -180 553.5 -226.5 c 128,-1,23
 572 -273 572 -273 572 -342 c 0,24,25
 572 -578 572 -578 320 -578 c 0,26,27
 293 -578 293 -578 265 -573.5 c 128,-1,28
 237 -569 237 -569 213 -563 c 128,-1,29
 189 -557 189 -557 170 -551 c 128,-1,30
 151 -545 151 -545 142 -542 c 2,31,-1
 136 -540 l 1,0,-1
EndSplineSet
EndChar

StartChar: uni00B9
Encoding: 185 185 123
Width: 740
GlyphClass: 2
Flags: W
LayerCount: 2
Fore
SplineSet
327 478 m 1,0,-1
 327 1304 l 1,1,-1
 156 1232 l 1,2,-1
 119 1345 l 1,3,-1
 356 1440 l 1,4,-1
 496 1414 l 1,5,-1
 496 478 l 1,6,-1
 327 478 l 1,0,-1
EndSplineSet
EndChar

StartChar: ordmasculine
Encoding: 186 186 124
Width: 1276
GlyphClass: 2
Flags: W
LayerCount: 2
Fore
SplineSet
214 1152 m 0,0,1
 214 1251 214 1251 239.5 1339 c 128,-1,2
 265 1427 265 1427 317.5 1493.5 c 128,-1,3
 370 1560 370 1560 449.5 1599 c 128,-1,4
 529 1638 529 1638 638 1638 c 256,5,6
 747 1638 747 1638 827 1599 c 128,-1,7
 907 1560 907 1560 959.5 1493.5 c 128,-1,8
 1012 1427 1012 1427 1037.5 1339 c 128,-1,9
 1063 1251 1063 1251 1063 1152 c 0,10,11
 1063 1052 1063 1052 1037.5 964.5 c 128,-1,12
 1012 877 1012 877 959.5 811.5 c 128,-1,13
 907 746 907 746 827 708 c 128,-1,14
 747 670 747 670 638 670 c 0,15,16
 530 670 530 670 450.5 707.5 c 128,-1,17
 371 745 371 745 318.5 810 c 128,-1,18
 266 875 266 875 240 963 c 128,-1,19
 214 1051 214 1051 214 1152 c 0,0,1
371 1154 m 256,20,21
 371 1077 371 1077 386 1011.5 c 128,-1,22
 401 946 401 946 433 898.5 c 128,-1,23
 465 851 465 851 515.5 824 c 128,-1,24
 566 797 566 797 638 797 c 256,25,26
 710 797 710 797 760.5 823.5 c 128,-1,27
 811 850 811 850 843 897.5 c 128,-1,28
 875 945 875 945 890 1010.5 c 128,-1,29
 905 1076 905 1076 905 1154 c 0,30,31
 905 1230 905 1230 890 1295.5 c 128,-1,32
 875 1361 875 1361 843 1409 c 128,-1,33
 811 1457 811 1457 760.5 1484.5 c 128,-1,34
 710 1512 710 1512 638 1512 c 256,35,36
 566 1512 566 1512 515.5 1485 c 128,-1,37
 465 1458 465 1458 433 1410 c 128,-1,38
 401 1362 401 1362 386 1296.5 c 128,-1,39
 371 1231 371 1231 371 1154 c 256,20,21
300 575 m 1,40,-1
 984 575 l 1,41,-1
 984 446 l 1,42,-1
 300 446 l 1,43,-1
 300 575 l 1,40,-1
EndSplineSet
EndChar

StartChar: guillemotright
Encoding: 187 187 125
Width: 1533
GlyphClass: 2
Flags: W
LayerCount: 2
Fore
SplineSet
774 1049 m 1,0,-1
 1383 666 l 1,1,-1
 1383 481 l 1,2,-1
 774 99 l 1,3,-1
 774 306 l 1,4,-1
 1221 577 l 1,5,-1
 774 842 l 1,6,-1
 774 1049 l 1,0,-1
167 1049 m 1,7,-1
 776 666 l 1,8,-1
 776 481 l 1,9,-1
 167 99 l 1,10,-1
 167 306 l 1,11,-1
 614 577 l 1,12,-1
 167 842 l 1,13,-1
 167 1049 l 1,7,-1
EndSplineSet
EndChar

StartChar: onequarter
Encoding: 188 188 126
Width: 1816
GlyphClass: 2
Flags: W
LayerCount: 2
Fore
SplineSet
1402 946 m 1,0,-1
 1530 915 l 1,1,-1
 1530 145 l 1,2,-1
 1681 145 l 1,3,-1
 1681 34 l 1,4,-1
 1530 34 l 1,5,-1
 1530 -227 l 1,6,-1
 1385 -250 l 1,7,-1
 1385 34 l 1,8,-1
 860 34 l 1,9,-1
 838 144 l 1,10,-1
 1402 946 l 1,0,-1
997 144 m 1,11,-1
 1385 144 l 1,12,-1
 1385 703 l 1,13,-1
 1263 514 l 1,14,-1
 997 144 l 1,11,-1
345 568 m 1,15,-1
 345 1413 l 1,16,-1
 175 1341 l 1,17,-1
 137 1434 l 1,18,-1
 375 1529 l 1,19,-1
 505 1503 l 1,20,-1
 505 568 l 1,21,-1
 345 568 l 1,15,-1
233 -30 m 1,22,-1
 1272 1365 l 1,23,-1
 1394 1272 l 1,24,-1
 353 -123 l 1,25,-1
 233 -30 l 1,22,-1
EndSplineSet
EndChar

StartChar: onehalf
Encoding: 189 189 127
Width: 2068
GlyphClass: 2
Flags: W
LayerCount: 2
Fore
SplineSet
401 568 m 1,0,-1
 401 1413 l 1,1,-1
 231 1341 l 1,2,-1
 193 1434 l 1,3,-1
 431 1529 l 1,4,-1
 561 1503 l 1,5,-1
 561 568 l 1,6,-1
 401 568 l 1,0,-1
263 -30 m 1,7,-1
 1302 1365 l 1,8,-1
 1424 1272 l 1,9,-1
 383 -123 l 1,10,-1
 263 -30 l 1,7,-1
1435 -20 m 1,11,-1
 1841 -20 l 1,12,-1
 1841 -172 l 1,13,-1
 1203 -172 l 1,14,-1
 1203 -35 l 1,15,-1
 1474 205 l 2,16,17
 1542 265 1542 265 1585.5 307.5 c 128,-1,18
 1629 350 1629 350 1653.5 384.5 c 128,-1,19
 1678 419 1678 419 1687.5 449 c 128,-1,20
 1697 479 1697 479 1697 514 c 0,21,22
 1697 584 1697 584 1645 619.5 c 128,-1,23
 1593 655 1593 655 1508 655 c 0,24,25
 1479 655 1479 655 1443 650.5 c 128,-1,26
 1407 646 1407 646 1371.5 639 c 128,-1,27
 1336 632 1336 632 1303.5 624.5 c 128,-1,28
 1271 617 1271 617 1250 611 c 2,29,-1
 1220 603 l 1,30,-1
 1220 748 l 1,31,32
 1268 765 1268 765 1341.5 781.5 c 128,-1,33
 1415 798 1415 798 1526 798 c 0,34,35
 1626 798 1626 798 1692 770 c 128,-1,36
 1758 742 1758 742 1797.5 700 c 128,-1,37
 1837 658 1837 658 1853 608.5 c 128,-1,38
 1869 559 1869 559 1869 517 c 0,39,40
 1869 469 1869 469 1857 426.5 c 128,-1,41
 1845 384 1845 384 1817 340.5 c 128,-1,42
 1789 297 1789 297 1742.5 249 c 128,-1,43
 1696 201 1696 201 1626 142 c 2,44,-1
 1435 -20 l 1,11,-1
EndSplineSet
EndChar

StartChar: threequarters
Encoding: 190 190 128
Width: 2159
GlyphClass: 2
Flags: W
LayerCount: 2
Fore
SplineSet
1708 946 m 1,0,-1
 1836 915 l 1,1,-1
 1836 145 l 1,2,-1
 1987 145 l 1,3,-1
 1987 34 l 1,4,-1
 1836 34 l 1,5,-1
 1836 -227 l 1,6,-1
 1691 -250 l 1,7,-1
 1691 34 l 1,8,-1
 1166 34 l 1,9,-1
 1144 144 l 1,10,-1
 1708 946 l 1,0,-1
1303 144 m 1,11,-1
 1691 144 l 1,12,-1
 1691 703 l 1,13,-1
 1569 514 l 1,14,-1
 1303 144 l 1,11,-1
539 -30 m 1,15,-1
 1569 1365 l 1,16,-1
 1700 1272 l 1,17,-1
 659 -123 l 1,18,-1
 539 -30 l 1,15,-1
723 1383 m 1,19,20
 723 1458 723 1458 668.5 1499.5 c 128,-1,21
 614 1541 614 1541 499 1541 c 0,22,23
 470 1541 470 1541 439.5 1536.5 c 128,-1,24
 409 1532 409 1532 381 1525.5 c 128,-1,25
 353 1519 353 1519 330 1511.5 c 128,-1,26
 307 1504 307 1504 294 1498 c 2,27,-1
 265 1484 l 1,28,-1
 218 1611 l 1,29,30
 220 1612 220 1612 243.5 1622.5 c 128,-1,31
 267 1633 267 1633 306 1645 c 128,-1,32
 345 1657 345 1657 396 1667 c 128,-1,33
 447 1677 447 1677 504 1677 c 0,34,35
 541 1677 541 1677 583 1671.5 c 128,-1,36
 625 1666 625 1666 666.5 1653.5 c 128,-1,37
 708 1641 708 1641 746 1620 c 128,-1,38
 784 1599 784 1599 813 1567.5 c 128,-1,39
 842 1536 842 1536 859.5 1493 c 128,-1,40
 877 1450 877 1450 877 1394 c 0,41,42
 876 1324 876 1324 848 1276 c 128,-1,43
 820 1228 820 1228 781.5 1198 c 128,-1,44
 743 1168 743 1168 701.5 1155 c 128,-1,45
 660 1142 660 1142 632 1142 c 1,46,47
 657 1137 657 1137 687 1127.5 c 128,-1,48
 717 1118 717 1118 747.5 1102.5 c 128,-1,49
 778 1087 778 1087 806.5 1063.5 c 128,-1,50
 835 1040 835 1040 857 1007.5 c 128,-1,51
 879 975 879 975 893 932.5 c 128,-1,52
 907 890 907 890 908 835 c 1,53,54
 908 755 908 755 871.5 698.5 c 128,-1,55
 835 642 835 642 777 607 c 128,-1,56
 719 572 719 572 647.5 556 c 128,-1,57
 576 540 576 540 507 540 c 0,58,59
 455 540 455 540 407.5 548 c 128,-1,60
 360 556 360 556 321 567 c 128,-1,61
 282 578 282 578 252.5 590 c 128,-1,62
 223 602 223 602 207 610 c 2,63,-1
 191 618 l 1,64,-1
 242 745 l 1,65,-1
 264 734 l 2,66,67
 280 726 280 726 306.5 715 c 128,-1,68
 333 704 333 704 366.5 694.5 c 128,-1,69
 400 685 400 685 439.5 678.5 c 128,-1,70
 479 672 479 672 522 672 c 0,71,72
 570 673 570 673 610.5 686 c 128,-1,73
 651 699 651 699 680.5 722.5 c 128,-1,74
 710 746 710 746 726 779 c 128,-1,75
 742 812 742 812 742 853 c 0,76,77
 742 947 742 947 679 1002 c 128,-1,78
 616 1057 616 1057 480 1072 c 1,79,-1
 480 1207 l 1,80,81
 526 1207 526 1207 569.5 1217.5 c 128,-1,82
 613 1228 613 1228 646.5 1249.5 c 128,-1,83
 680 1271 680 1271 701 1304.5 c 128,-1,84
 722 1338 722 1338 723 1383 c 1,19,20
EndSplineSet
EndChar

StartChar: questiondown
Encoding: 191 191 129
Width: 1232
GlyphClass: 2
Flags: W
LayerCount: 2
Fore
SplineSet
837 1505 m 0,0,1
 859 1505 859 1505 878 1496.5 c 128,-1,2
 897 1488 897 1488 911 1473 c 128,-1,3
 925 1458 925 1458 933 1438 c 128,-1,4
 941 1418 941 1418 941 1395 c 0,5,6
 941 1373 941 1373 931.5 1355 c 128,-1,7
 922 1337 922 1337 907 1324 c 128,-1,8
 892 1311 892 1311 872.5 1303.5 c 128,-1,9
 853 1296 853 1296 833 1296 c 0,10,11
 812 1296 812 1296 794 1304.5 c 128,-1,12
 776 1313 776 1313 762 1327.5 c 128,-1,13
 748 1342 748 1342 740 1361 c 128,-1,14
 732 1380 732 1380 732 1401 c 0,15,16
 732 1423 732 1423 740.5 1442 c 128,-1,17
 749 1461 749 1461 763 1475 c 128,-1,18
 777 1489 777 1489 796.5 1497 c 128,-1,19
 816 1505 816 1505 837 1505 c 0,0,1
738 1173 m 1,20,-1
 918 1173 l 1,21,-1
 918 688 l 1,22,23
 787 642 787 642 689.5 599 c 128,-1,24
 592 556 592 556 527 507.5 c 128,-1,25
 462 459 462 459 429.5 401 c 128,-1,26
 397 343 397 343 395 268 c 1,27,28
 395 206 395 206 413 164 c 128,-1,29
 431 122 431 122 468.5 96 c 128,-1,30
 506 70 506 70 565 58.5 c 128,-1,31
 624 47 624 47 706 47 c 0,32,33
 777 47 777 47 837.5 59.5 c 128,-1,34
 898 72 898 72 941.5 88 c 128,-1,35
 985 104 985 104 1009.5 117.5 c 128,-1,36
 1034 131 1034 131 1034 133 c 2,37,-1
 1093 -10 l 2,38,39
 1093 -9 1093 -9 1062.5 -25.5 c 128,-1,40
 1032 -42 1032 -42 978 -61.5 c 128,-1,41
 924 -81 924 -81 849.5 -97.5 c 128,-1,42
 775 -114 775 -114 687 -114 c 0,43,44
 584 -114 584 -114 496 -94.5 c 128,-1,45
 408 -75 408 -75 343 -31.5 c 128,-1,46
 278 12 278 12 241 81 c 128,-1,47
 204 150 204 150 204 249 c 0,48,49
 204 337 204 337 229.5 406.5 c 128,-1,50
 255 476 255 476 297.5 530 c 128,-1,51
 340 584 340 584 395.5 624.5 c 128,-1,52
 451 665 451 665 510.5 696 c 128,-1,53
 570 727 570 727 629 749.5 c 128,-1,54
 688 772 688 772 738 790 c 1,55,-1
 738 1173 l 1,20,-1
EndSplineSet
EndChar

StartChar: AE
Encoding: 198 198 136
Width: 1935
GlyphClass: 2
Flags: W
LayerCount: 2
Fore
SplineSet
1845 0 m 1,0,-1
 1006 0 l 1,1,-1
 1006 371 l 1,2,-1
 454 371 l 1,3,-1
 262 0 l 1,4,-1
 53 0 l 1,5,-1
 879 1579 l 1,6,-1
 1817 1579 l 1,7,-1
 1817 1436 l 1,8,-1
 1169 1436 l 1,9,-1
 1169 891 l 1,10,-1
 1774 891 l 1,11,-1
 1774 764 l 1,12,-1
 1171 764 l 1,13,-1
 1171 143 l 1,14,-1
 1845 143 l 1,15,-1
 1845 0 l 1,0,-1
1004 1459 m 1,16,-1
 514 493 l 1,17,-1
 1004 493 l 1,18,-1
 1004 1459 l 1,16,-1
EndSplineSet
EndChar

StartChar: Eth
Encoding: 208 208 146
Width: 1492
GlyphClass: 2
Flags: W
LayerCount: 2
Fore
SplineSet
709 1579 m 1,0,1
 1046 1572 1046 1572 1207 1372.5 c 128,-1,2
 1368 1173 1368 1173 1368 788 c 0,3,4
 1368 0 1368 0 709 0 c 2,5,-1
 156 0 l 1,6,-1
 156 764 l 1,7,-1
 -6 764 l 1,8,-1
 -6 895 l 1,9,-1
 156 895 l 1,10,-1
 156 1579 l 1,11,-1
 709 1579 l 1,0,1
584 764 m 1,12,-1
 350 764 l 1,13,-1
 350 143 l 1,14,-1
 709 143 l 2,15,16
 847 143 847 143 936 192 c 128,-1,17
 1025 241 1025 241 1076 327.5 c 128,-1,18
 1127 414 1127 414 1147 532.5 c 128,-1,19
 1167 651 1167 651 1167 789 c 0,20,21
 1167 932 1167 932 1145.5 1051 c 128,-1,22
 1124 1170 1124 1170 1071.5 1255.5 c 128,-1,23
 1019 1341 1019 1341 930.5 1388.5 c 128,-1,24
 842 1436 842 1436 709 1436 c 2,25,-1
 350 1436 l 1,26,-1
 350 895 l 1,27,-1
 584 895 l 1,28,-1
 584 764 l 1,12,-1
EndSplineSet
EndChar

StartChar: multiply
Encoding: 215 215 153
Width: 1365
GlyphClass: 2
Flags: W
LayerCount: 2
Fore
SplineSet
278 863 m 1,0,-1
 380 965 l 1,1,-1
 697 648 l 1,2,-1
 1014 965 l 1,3,-1
 1116 863 l 1,4,-1
 799 546 l 1,5,-1
 1116 229 l 1,6,-1
 1014 127 l 1,7,-1
 697 444 l 1,8,-1
 380 127 l 1,9,-1
 278 229 l 1,10,-1
 595 546 l 1,11,-1
 278 863 l 1,0,-1
EndSplineSet
EndChar

StartChar: Oslash
Encoding: 216 216 154
Width: 1559
GlyphClass: 2
Flags: W
LayerCount: 2
Fore
SplineSet
1435 784 m 0,0,1
 1435 609 1435 609 1400.5 458.5 c 128,-1,2
 1366 308 1366 308 1288.5 197 c 128,-1,3
 1211 86 1211 86 1085.5 22.5 c 128,-1,4
 960 -41 960 -41 779 -41 c 0,5,6
 722 -41 722 -41 657 -33 c 128,-1,7
 592 -25 592 -25 523 0 c 1,8,-1
 451 -159 l 1,9,-1
 350 -113 l 1,10,-1
 423 49 l 1,11,12
 362 90 362 90 307.5 149.5 c 128,-1,13
 253 209 253 209 212.5 296 c 128,-1,14
 172 383 172 383 148 503 c 128,-1,15
 124 623 124 623 124 784 c 0,16,17
 124 965 124 965 155.5 1096.5 c 128,-1,18
 187 1228 187 1228 238.5 1320 c 128,-1,19
 290 1412 290 1412 357 1468.5 c 128,-1,20
 424 1525 424 1525 495 1556.5 c 128,-1,21
 566 1588 566 1588 636.5 1599 c 128,-1,22
 707 1610 707 1610 765 1610 c 0,23,24
 962 1610 962 1610 1097 1538 c 1,25,-1
 1175 1710 l 1,26,-1
 1276 1668 l 1,27,-1
 1190 1477 l 1,28,29
 1256 1424 1256 1424 1302.5 1351 c 128,-1,30
 1349 1278 1349 1278 1378.5 1189 c 128,-1,31
 1408 1100 1408 1100 1421.5 997.5 c 128,-1,32
 1435 895 1435 895 1435 784 c 0,0,1
969 1423 m 0,33,34
 882 1458 882 1458 780 1458 c 0,35,36
 690 1458 690 1458 621 1434 c 128,-1,37
 552 1410 552 1410 501.5 1366.5 c 128,-1,38
 451 1323 451 1323 417 1262 c 128,-1,39
 383 1201 383 1201 362.5 1126 c 128,-1,40
 342 1051 342 1051 333.5 964.5 c 128,-1,41
 325 878 325 878 325 784 c 0,42,43
 325 565 325 565 369 426 c 128,-1,44
 413 287 413 287 496 209 c 1,45,-1
 1030 1390 l 1,46,47
 1016 1400 1016 1400 1000.5 1408 c 128,-1,48
 985 1416 985 1416 969 1423 c 0,33,34
1234 784 m 0,49,50
 1234 971 1234 971 1203 1099 c 128,-1,51
 1172 1227 1172 1227 1113 1307 c 1,52,-1
 589 147 l 1,53,-1
 591 147 l 1,54,55
 675 111 675 111 780 111 c 0,56,57
 873 111 873 111 943 136.5 c 128,-1,58
 1013 162 1013 162 1063 208 c 128,-1,59
 1113 254 1113 254 1146.5 317 c 128,-1,60
 1180 380 1180 380 1199 454.5 c 128,-1,61
 1218 529 1218 529 1226 613 c 128,-1,62
 1234 697 1234 697 1234 784 c 0,49,50
EndSplineSet
EndChar

StartChar: Thorn
Encoding: 222 222 160
Width: 1456
GlyphClass: 2
Flags: W
LayerCount: 2
Fore
SplineSet
1245 973 m 0,0,1
 1245 868 1245 868 1211 781.5 c 128,-1,2
 1177 695 1177 695 1093.5 633.5 c 128,-1,3
 1010 572 1010 572 868.5 538 c 128,-1,4
 727 504 727 504 512 504 c 2,5,-1
 350 504 l 1,6,-1
 350 0 l 1,7,-1
 156 0 l 1,8,-1
 156 1579 l 1,9,-1
 350 1579 l 1,10,-1
 350 1444 l 1,11,-1
 547 1444 l 2,12,13
 690 1444 690 1444 797 1429.5 c 128,-1,14
 904 1415 904 1415 981.5 1387 c 128,-1,15
 1059 1359 1059 1359 1110 1318 c 128,-1,16
 1161 1277 1161 1277 1191 1225 c 128,-1,17
 1221 1173 1221 1173 1233 1109.5 c 128,-1,18
 1245 1046 1245 1046 1245 973 c 0,0,1
512 649 m 2,19,20
 633 649 633 649 720.5 660 c 128,-1,21
 808 671 808 671 869.5 691 c 128,-1,22
 931 711 931 711 969 739 c 128,-1,23
 1007 767 1007 767 1027.5 801.5 c 128,-1,24
 1048 836 1048 836 1055.5 875.5 c 128,-1,25
 1063 915 1063 915 1063 959 c 0,26,27
 1063 1054 1063 1054 1043 1118.5 c 128,-1,28
 1023 1183 1023 1183 967.5 1222.5 c 128,-1,29
 912 1262 912 1262 814 1280 c 128,-1,30
 716 1298 716 1298 559 1300 c 1,31,-1
 350 1300 l 1,32,-1
 350 649 l 1,33,-1
 512 649 l 2,19,20
EndSplineSet
EndChar

StartChar: germandbls
Encoding: 223 223 161
Width: 1396
GlyphClass: 2
Flags: W
LayerCount: 2
Fore
SplineSet
512 905 m 1,0,1
 612 911 612 911 679.5 918 c 128,-1,2
 747 925 747 925 781 934 c 0,3,4
 825 946 825 946 855.5 966 c 128,-1,5
 886 986 886 986 904.5 1017.5 c 128,-1,6
 923 1049 923 1049 931.5 1093.5 c 128,-1,7
 940 1138 940 1138 940 1200 c 0,8,9
 940 1268 940 1268 918 1313.5 c 128,-1,10
 896 1359 896 1359 854.5 1386 c 128,-1,11
 813 1413 813 1413 753.5 1424.5 c 128,-1,12
 694 1436 694 1436 619 1436 c 0,13,14
 532 1436 532 1436 478 1412.5 c 128,-1,15
 424 1389 424 1389 394 1339 c 128,-1,16
 364 1289 364 1289 354 1209.5 c 128,-1,17
 344 1130 344 1130 344 1018 c 2,18,-1
 344 0 l 1,19,-1
 150 0 l 1,20,-1
 150 991 l 2,21,22
 150 1005 150 1005 149.5 1018.5 c 128,-1,23
 149 1032 149 1032 149 1046 c 0,24,25
 149 1181 149 1181 174.5 1281 c 128,-1,26
 200 1381 200 1381 256 1447.5 c 128,-1,27
 312 1514 312 1514 401.5 1546.5 c 128,-1,28
 491 1579 491 1579 619 1579 c 0,29,30
 1112 1579 1112 1579 1112 1176 c 0,31,32
 1112 1107 1112 1107 1096 1049 c 128,-1,33
 1080 991 1080 991 1049 948 c 128,-1,34
 1018 905 1018 905 972 878 c 128,-1,35
 926 851 926 851 866 844 c 1,36,37
 960 844 960 844 1038.5 814.5 c 128,-1,38
 1117 785 1117 785 1174 728.5 c 128,-1,39
 1231 672 1231 672 1262.5 589 c 128,-1,40
 1294 506 1294 506 1294 399 c 2,41,-1
 1294 395 l 2,42,43
 1294 291 1294 291 1263.5 211.5 c 128,-1,44
 1233 132 1233 132 1178.5 74 c 128,-1,45
 1124 16 1124 16 1050.5 -23 c 128,-1,46
 977 -62 977 -62 891 -85.5 c 128,-1,47
 805 -109 805 -109 710.5 -119 c 128,-1,48
 616 -129 616 -129 520 -129 c 1,49,-1
 520 27 l 1,50,51
 648 27 648 27 742 40.5 c 128,-1,52
 836 54 836 54 901.5 79 c 128,-1,53
 967 104 967 104 1008 140 c 128,-1,54
 1049 176 1049 176 1072.5 220 c 128,-1,55
 1096 264 1096 264 1104 315.5 c 128,-1,56
 1112 367 1112 367 1112 424 c 2,57,-1
 1112 432 l 2,58,59
 1112 509 1112 509 1082 572 c 128,-1,60
 1052 635 1052 635 984.5 680 c 128,-1,61
 917 725 917 725 807.5 749.5 c 128,-1,62
 698 774 698 774 539 774 c 2,63,-1
 488 774 l 1,64,-1
 488 905 l 1,65,-1
 512 905 l 1,0,1
EndSplineSet
EndChar

StartChar: ae
Encoding: 230 230 168
Width: 1922
GlyphClass: 2
Flags: W
LayerCount: 2
Fore
SplineSet
864 713 m 2,0,1
 864 809 864 809 854.5 873 c 128,-1,2
 845 937 845 937 817.5 976 c 128,-1,3
 790 1015 790 1015 740.5 1031 c 128,-1,4
 691 1047 691 1047 612 1047 c 0,5,6
 557 1047 557 1047 501 1035 c 128,-1,7
 445 1023 445 1023 395.5 1005.5 c 128,-1,8
 346 988 346 988 307.5 968.5 c 128,-1,9
 269 949 269 949 249 934 c 1,10,-1
 182 1059 l 1,11,12
 213 1086 213 1086 264.5 1109.5 c 128,-1,13
 316 1133 316 1133 375 1151 c 128,-1,14
 434 1169 434 1169 494 1179.5 c 128,-1,15
 554 1190 554 1190 602 1190 c 0,16,17
 683 1190 683 1190 746 1178 c 128,-1,18
 809 1166 809 1166 856 1140 c 128,-1,19
 903 1114 903 1114 934.5 1072 c 128,-1,20
 966 1030 966 1030 984 970 c 1,21,22
 1011 1025 1011 1025 1052.5 1066.5 c 128,-1,23
 1094 1108 1094 1108 1145.5 1135.5 c 128,-1,24
 1197 1163 1197 1163 1256.5 1176.5 c 128,-1,25
 1316 1190 1316 1190 1379 1190 c 0,26,27
 1487 1190 1487 1190 1569.5 1153 c 128,-1,28
 1652 1116 1652 1116 1708 1048.5 c 128,-1,29
 1764 981 1764 981 1793 886 c 128,-1,30
 1822 791 1822 791 1822 676 c 0,31,32
 1822 652 1822 652 1820 625 c 128,-1,33
 1818 598 1818 598 1814 567 c 1,34,-1
 1054 567 l 1,35,36
 1054 468 1054 468 1070 386.5 c 128,-1,37
 1086 305 1086 305 1126 247.5 c 128,-1,38
 1166 190 1166 190 1232.5 158.5 c 128,-1,39
 1299 127 1299 127 1400 127 c 0,40,41
 1569 127 1569 127 1706 244 c 1,42,-1
 1768 99 l 1,43,44
 1730 71 1730 71 1679.5 48.5 c 128,-1,45
 1629 26 1629 26 1576.5 10 c 128,-1,46
 1524 -6 1524 -6 1474.5 -14.5 c 128,-1,47
 1425 -23 1425 -23 1388 -23 c 0,48,49
 1234 -23 1234 -23 1126.5 36 c 128,-1,50
 1019 95 1019 95 955 207 c 1,51,52
 922 163 922 163 875.5 121.5 c 128,-1,53
 829 80 829 80 772 48 c 128,-1,54
 715 16 715 16 648.5 -3.5 c 128,-1,55
 582 -23 582 -23 508 -23 c 0,56,57
 415 -23 415 -23 342 0.5 c 128,-1,58
 269 24 269 24 219 70 c 128,-1,59
 169 116 169 116 142.5 183.5 c 128,-1,60
 116 251 116 251 116 339 c 2,61,-1
 116 343 l 2,62,63
 116 432 116 432 148 501.5 c 128,-1,64
 180 571 180 571 238 618.5 c 128,-1,65
 296 666 296 666 378 690.5 c 128,-1,66
 460 715 460 715 560 715 c 0,67,68
 594 715 594 715 636.5 711 c 128,-1,69
 679 707 679 707 721.5 700 c 128,-1,70
 764 693 764 693 802 684 c 128,-1,71
 840 675 840 675 864 665 c 1,72,-1
 864 713 l 2,0,1
1654 717 m 2,73,74
 1654 827 1654 827 1626.5 894 c 128,-1,75
 1599 961 1599 961 1558 997 c 128,-1,76
 1517 1033 1517 1033 1469 1045 c 128,-1,77
 1421 1057 1421 1057 1380 1057 c 0,78,79
 1348 1057 1348 1057 1312 1051.5 c 128,-1,80
 1276 1046 1276 1046 1239.5 1031 c 128,-1,81
 1203 1016 1203 1016 1169.5 989.5 c 128,-1,82
 1136 963 1136 963 1110.5 921 c 128,-1,83
 1085 879 1085 879 1069.5 820.5 c 128,-1,84
 1054 762 1054 762 1054 682 c 1,85,-1
 1654 682 l 1,86,-1
 1654 717 l 2,73,74
555 119 m 0,87,88
 700 119 700 119 864 271 c 1,89,-1
 864 569 l 1,90,91
 733 590 733 590 629 590 c 0,92,93
 532 590 532 590 469.5 573 c 128,-1,94
 407 556 407 556 371 525.5 c 128,-1,95
 335 495 335 495 321 451.5 c 128,-1,96
 307 408 307 408 307 356 c 0,97,98
 307 292 307 292 321.5 247 c 128,-1,99
 336 202 336 202 366.5 173.5 c 128,-1,100
 397 145 397 145 443.5 132 c 128,-1,101
 490 119 490 119 555 119 c 0,87,88
EndSplineSet
EndChar

StartChar: igrave
Encoding: 236 236 173
Width: 600
GlyphClass: 2
Flags: W
LayerCount: 2
Fore
SplineSet
349 1338 m 1,0,-1
 282 1312 l 1,1,-1
 -46 1867 l 1,2,-1
 196 1956 l 1,3,-1
 349 1338 l 1,0,-1
408 0 m 1,4,-1
 226 0 l 1,5,-1
 226 1169 l 1,6,-1
 408 1169 l 1,7,-1
 408 0 l 1,4,-1
EndSplineSet
EndChar

StartChar: iacute
Encoding: 237 237 174
Width: 600
GlyphClass: 2
Flags: W
LayerCount: 2
Fore
SplineSet
344 1312 m 1,0,-1
 287 1338 l 1,1,-1
 446 1949 l 1,2,-1
 678 1858 l 1,3,-1
 344 1312 l 1,0,-1
408 0 m 1,4,-1
 226 0 l 1,5,-1
 226 1169 l 1,6,-1
 408 1169 l 1,7,-1
 408 0 l 1,4,-1
EndSplineSet
EndChar

StartChar: icircumflex
Encoding: 238 238 175
Width: 600
GlyphClass: 2
Flags: W
LayerCount: 2
Fore
SplineSet
104 1342 m 1,0,-1
 -24 1420 l 1,1,-1
 268 1921 l 1,2,-1
 364 1921 l 1,3,-1
 656 1420 l 1,4,-1
 528 1342 l 1,5,-1
 316 1719 l 1,6,-1
 104 1342 l 1,0,-1
408 0 m 1,7,-1
 226 0 l 1,8,-1
 226 1169 l 1,9,-1
 408 1169 l 1,10,-1
 408 0 l 1,7,-1
EndSplineSet
EndChar

StartChar: idieresis
Encoding: 239 239 176
Width: 600
GlyphClass: 2
Flags: W
LayerCount: 2
Fore
SplineSet
568 1550 m 0,0,1
 616 1550 616 1550 646 1516.5 c 128,-1,2
 676 1483 676 1483 676 1435 c 256,3,4
 676 1387 676 1387 646 1353.5 c 128,-1,5
 616 1320 616 1320 568 1320 c 0,6,7
 543 1320 543 1320 522.5 1329 c 128,-1,8
 502 1338 502 1338 487 1354 c 128,-1,9
 472 1370 472 1370 464 1391 c 128,-1,10
 456 1412 456 1412 456 1435 c 256,11,12
 456 1458 456 1458 464 1479 c 128,-1,13
 472 1500 472 1500 487 1515.5 c 128,-1,14
 502 1531 502 1531 522.5 1540.5 c 128,-1,15
 543 1550 543 1550 568 1550 c 0,0,1
78 1550 m 0,16,17
 126 1550 126 1550 156 1516.5 c 128,-1,18
 186 1483 186 1483 186 1435 c 256,19,20
 186 1387 186 1387 156 1353.5 c 128,-1,21
 126 1320 126 1320 78 1320 c 0,22,23
 53 1320 53 1320 32.5 1329 c 128,-1,24
 12 1338 12 1338 -3 1354 c 128,-1,25
 -18 1370 -18 1370 -26 1391 c 128,-1,26
 -34 1412 -34 1412 -34 1435 c 256,27,28
 -34 1458 -34 1458 -26 1479 c 128,-1,29
 -18 1500 -18 1500 -3 1515.5 c 128,-1,30
 12 1531 12 1531 32.5 1540.5 c 128,-1,31
 53 1550 53 1550 78 1550 c 0,16,17
408 0 m 1,32,-1
 226 0 l 1,33,-1
 226 1169 l 1,34,-1
 408 1169 l 1,35,-1
 408 0 l 1,32,-1
EndSplineSet
EndChar

StartChar: eth
Encoding: 240 240 177
Width: 1259
GlyphClass: 2
Flags: W
LayerCount: 2
Fore
SplineSet
1131 690 m 0,0,1
 1131 -20 1131 -20 598 -20 c 0,2,3
 469 -20 469 -20 377.5 29 c 128,-1,4
 286 78 286 78 227.5 161 c 128,-1,5
 169 244 169 244 141.5 353.5 c 128,-1,6
 114 463 114 463 114 584 c 0,7,8
 114 708 114 708 143.5 818 c 128,-1,9
 173 928 173 928 231 1010.5 c 128,-1,10
 289 1093 289 1093 375.5 1141.5 c 128,-1,11
 462 1190 462 1190 576 1190 c 0,12,13
 634 1190 634 1190 689.5 1175.5 c 128,-1,14
 745 1161 745 1161 793 1138 c 128,-1,15
 841 1115 841 1115 879.5 1086 c 128,-1,16
 918 1057 918 1057 941 1028 c 1,17,18
 912 1116 912 1116 858 1204.5 c 128,-1,19
 804 1293 804 1293 732 1380 c 1,20,-1
 497 1311 l 1,21,-1
 455 1401 l 1,22,-1
 658 1461 l 1,23,24
 604 1515 604 1515 549.5 1559.5 c 128,-1,25
 495 1604 495 1604 437 1641 c 1,26,-1
 521 1743 l 1,27,28
 587 1706 587 1706 658 1652.5 c 128,-1,29
 729 1599 729 1599 796 1529 c 2,30,-1
 816 1508 l 1,31,-1
 1103 1593 l 1,32,-1
 1145 1503 l 1,33,-1
 885 1426 l 1,34,35
 895 1412 895 1412 905 1398.5 c 128,-1,36
 915 1385 915 1385 925 1371 c 0,37,38
 970 1306 970 1306 1008 1231 c 128,-1,39
 1046 1156 1046 1156 1073 1070.5 c 128,-1,40
 1100 985 1100 985 1115.5 890 c 128,-1,41
 1131 795 1131 795 1131 690 c 0,0,1
947 666 m 0,42,43
 947 742 947 742 931.5 800 c 128,-1,44
 916 858 916 858 889.5 900 c 128,-1,45
 863 942 863 942 829.5 970.5 c 128,-1,46
 796 999 796 999 759.5 1016 c 128,-1,47
 723 1033 723 1033 687 1040 c 128,-1,48
 651 1047 651 1047 620 1047 c 0,49,50
 582 1047 582 1047 543 1041 c 128,-1,51
 504 1035 504 1035 468 1017.5 c 128,-1,52
 432 1000 432 1000 400.5 968.5 c 128,-1,53
 369 937 369 937 346 886 c 128,-1,54
 323 835 323 835 309.5 761.5 c 128,-1,55
 296 688 296 688 296 587 c 0,56,57
 296 123 296 123 594 123 c 0,58,59
 679 123 679 123 744.5 150.5 c 128,-1,60
 810 178 810 178 855 241.5 c 128,-1,61
 900 305 900 305 923.5 409 c 128,-1,62
 947 513 947 513 947 666 c 0,42,43
EndSplineSet
EndChar

StartChar: divide
Encoding: 247 247 184
Width: 1068
GlyphClass: 2
Flags: W
LayerCount: 2
Fore
SplineSet
563 950 m 0,0,1
 611 950 611 950 641 916.5 c 128,-1,2
 671 883 671 883 671 835 c 256,3,4
 671 787 671 787 641 753.5 c 128,-1,5
 611 720 611 720 563 720 c 0,6,7
 538 720 538 720 517.5 729 c 128,-1,8
 497 738 497 738 482 754 c 128,-1,9
 467 770 467 770 459 791 c 128,-1,10
 451 812 451 812 451 835 c 256,11,12
 451 858 451 858 459 879 c 128,-1,13
 467 900 467 900 482 915.5 c 128,-1,14
 497 931 497 931 517.5 940.5 c 128,-1,15
 538 950 538 950 563 950 c 0,0,1
906 508 m 1,16,-1
 224 508 l 1,17,-1
 224 639 l 1,18,-1
 906 639 l 1,19,-1
 906 508 l 1,16,-1
561 415 m 0,20,21
 609 415 609 415 639 381.5 c 128,-1,22
 669 348 669 348 669 300 c 256,23,24
 669 252 669 252 639 218.5 c 128,-1,25
 609 185 609 185 561 185 c 0,26,27
 536 185 536 185 515.5 194 c 128,-1,28
 495 203 495 203 480 219 c 128,-1,29
 465 235 465 235 457 256 c 128,-1,30
 449 277 449 277 449 300 c 256,31,32
 449 323 449 323 457 344 c 128,-1,33
 465 365 465 365 480 380.5 c 128,-1,34
 495 396 495 396 515.5 405.5 c 128,-1,35
 536 415 536 415 561 415 c 0,20,21
EndSplineSet
EndChar

StartChar: oslash
Encoding: 248 248 185
Width: 1283
GlyphClass: 2
Flags: W
LayerCount: 2
Fore
SplineSet
340 -168 m 1,0,-1
 407 28 l 1,1,2
 333 63 333 63 278.5 117.5 c 128,-1,3
 224 172 224 172 187 243 c 128,-1,4
 150 314 150 314 132 399.5 c 128,-1,5
 114 485 114 485 114 582 c 0,6,7
 114 703 114 703 145.5 813.5 c 128,-1,8
 177 924 177 924 242 1007.5 c 128,-1,9
 307 1091 307 1091 407 1140.5 c 128,-1,10
 507 1190 507 1190 644 1190 c 0,11,12
 727 1190 727 1190 802 1170 c 1,13,-1
 869 1365 l 1,14,-1
 950 1335 l 1,15,-1
 883 1140 l 1,16,17
 959 1101 959 1101 1014 1043.5 c 128,-1,18
 1069 986 1069 986 1105 914.5 c 128,-1,19
 1141 843 1141 843 1158 759 c 128,-1,20
 1175 675 1175 675 1175 582 c 0,21,22
 1175 458 1175 458 1143.5 348.5 c 128,-1,23
 1112 239 1112 239 1046.5 157 c 128,-1,24
 981 75 981 75 881 27.5 c 128,-1,25
 781 -20 781 -20 644 -20 c 0,26,27
 563 -20 563 -20 494 -2 c 1,28,-1
 428 -198 l 1,29,-1
 340 -168 l 1,0,-1
316 768 m 1,30,31
 296 674 296 674 296 582 c 0,32,33
 296 444 296 444 333 336.5 c 128,-1,34
 370 229 370 229 456 169 c 1,35,-1
 755 1035 l 1,36,37
 708 1051 708 1051 644 1051 c 0,38,39
 572 1051 572 1051 517 1030 c 128,-1,40
 462 1009 462 1009 422.5 971.5 c 128,-1,41
 383 934 383 934 357 882 c 128,-1,42
 331 830 331 830 316 768 c 1,30,31
644 117 m 0,43,44
 740 117 740 117 806.5 153.5 c 128,-1,45
 873 190 873 190 914.5 253 c 128,-1,46
 956 316 956 316 974 400.5 c 128,-1,47
 992 485 992 485 992 582 c 0,48,49
 992 650 992 650 983 712 c 128,-1,50
 974 774 974 774 955 827 c 128,-1,51
 936 880 936 880 906 923 c 128,-1,52
 876 966 876 966 834 996 c 1,53,-1
 539 130 l 1,54,55
 582 117 582 117 644 117 c 0,43,44
EndSplineSet
EndChar

StartChar: thorn
Encoding: 254 254 191
Width: 1277
GlyphClass: 2
Flags: W
LayerCount: 2
Fore
SplineSet
1163 584 m 0,0,1
 1163 468 1163 468 1136 359.5 c 128,-1,2
 1109 251 1109 251 1052 166.5 c 128,-1,3
 995 82 995 82 906 31 c 128,-1,4
 817 -20 817 -20 694 -20 c 0,5,6
 445 -20 445 -20 335 117 c 1,7,-1
 335 -465 l 1,8,-1
 149 -487 l 1,9,-1
 149 1565 l 1,10,-1
 333 1565 l 1,11,-1
 333 1004 l 1,12,13
 365 1044 365 1044 405 1078 c 128,-1,14
 445 1112 445 1112 491.5 1137 c 128,-1,15
 538 1162 538 1162 589 1176 c 128,-1,16
 640 1190 640 1190 694 1190 c 0,17,18
 779 1190 779 1190 846.5 1166 c 128,-1,19
 914 1142 914 1142 966 1100 c 128,-1,20
 1018 1058 1018 1058 1055.5 1000 c 128,-1,21
 1093 942 1093 942 1117 875 c 128,-1,22
 1141 808 1141 808 1152 733.5 c 128,-1,23
 1163 659 1163 659 1163 584 c 0,0,1
981 543 m 0,24,25
 981 597 981 597 977 655 c 128,-1,26
 973 713 973 713 961.5 769 c 128,-1,27
 950 825 950 825 930 875.5 c 128,-1,28
 910 926 910 926 878 964 c 128,-1,29
 846 1002 846 1002 801 1024.5 c 128,-1,30
 756 1047 756 1047 694 1047 c 0,31,32
 634 1047 634 1047 579.5 1028 c 128,-1,33
 525 1009 525 1009 480.5 983 c 128,-1,34
 436 957 436 957 404.5 931 c 128,-1,35
 373 905 373 905 358 890 c 1,36,-1
 342 244 l 1,37,38
 372 218 372 218 413.5 196 c 128,-1,39
 455 174 455 174 503 157.5 c 128,-1,40
 551 141 551 141 602 132 c 128,-1,41
 653 123 653 123 702 123 c 0,42,43
 737 123 737 123 774 133.5 c 128,-1,44
 811 144 811 144 845 169 c 128,-1,45
 879 194 879 194 907 236.5 c 128,-1,46
 935 279 935 279 952 343 c 0,47,48
 981 456 981 456 981 543 c 0,24,25
EndSplineSet
EndChar

StartChar: circumflex
Encoding: 710 710 200
Width: 1428
GlyphClass: 2
Flags: W
LayerCount: 2
Fore
SplineSet
714 809 m 1,0,-1
 502 432 l 1,1,-1
 374 510 l 1,2,-1
 666 1011 l 1,3,-1
 762 1011 l 1,4,-1
 1054 510 l 1,5,-1
 926 432 l 1,6,-1
 714 809 l 1,0,-1
EndSplineSet
EndChar

StartChar: caron
Encoding: 711 711 201
Width: 1428
GlyphClass: 2
Flags: W
LayerCount: 2
Fore
SplineSet
714 633 m 1,0,-1
 926 1010 l 1,1,-1
 1054 932 l 1,2,-1
 762 431 l 1,3,-1
 666 431 l 1,4,-1
 374 932 l 1,5,-1
 502 1010 l 1,6,-1
 714 633 l 1,0,-1
EndSplineSet
EndChar

StartChar: ring
Encoding: 730 730 202
Width: 1707
GlyphClass: 2
Flags: W
LayerCount: 2
Fore
SplineSet
612 1275 m 256,0,1
 612 1327 612 1327 630 1371 c 128,-1,2
 648 1415 648 1415 680 1447 c 128,-1,3
 712 1479 712 1479 756.5 1497 c 128,-1,4
 801 1515 801 1515 854 1515 c 256,5,6
 907 1515 907 1515 951.5 1497 c 128,-1,7
 996 1479 996 1479 1028 1447 c 128,-1,8
 1060 1415 1060 1415 1078 1371 c 128,-1,9
 1096 1327 1096 1327 1096 1275 c 256,10,11
 1096 1223 1096 1223 1078 1179 c 128,-1,12
 1060 1135 1060 1135 1028 1103 c 128,-1,13
 996 1071 996 1071 951.5 1053 c 128,-1,14
 907 1035 907 1035 854 1035 c 256,15,16
 801 1035 801 1035 756.5 1053 c 128,-1,17
 712 1071 712 1071 680 1103 c 128,-1,18
 648 1135 648 1135 630 1179 c 128,-1,19
 612 1223 612 1223 612 1275 c 256,0,1
999 1275 m 256,20,21
 999 1305 999 1305 988 1332.5 c 128,-1,22
 977 1360 977 1360 958 1380 c 128,-1,23
 939 1400 939 1400 912 1412 c 128,-1,24
 885 1424 885 1424 854 1424 c 0,25,26
 822 1424 822 1424 795.5 1412 c 128,-1,27
 769 1400 769 1400 750 1380 c 128,-1,28
 731 1360 731 1360 720 1332.5 c 128,-1,29
 709 1305 709 1305 709 1275 c 256,30,31
 709 1245 709 1245 720 1217.5 c 128,-1,32
 731 1190 731 1190 750 1170 c 128,-1,33
 769 1150 769 1150 795.5 1138 c 128,-1,34
 822 1126 822 1126 854 1126 c 0,35,36
 885 1126 885 1126 912 1138 c 128,-1,37
 939 1150 939 1150 958 1170 c 128,-1,38
 977 1190 977 1190 988 1217.5 c 128,-1,39
 999 1245 999 1245 999 1275 c 256,20,21
EndSplineSet
EndChar

StartChar: tilde
Encoding: 732 732 203
Width: 1707
GlyphClass: 2
Flags: W
LayerCount: 2
Fore
SplineSet
1039 1035 m 0,0,1
 983 1035 983 1035 931 1053.5 c 128,-1,2
 879 1072 879 1072 833.5 1094.5 c 128,-1,3
 788 1117 788 1117 750.5 1135.5 c 128,-1,4
 713 1154 713 1154 686 1154 c 0,5,6
 657 1154 657 1154 642 1129.5 c 128,-1,7
 627 1105 627 1105 627 1039 c 1,8,-1
 471 1039 l 1,9,10
 471 1299 471 1299 672 1299 c 0,11,12
 729 1299 729 1299 775 1279.5 c 128,-1,13
 821 1260 821 1260 862 1237 c 0,14,15
 904 1213 904 1213 941 1193.5 c 128,-1,16
 978 1174 978 1174 1016 1174 c 0,17,18
 1075 1174 1075 1174 1075 1285 c 1,19,-1
 1231 1285 l 1,20,21
 1231 1228 1231 1228 1217.5 1182 c 128,-1,22
 1204 1136 1204 1136 1179 1103.5 c 128,-1,23
 1154 1071 1154 1071 1118.5 1053 c 128,-1,24
 1083 1035 1083 1035 1039 1035 c 0,0,1
EndSplineSet
EndChar

StartChar: acutecomb
Encoding: 769 769 204
Width: 1097
GlyphClass: 2
Flags: W
LayerCount: 2
Fore
SplineSet
546 1639 m 1,0,-1
 489 1665 l 1,1,-1
 648 2276 l 1,2,-1
 880 2185 l 1,3,-1
 546 1639 l 1,0,-1
EndSplineSet
EndChar

StartChar: uni0306
Encoding: 774 774 205
Width: 780
GlyphClass: 2
Flags: W
LayerCount: 2
Fore
SplineSet
643 1638 m 1,0,1
 643 1527 643 1527 581.5 1463 c 128,-1,2
 520 1399 520 1399 385 1399 c 0,3,4
 316 1399 316 1399 266.5 1416.5 c 128,-1,5
 217 1434 217 1434 185 1466 c 128,-1,6
 153 1498 153 1498 138 1541.5 c 128,-1,7
 123 1585 123 1585 123 1638 c 1,8,-1
 240 1638 l 1,9,10
 240 1578 240 1578 279.5 1543.5 c 128,-1,11
 319 1509 319 1509 385 1509 c 256,12,13
 451 1509 451 1509 488.5 1543.5 c 128,-1,14
 526 1578 526 1578 526 1638 c 1,15,-1
 643 1638 l 1,0,1
EndSplineSet
EndChar

StartChar: uni0E81
Encoding: 3713 3713 206
Width: 1395
GlyphClass: 2
Flags: W
LayerCount: 2
Fore
SplineSet
884 1104 m 0,0,1
 1001 1104 1001 1104 1077.5 1076 c 128,-1,2
 1154 1048 1154 1048 1199 992.5 c 128,-1,3
 1244 937 1244 937 1262 853 c 128,-1,4
 1280 769 1280 769 1280 658 c 2,5,-1
 1280 0 l 1,6,-1
 1121 0 l 1,7,-1
 1121 711 l 2,8,9
 1121 783 1121 783 1113.5 838 c 128,-1,10
 1106 893 1106 893 1080.5 930.5 c 128,-1,11
 1055 968 1055 968 1007 987 c 128,-1,12
 959 1006 959 1006 879 1006 c 0,13,14
 852 1006 852 1006 823 999 c 128,-1,15
 794 992 794 992 764.5 981 c 128,-1,16
 735 970 735 970 706.5 956 c 128,-1,17
 678 942 678 942 653 927 c 0,18,19
 593 892 593 892 535 848 c 1,20,-1
 535 334 l 2,21,22
 535 274 535 274 525 214 c 128,-1,23
 515 154 515 154 487.5 106.5 c 128,-1,24
 460 59 460 59 411.5 29.5 c 128,-1,25
 363 0 363 0 287 0 c 0,26,27
 242 0 242 0 202.5 9 c 128,-1,28
 163 18 163 18 134 39 c 128,-1,29
 105 60 105 60 88 95 c 128,-1,30
 71 130 71 130 71 182 c 0,31,32
 71 223 71 223 86.5 257 c 128,-1,33
 102 291 102 291 128.5 315 c 128,-1,34
 155 339 155 339 190.5 352.5 c 128,-1,35
 226 366 226 366 267 367 c 0,36,37
 271 367 271 367 288.5 364.5 c 128,-1,38
 306 362 306 362 326 359 c 0,39,40
 349 355 349 355 377 352 c 1,41,-1
 377 766 l 1,42,43
 362 761 362 761 346 757 c 0,44,45
 332 753 332 753 316 750.5 c 128,-1,46
 300 748 300 748 284 748 c 0,47,48
 240 748 240 748 201 757.5 c 128,-1,49
 162 767 162 767 133 788 c 128,-1,50
 104 809 104 809 87 843 c 128,-1,51
 70 877 70 877 70 927 c 0,52,53
 70 972 70 972 87 1005.5 c 128,-1,54
 104 1039 104 1039 133 1060.5 c 128,-1,55
 162 1082 162 1082 200.5 1093 c 128,-1,56
 239 1104 239 1104 281 1104 c 0,57,58
 371 1104 371 1104 429 1065.5 c 128,-1,59
 487 1027 487 1027 514 952 c 1,60,61
 556 980 556 980 599 1007.5 c 128,-1,62
 642 1035 642 1035 687.5 1056.5 c 128,-1,63
 733 1078 733 1078 782 1091 c 128,-1,64
 831 1104 831 1104 884 1104 c 0,0,1
288 1009 m 0,65,66
 269 1009 269 1009 252 1005 c 128,-1,67
 235 1001 235 1001 222 991.5 c 128,-1,68
 209 982 209 982 201 967 c 128,-1,69
 193 952 193 952 193 931 c 0,70,71
 193 886 193 886 216.5 863.5 c 128,-1,72
 240 841 240 841 281 841 c 0,73,74
 304 841 304 841 327.5 847.5 c 128,-1,75
 351 854 351 854 377 867 c 1,76,77
 377 888 377 888 374 913 c 128,-1,78
 371 938 371 938 361.5 959 c 128,-1,79
 352 980 352 980 334.5 994.5 c 128,-1,80
 317 1009 317 1009 288 1009 c 0,65,66
281 94 m 0,81,82
 315 94 315 94 334 108.5 c 128,-1,83
 353 123 353 123 362.5 146.5 c 128,-1,84
 372 170 372 170 374.5 198 c 128,-1,85
 377 226 377 226 377 253 c 2,86,-1
 377 283 l 1,87,-1
 304 283 l 2,88,89
 194 283 194 283 194 182 c 0,90,91
 194 141 194 141 217.5 117.5 c 128,-1,92
 241 94 241 94 281 94 c 0,81,82
EndSplineSet
EndChar

StartChar: uni0E82
Encoding: 3714 3714 207
Width: 1225
GlyphClass: 2
Flags: W
LayerCount: 2
Fore
SplineSet
961 0 m 1,0,-1
 961 140 l 2,1,2
 961 172 961 172 944.5 196 c 128,-1,3
 928 220 928 220 891 220 c 0,4,5
 871 220 871 220 852.5 215.5 c 128,-1,6
 834 211 834 211 820 206 c 0,7,8
 803 200 803 200 788 192 c 1,9,-1
 477 49 l 2,10,11
 421 23 421 23 376 11.5 c 128,-1,12
 331 0 331 0 298 0 c 0,13,14
 254 0 254 0 215 14.5 c 128,-1,15
 176 29 176 29 146.5 55.5 c 128,-1,16
 117 82 117 82 100 119 c 128,-1,17
 83 156 83 156 83 202 c 0,18,19
 83 261 83 261 107 301.5 c 128,-1,20
 131 342 131 342 170 371 c 128,-1,21
 209 400 209 400 257.5 420 c 128,-1,22
 306 440 306 440 356 458 c 2,23,-1
 579 540 l 2,24,25
 660 570 660 570 729 593.5 c 128,-1,26
 798 617 798 617 849 645 c 128,-1,27
 900 673 900 673 929 711 c 128,-1,28
 958 749 958 749 958 807 c 0,29,30
 958 875 958 875 923 915 c 128,-1,31
 888 955 888 955 834.5 975.5 c 128,-1,32
 781 996 781 996 718 1001.5 c 128,-1,33
 655 1007 655 1007 598 1007 c 0,34,35
 383 1007 383 1007 286 934 c 1,36,37
 308 937 308 937 332 937 c 0,38,39
 376 937 376 937 413 925 c 128,-1,40
 450 913 450 913 477 889.5 c 128,-1,41
 504 866 504 866 519 830.5 c 128,-1,42
 534 795 534 795 534 748 c 256,43,44
 534 701 534 701 517 668 c 128,-1,45
 500 635 500 635 470.5 613 c 128,-1,46
 441 591 441 591 402 581 c 128,-1,47
 363 571 363 571 320 571 c 0,48,49
 210 571 210 571 153.5 628 c 128,-1,50
 97 685 97 685 97 797 c 0,51,52
 97 859 97 859 119.5 905.5 c 128,-1,53
 142 952 142 952 180 986 c 128,-1,54
 218 1020 218 1020 268 1042.5 c 128,-1,55
 318 1065 318 1065 373.5 1078 c 128,-1,56
 429 1091 429 1091 486.5 1096.5 c 128,-1,57
 544 1102 544 1102 597 1102 c 0,58,59
 649 1102 649 1102 707.5 1098.5 c 128,-1,60
 766 1095 766 1095 824 1084 c 128,-1,61
 882 1073 882 1073 935 1053 c 128,-1,62
 988 1033 988 1033 1029 1000 c 128,-1,63
 1070 967 1070 967 1094 919 c 128,-1,64
 1118 871 1118 871 1118 804 c 0,65,66
 1118 738 1118 738 1088 690.5 c 128,-1,67
 1058 643 1058 643 1010.5 608 c 128,-1,68
 963 573 963 573 904.5 548 c 128,-1,69
 846 523 846 523 790 502 c 2,70,-1
 350 335 l 2,71,72
 322 324 322 324 301.5 313 c 128,-1,73
 281 302 281 302 267.5 288 c 128,-1,74
 254 274 254 274 247 255 c 128,-1,75
 240 236 240 236 240 210 c 0,76,77
 240 167 240 167 263 145 c 128,-1,78
 286 123 286 123 328 123 c 0,79,80
 351 123 351 123 400.5 141 c 128,-1,81
 450 159 450 159 526 194 c 2,82,-1
 756 299 l 2,83,84
 813 325 813 325 859.5 334 c 128,-1,85
 906 343 906 343 941 345 c 1,86,87
 987 344 987 344 1020.5 328.5 c 128,-1,88
 1054 313 1054 313 1075.5 286 c 128,-1,89
 1097 259 1097 259 1107 222 c 128,-1,90
 1117 185 1117 185 1117 141 c 2,91,-1
 1117 0 l 1,92,-1
 961 0 l 1,0,-1
413 759 m 0,93,94
 413 789 413 789 402 807 c 128,-1,95
 391 825 391 825 372 835 c 128,-1,96
 353 845 353 845 329 848 c 128,-1,97
 305 851 305 851 278 851 c 2,98,-1
 223 851 l 1,99,100
 214 822 214 822 214 793 c 0,101,102
 214 726 214 726 243 691.5 c 128,-1,103
 272 657 272 657 326 657 c 0,104,105
 372 657 372 657 392.5 685 c 128,-1,106
 413 713 413 713 413 759 c 0,93,94
EndSplineSet
EndChar

StartChar: uni0E84
Encoding: 3716 3716 208
Width: 1186
GlyphClass: 2
Flags: W
LayerCount: 2
Fore
SplineSet
248 828 m 0,0,1
 248 789 248 789 262 758 c 128,-1,2
 276 727 276 727 300 704.5 c 128,-1,3
 324 682 324 682 357 670 c 128,-1,4
 390 658 390 658 428 658 c 2,5,-1
 553 658 l 1,6,-1
 553 546 l 1,7,-1
 428 546 l 2,8,9
 345 546 345 546 300 497 c 128,-1,10
 255 448 255 448 249 360 c 1,11,-1
 249 352 l 1,12,-1
 310 362 l 2,13,14
 324 364 324 364 335 365 c 128,-1,15
 346 366 346 366 360 366 c 0,16,17
 401 366 401 366 436.5 355 c 128,-1,18
 472 344 472 344 498 322.5 c 128,-1,19
 524 301 524 301 539 268 c 128,-1,20
 554 235 554 235 554 191 c 0,21,22
 554 141 554 141 538.5 105 c 128,-1,23
 523 69 523 69 494.5 46 c 128,-1,24
 466 23 466 23 426 11.5 c 128,-1,25
 386 0 386 0 337 0 c 0,26,27
 275 0 275 0 229.5 25.5 c 128,-1,28
 184 51 184 51 154 93.5 c 128,-1,29
 124 136 124 136 109.5 190.5 c 128,-1,30
 95 245 95 245 95 303 c 0,31,32
 95 364 95 364 111.5 414.5 c 128,-1,33
 128 465 128 465 160.5 503.5 c 128,-1,34
 193 542 193 542 241.5 567.5 c 128,-1,35
 290 593 290 593 355 602 c 1,36,37
 306 603 306 603 259.5 617.5 c 128,-1,38
 213 632 213 632 176.5 660 c 128,-1,39
 140 688 140 688 117.5 729 c 128,-1,40
 95 770 95 770 95 824 c 0,41,42
 95 883 95 883 117.5 927 c 128,-1,43
 140 971 140 971 178 1002 c 128,-1,44
 216 1033 216 1033 266 1053 c 128,-1,45
 316 1073 316 1073 370 1084.5 c 128,-1,46
 424 1096 424 1096 479.5 1100 c 128,-1,47
 535 1104 535 1104 585 1104 c 0,48,49
 716 1104 716 1104 812 1083 c 128,-1,50
 908 1062 908 1062 970.5 1010.5 c 128,-1,51
 1033 959 1033 959 1063.5 873 c 128,-1,52
 1094 787 1094 787 1094 658 c 2,53,-1
 1094 0 l 1,54,-1
 935 0 l 1,55,-1
 935 654 l 2,56,57
 935 754 935 754 917 821.5 c 128,-1,58
 899 889 899 889 857.5 929.5 c 128,-1,59
 816 970 816 970 749 987.5 c 128,-1,60
 682 1005 682 1005 585 1005 c 0,61,62
 537 1005 537 1005 478.5 999.5 c 128,-1,63
 420 994 420 994 368.5 975 c 128,-1,64
 317 956 317 956 282.5 921 c 128,-1,65
 248 886 248 886 248 828 c 0,0,1
431 192 m 0,66,67
 431 219 431 219 422 237 c 128,-1,68
 413 255 413 255 396.5 265 c 128,-1,69
 380 275 380 275 358 279 c 128,-1,70
 336 283 336 283 310 283 c 2,71,-1
 249 283 l 1,72,-1
 249 263 l 1,73,74
 252 95 252 95 343 95 c 0,75,76
 385 95 385 95 408 118 c 128,-1,77
 431 141 431 141 431 192 c 0,66,67
EndSplineSet
EndChar

StartChar: uni0E87
Encoding: 3719 3719 209
Width: 991
GlyphClass: 2
Flags: W
LayerCount: 2
Fore
SplineSet
180 -119 m 1,0,1
 181 -178 181 -178 201 -218 c 128,-1,2
 221 -258 221 -258 256.5 -282.5 c 128,-1,3
 292 -307 292 -307 341 -317.5 c 128,-1,4
 390 -328 390 -328 448 -328 c 0,5,6
 555 -328 555 -328 617.5 -295 c 128,-1,7
 680 -262 680 -262 712 -202 c 128,-1,8
 744 -142 744 -142 753 -57.5 c 128,-1,9
 762 27 762 27 762 131 c 2,10,-1
 762 598 l 2,11,12
 762 701 762 701 748 778 c 128,-1,13
 734 855 734 855 699 906 c 128,-1,14
 664 957 664 957 604 982.5 c 128,-1,15
 544 1008 544 1008 452 1008 c 2,16,-1
 421 1008 l 1,17,18
 448 928 448 928 448 899 c 0,19,20
 447 854 447 854 431.5 823 c 128,-1,21
 416 792 416 792 389 772.5 c 128,-1,22
 362 753 362 753 325.5 744.5 c 128,-1,23
 289 736 289 736 247 736 c 0,24,25
 209 736 209 736 171.5 746.5 c 128,-1,26
 134 757 134 757 104.5 778.5 c 128,-1,27
 75 800 75 800 57 832 c 128,-1,28
 39 864 39 864 39 907 c 0,29,30
 39 970 39 970 74.5 1008.5 c 128,-1,31
 110 1047 110 1047 164.5 1068 c 128,-1,32
 219 1089 219 1089 283.5 1096.5 c 128,-1,33
 348 1104 348 1104 407 1104 c 0,34,35
 539 1104 539 1104 635.5 1068.5 c 128,-1,36
 732 1033 732 1033 794.5 968 c 128,-1,37
 857 903 857 903 887.5 810.5 c 128,-1,38
 918 718 918 718 918 603 c 2,39,-1
 918 133 l 2,40,41
 918 -7 918 -7 893.5 -112 c 128,-1,42
 869 -217 869 -217 814 -287.5 c 128,-1,43
 759 -358 759 -358 670 -393 c 128,-1,44
 581 -428 581 -428 452 -428 c 0,45,46
 256 -428 256 -428 157.5 -351.5 c 128,-1,47
 59 -275 59 -275 59 -119 c 1,48,-1
 180 -119 l 1,0,1
256 821 m 0,49,50
 300 821 300 821 319 848 c 128,-1,51
 338 875 338 875 338 924 c 2,52,-1
 338 1008 l 1,53,54
 314 1007 314 1007 283.5 1003.5 c 128,-1,55
 253 1000 253 1000 226 990 c 128,-1,56
 199 980 199 980 181 961 c 128,-1,57
 163 942 163 942 163 910 c 0,58,59
 163 868 163 868 185.5 844.5 c 128,-1,60
 208 821 208 821 256 821 c 0,49,50
EndSplineSet
EndChar

StartChar: uni0E88
Encoding: 3720 3720 210
Width: 1264
GlyphClass: 2
Flags: W
LayerCount: 2
Fore
SplineSet
614 1104 m 0,0,1
 766 1104 766 1104 870.5 1078 c 128,-1,2
 975 1052 975 1052 1040 995 c 128,-1,3
 1105 938 1105 938 1133.5 847 c 128,-1,4
 1162 756 1162 756 1162 626 c 2,5,-1
 1162 2 l 1,6,-1
 1017 -65 l 1,7,-1
 974 -46 l 1,8,9
 845 20 845 20 762 147 c 128,-1,10
 679 274 679 274 657 450 c 1,11,-1
 615 443 l 2,12,13
 601 441 601 441 587 439.5 c 128,-1,14
 573 438 573 438 561 438 c 0,15,16
 457 438 457 438 400 482 c 128,-1,17
 343 526 343 526 343 620 c 0,18,19
 343 663 343 663 358.5 698.5 c 128,-1,20
 374 734 374 734 403 759 c 128,-1,21
 432 784 432 784 473.5 798 c 128,-1,22
 515 812 515 812 567 812 c 0,23,24
 679 812 679 812 738.5 747.5 c 128,-1,25
 798 683 798 683 798 554 c 0,26,27
 798 410 798 410 840.5 296.5 c 128,-1,28
 883 183 883 183 964 98 c 0,29,30
 985 76 985 76 1005 64 c 1,31,-1
 1005 631 l 2,32,33
 1005 740 1005 740 986 812 c 128,-1,34
 967 884 967 884 923 927 c 128,-1,35
 879 970 879 970 807.5 987.5 c 128,-1,36
 736 1005 736 1005 630 1005 c 0,37,38
 402 1005 402 1005 288 927 c 128,-1,39
 174 849 174 849 171 698 c 1,40,-1
 171 678 l 1,41,-1
 31 678 l 1,42,43
 30 699 30 699 30 707.5 c 128,-1,44
 30 716 30 716 30 722 c 0,45,46
 30 795 30 795 56.5 852 c 128,-1,47
 83 909 83 909 127.5 951.5 c 128,-1,48
 172 994 172 994 231 1023 c 128,-1,49
 290 1052 290 1052 355 1070 c 128,-1,50
 420 1088 420 1088 486.5 1096 c 128,-1,51
 553 1104 553 1104 614 1104 c 0,0,1
466 622 m 0,52,53
 466 566 466 566 498.5 543.5 c 128,-1,54
 531 521 531 521 599 521 c 2,55,-1
 650 521 l 1,56,57
 649 527 649 527 649 538 c 128,-1,58
 649 549 649 549 649 565 c 0,59,60
 649 653 649 653 627 688.5 c 128,-1,61
 605 724 605 724 559 724 c 0,62,63
 515 724 515 724 490.5 698.5 c 128,-1,64
 466 673 466 673 466 622 c 0,52,53
EndSplineSet
EndChar

StartChar: uni0E8A
Encoding: 3722 3722 211
Width: 1219
GlyphClass: 2
Flags: W
LayerCount: 2
Fore
SplineSet
314 560 m 0,0,1
 204 560 204 560 149 621 c 128,-1,2
 94 682 94 682 94 797 c 0,3,4
 94 868 94 868 129.5 925 c 128,-1,5
 165 982 165 982 230.5 1021.5 c 128,-1,6
 296 1061 296 1061 387.5 1082.5 c 128,-1,7
 479 1104 479 1104 591 1104 c 0,8,9
 714 1104 714 1104 811.5 1084 c 128,-1,10
 909 1064 909 1064 977.5 1025 c 128,-1,11
 1046 986 1046 986 1082 929 c 128,-1,12
 1118 872 1118 872 1118 799 c 0,13,14
 1118 748 1118 748 1104 709.5 c 128,-1,15
 1090 671 1090 671 1055 638.5 c 128,-1,16
 1020 606 1020 606 961.5 576 c 128,-1,17
 903 546 903 546 814 512 c 2,18,-1
 523 402 l 2,19,20
 326 327 326 327 289 306 c 0,21,22
 254 286 254 286 241 264.5 c 128,-1,23
 228 243 228 243 228 213 c 0,24,25
 228 169 228 169 248.5 147.5 c 128,-1,26
 269 126 269 126 311 122 c 1,27,28
 337 123 337 123 389 140.5 c 128,-1,29
 441 158 441 158 520 194 c 0,30,31
 618 239 618 239 676 265 c 128,-1,32
 734 291 734 291 753 298 c 0,33,34
 843 332 843 332 902 332 c 0,35,36
 954 332 954 332 987.5 320 c 128,-1,37
 1021 308 1021 308 1041.5 279.5 c 128,-1,38
 1062 251 1062 251 1073 203.5 c 128,-1,39
 1084 156 1084 156 1092 86 c 2,40,-1
 1126 -198 l 1,41,-1
 992 -198 l 1,42,-1
 961 86 l 2,43,44
 957 120 957 120 953.5 145.5 c 128,-1,45
 950 171 950 171 943 187.5 c 128,-1,46
 936 204 936 204 924 212.5 c 128,-1,47
 912 221 912 221 892 221 c 256,48,49
 872 221 872 221 824 204 c 128,-1,50
 776 187 776 187 691 147 c 0,51,52
 656 131 656 131 606.5 106 c 128,-1,53
 557 81 557 81 502 57.5 c 128,-1,54
 447 34 447 34 393.5 17 c 128,-1,55
 340 0 340 0 298 0 c 0,56,57
 254 0 254 0 214.5 15 c 128,-1,58
 175 30 175 30 146 57 c 128,-1,59
 117 84 117 84 100 121.5 c 128,-1,60
 83 159 83 159 83 204 c 0,61,62
 83 264 83 264 113 307 c 128,-1,63
 143 350 143 350 189.5 381 c 128,-1,64
 236 412 236 412 292.5 434.5 c 128,-1,65
 349 457 349 457 402 476 c 2,66,-1
 585 543 l 2,67,68
 703 586 703 586 777 619 c 128,-1,69
 851 652 851 652 885 671 c 0,70,71
 934 700 934 700 958 730.5 c 128,-1,72
 982 761 982 761 982 799 c 0,73,74
 982 894 982 894 885 950.5 c 128,-1,75
 788 1007 788 1007 608 1007 c 0,76,77
 495 1007 495 1007 415.5 989 c 128,-1,78
 336 971 336 971 285 933 c 1,79,80
 305 935 305 935 318.5 936.5 c 128,-1,81
 332 938 332 938 339 938 c 0,82,83
 383 937 383 937 419.5 925 c 128,-1,84
 456 913 456 913 482 889.5 c 128,-1,85
 508 866 508 866 522.5 832 c 128,-1,86
 537 798 537 798 537 753 c 0,87,88
 537 712 537 712 522 677 c 128,-1,89
 507 642 507 642 478 616 c 128,-1,90
 449 590 449 590 407.5 575 c 128,-1,91
 366 560 366 560 314 560 c 0,0,1
413 759 m 1,92,93
 413 851 413 851 282 851 c 2,94,-1
 223 851 l 1,95,96
 214 822 214 822 214 792 c 0,97,98
 214 725 214 725 237.5 690 c 128,-1,99
 261 655 261 655 323 655 c 0,100,101
 375 655 375 655 393 681.5 c 128,-1,102
 411 708 411 708 413 759 c 1,92,93
EndSplineSet
EndChar

StartChar: uni0E8D
Encoding: 3725 3725 212
Width: 1172
GlyphClass: 2
Flags: W
LayerCount: 2
Fore
SplineSet
236 732 m 2,0,1
 236 696 236 696 248 664.5 c 128,-1,2
 260 633 260 633 282.5 609 c 128,-1,3
 305 585 305 585 336 571.5 c 128,-1,4
 367 558 367 558 406 558 c 2,5,-1
 540 558 l 1,6,-1
 540 445 l 1,7,-1
 406 445 l 2,8,9
 371 445 371 445 340 433 c 128,-1,10
 309 421 309 421 286 399 c 128,-1,11
 263 377 263 377 249 346 c 128,-1,12
 235 315 235 315 235 278 c 0,13,14
 235 193 235 193 314.5 145 c 128,-1,15
 394 97 394 97 552 97 c 0,16,17
 655 97 655 97 726 113 c 128,-1,18
 797 129 797 129 840.5 168 c 128,-1,19
 884 207 884 207 903 271 c 128,-1,20
 922 335 922 335 922 431 c 2,21,-1
 922 1104 l 1,22,-1
 1081 1104 l 1,23,-1
 1081 446 l 2,24,25
 1081 323 1081 323 1052 238 c 128,-1,26
 1023 153 1023 153 961 100 c 128,-1,27
 899 47 899 47 803 23.5 c 128,-1,28
 707 0 707 0 572 0 c 0,29,30
 336 0 336 0 209 70.5 c 128,-1,31
 82 141 82 141 82 280 c 0,32,33
 82 326 82 326 102 366 c 128,-1,34
 122 406 122 406 156.5 436 c 128,-1,35
 191 466 191 466 238.5 483.5 c 128,-1,36
 286 501 286 501 342 501 c 1,37,38
 215 515 215 515 148.5 590 c 128,-1,39
 82 665 82 665 82 800 c 0,40,41
 82 869 82 869 98.5 925 c 128,-1,42
 115 981 115 981 147 1020.5 c 128,-1,43
 179 1060 179 1060 225 1082 c 128,-1,44
 271 1104 271 1104 331 1104 c 0,45,46
 428 1104 428 1104 484.5 1057.5 c 128,-1,47
 541 1011 541 1011 541 920 c 0,48,49
 541 837 541 837 492.5 788.5 c 128,-1,50
 444 740 444 740 347 737 c 0,51,52
 339 737 339 737 324.5 738.5 c 128,-1,53
 310 740 310 740 290 742 c 1,54,-1
 236 752 l 1,55,-1
 236 732 l 2,0,1
337 1008 m 0,56,57
 292 1008 292 1008 264 973.5 c 128,-1,58
 236 939 236 939 236 870 c 2,59,-1
 236 821 l 1,60,-1
 299 821 l 2,61,62
 365 821 365 821 390.5 843 c 128,-1,63
 416 865 416 865 418 913 c 1,64,65
 413 1007 413 1007 337 1008 c 0,56,57
EndSplineSet
EndChar

StartChar: uni0E94
Encoding: 3732 3732 213
Width: 1199
GlyphClass: 2
Flags: W
LayerCount: 2
Fore
SplineSet
95 658 m 2,0,1
 95 779 95 779 123 864 c 128,-1,2
 151 949 151 949 211 1002.5 c 128,-1,3
 271 1056 271 1056 366 1080 c 128,-1,4
 461 1104 461 1104 596 1104 c 0,5,6
 735 1104 735 1104 832 1078.5 c 128,-1,7
 929 1053 929 1053 990 999 c 128,-1,8
 1051 945 1051 945 1078.5 860.5 c 128,-1,9
 1106 776 1106 776 1106 658 c 2,10,-1
 1106 0 l 1,11,-1
 948 0 l 1,12,-1
 948 654 l 2,13,14
 948 748 948 748 929.5 815 c 128,-1,15
 911 882 911 882 869.5 924 c 128,-1,16
 828 966 828 966 760.5 985.5 c 128,-1,17
 693 1005 693 1005 596 1005 c 0,18,19
 501 1005 501 1005 436 986 c 128,-1,20
 371 967 371 967 330 925.5 c 128,-1,21
 289 884 289 884 271 817 c 128,-1,22
 253 750 253 750 253 654 c 2,23,-1
 253 352 l 1,24,-1
 308 363 l 1,25,26
 336 366 336 366 347 366 c 0,27,28
 394 366 394 366 433 354.5 c 128,-1,29
 472 343 472 343 500 320.5 c 128,-1,30
 528 298 528 298 543.5 265.5 c 128,-1,31
 559 233 559 233 559 191 c 0,32,33
 559 0 559 0 332 0 c 0,34,35
 95 0 95 0 95 324 c 2,36,-1
 95 658 l 2,0,1
435 191 m 0,37,38
 435 242 435 242 404 262.5 c 128,-1,39
 373 283 373 283 303 283 c 2,40,-1
 253 283 l 1,41,-1
 253 245 l 2,42,43
 253 202 253 202 258.5 173.5 c 128,-1,44
 264 145 264 145 276 127.5 c 128,-1,45
 288 110 288 110 306 102.5 c 128,-1,46
 324 95 324 95 349 94 c 1,47,48
 434 97 434 97 435 191 c 0,37,38
EndSplineSet
EndChar

StartChar: uni0E95
Encoding: 3733 3733 214
Width: 1433
GlyphClass: 2
Flags: W
LayerCount: 2
Fore
SplineSet
989 1104 m 0,0,1
 1082 1104 1082 1104 1148.5 1077 c 128,-1,2
 1215 1050 1215 1050 1257.5 994.5 c 128,-1,3
 1300 939 1300 939 1320 854 c 128,-1,4
 1340 769 1340 769 1340 654 c 2,5,-1
 1340 0 l 1,6,-1
 1182 0 l 1,7,-1
 1182 662 l 2,8,9
 1182 695 1182 695 1181 733.5 c 128,-1,10
 1180 772 1180 772 1174.5 810 c 128,-1,11
 1169 848 1169 848 1157.5 883 c 128,-1,12
 1146 918 1146 918 1125.5 945 c 128,-1,13
 1105 972 1105 972 1073.5 988 c 128,-1,14
 1042 1004 1042 1004 997 1004 c 0,15,16
 940 1004 940 1004 902 987 c 128,-1,17
 864 970 864 970 840.5 928 c 128,-1,18
 817 886 817 886 807.5 815 c 128,-1,19
 798 744 798 744 798 636 c 2,20,-1
 798 512 l 1,21,-1
 639 512 l 1,22,-1
 639 636 l 2,23,24
 639 744 639 744 629.5 815 c 128,-1,25
 620 886 620 886 598.5 928 c 128,-1,26
 577 970 577 970 543.5 987.5 c 128,-1,27
 510 1005 510 1005 462 1005 c 0,28,29
 403 1005 403 1005 363 990 c 128,-1,30
 323 975 323 975 298.5 939 c 128,-1,31
 274 903 274 903 263.5 842.5 c 128,-1,32
 253 782 253 782 253 690 c 2,33,-1
 253 354 l 1,34,-1
 291 362 l 1,35,36
 310 364 310 364 323.5 365 c 128,-1,37
 337 366 337 366 345 366 c 0,38,39
 442 366 442 366 500.5 322.5 c 128,-1,40
 559 279 559 279 559 191 c 0,41,42
 559 91 559 91 502.5 45.5 c 128,-1,43
 446 0 446 0 334 0 c 0,44,45
 219 0 219 0 157 78.5 c 128,-1,46
 95 157 95 157 95 307 c 2,47,-1
 95 658 l 2,48,49
 95 778 95 778 116 862.5 c 128,-1,50
 137 947 137 947 181 1000.5 c 128,-1,51
 225 1054 225 1054 293 1079 c 128,-1,52
 361 1104 361 1104 455 1104 c 0,53,54
 574 1104 574 1104 638 1049 c 128,-1,55
 702 994 702 994 718 884 c 1,56,57
 735 1000 735 1000 801.5 1052 c 128,-1,58
 868 1104 868 1104 989 1104 c 0,0,1
436 191 m 1,59,60
 436 240 436 240 404 261.5 c 128,-1,61
 372 283 372 283 307 283 c 2,62,-1
 253 283 l 1,63,-1
 253 228 l 2,64,65
 253 94 253 94 353 94 c 0,66,67
 434 94 434 94 436 191 c 1,59,60
EndSplineSet
EndChar

StartChar: uni0E96
Encoding: 3734 3734 215
Width: 1275
GlyphClass: 2
Flags: W
LayerCount: 2
Fore
SplineSet
1027 692 m 2,0,1
 1027 782 1027 782 1013.5 842 c 128,-1,2
 1000 902 1000 902 970 938.5 c 128,-1,3
 940 975 940 975 893 990 c 128,-1,4
 846 1005 846 1005 779 1005 c 0,5,6
 755 1005 755 1005 727.5 999 c 128,-1,7
 700 993 700 993 660.5 976 c 128,-1,8
 621 959 621 959 566.5 929 c 128,-1,9
 512 899 512 899 436 851 c 1,10,-1
 436 353 l 1,11,-1
 468 360 l 2,12,13
 481 363 481 363 496 363.5 c 128,-1,14
 511 364 511 364 528 364 c 0,15,16
 631 364 631 364 686.5 320.5 c 128,-1,17
 742 277 742 277 742 191 c 1,18,19
 737 97 737 97 681.5 48.5 c 128,-1,20
 626 0 626 0 518 0 c 0,21,22
 397 0 397 0 338 81 c 128,-1,23
 279 162 279 162 279 322 c 2,24,-1
 279 769 l 1,25,26
 219 749 219 749 173 749 c 0,27,28
 72 749 72 749 25.5 793.5 c 128,-1,29
 -21 838 -21 838 -28 929 c 1,30,31
 -28 1012 -28 1012 27 1058 c 128,-1,32
 82 1104 82 1104 192 1104 c 0,33,34
 366 1104 366 1104 416 958 c 0,35,36
 416 956 416 956 417 955 c 1,37,38
 489 1003 489 1003 541.5 1032 c 128,-1,39
 594 1061 594 1061 636 1077 c 128,-1,40
 678 1093 678 1093 714 1098.5 c 128,-1,41
 750 1104 750 1104 789 1104 c 0,42,43
 894 1104 894 1104 968.5 1078.5 c 128,-1,44
 1043 1053 1043 1053 1091 1000 c 128,-1,45
 1139 947 1139 947 1161.5 866 c 128,-1,46
 1184 785 1184 785 1184 675 c 2,47,-1
 1184 -311 l 1,48,-1
 1027 -311 l 1,49,-1
 1027 692 l 2,0,1
279 879 m 2,50,51
 279 951 279 951 256 980.5 c 128,-1,52
 233 1010 233 1010 182 1010 c 0,53,54
 97 1010 97 1010 95 931 c 1,55,56
 97 890 97 890 118.5 868 c 128,-1,57
 140 846 140 846 183 846 c 0,58,59
 227 846 227 846 279 871 c 1,60,-1
 279 879 l 2,50,51
618 191 m 2,61,62
 618 242 618 242 586.5 262.5 c 128,-1,63
 555 283 555 283 490 283 c 2,64,-1
 436 283 l 1,65,-1
 436 241 l 2,66,67
 436 164 436 164 457.5 129 c 128,-1,68
 479 94 479 94 523 94 c 0,69,70
 568 94 568 94 592 113.5 c 128,-1,71
 616 133 616 133 618 178 c 1,72,-1
 618 191 l 2,61,62
EndSplineSet
EndChar

StartChar: uni0E97
Encoding: 3735 3735 216
Width: 1384
GlyphClass: 2
Flags: W
LayerCount: 2
Fore
SplineSet
973 1104 m 0,0,1
 1058 1104 1058 1104 1118 1079 c 128,-1,2
 1178 1054 1178 1054 1216.5 1002.5 c 128,-1,3
 1255 951 1255 951 1273 871.5 c 128,-1,4
 1291 792 1291 792 1291 683 c 2,5,-1
 1291 0 l 1,6,-1
 1135 0 l 1,7,-1
 1135 748 l 2,8,9
 1135 873 1135 873 1096 939 c 128,-1,10
 1057 1005 1057 1005 980 1005 c 0,11,12
 898 1005 898 1005 855.5 945 c 128,-1,13
 813 885 813 885 813 758 c 2,14,-1
 813 463 l 2,15,16
 813 334 813 334 794 246 c 128,-1,17
 775 158 775 158 734.5 103 c 128,-1,18
 694 48 694 48 630.5 24 c 128,-1,19
 567 0 567 0 477 0 c 0,20,21
 323 0 323 0 244 69.5 c 128,-1,22
 165 139 165 139 165 276 c 0,23,24
 165 289 165 289 170 317 c 128,-1,25
 175 345 175 345 183 381 c 128,-1,26
 191 417 191 417 201.5 458.5 c 128,-1,27
 212 500 212 500 223 541 c 0,28,29
 249 638 249 638 281 751 c 1,30,-1
 212 738 l 1,31,32
 167 738 167 738 130.5 750 c 128,-1,33
 94 762 94 762 68 785.5 c 128,-1,34
 42 809 42 809 27.5 843 c 128,-1,35
 13 877 13 877 13 921 c 0,36,37
 13 1104 13 1104 229 1104 c 0,38,39
 283 1104 283 1104 326 1091.5 c 128,-1,40
 369 1079 369 1079 400 1055 c 128,-1,41
 431 1031 431 1031 447.5 996 c 128,-1,42
 464 961 464 961 464 917 c 0,43,44
 464 885 464 885 453 839 c 1,45,46
 416 704 416 704 388 591 c 0,47,48
 376 543 376 543 364.5 494.5 c 128,-1,49
 353 446 353 446 344 405 c 128,-1,50
 335 364 335 364 329.5 333.5 c 128,-1,51
 324 303 324 303 324 290 c 0,52,53
 324 188 324 188 361.5 143 c 128,-1,54
 399 98 399 98 474 98 c 0,55,56
 540 98 540 98 576 130 c 128,-1,57
 612 162 612 162 629.5 211 c 128,-1,58
 647 260 647 260 650.5 318.5 c 128,-1,59
 654 377 654 377 654 430 c 2,60,-1
 654 686 l 2,61,62
 654 902 654 902 733 1003 c 128,-1,63
 812 1104 812 1104 973 1104 c 0,0,1
137 919 m 2,64,65
 137 865 137 865 166 843 c 128,-1,66
 195 821 195 821 257 821 c 2,67,-1
 300 821 l 1,68,69
 309 852 309 852 314 871 c 128,-1,70
 319 890 319 890 321.5 900 c 128,-1,71
 324 910 324 910 324.5 914.5 c 128,-1,72
 325 919 325 919 325 922 c 0,73,74
 325 958 325 958 300.5 983 c 128,-1,75
 276 1008 276 1008 232 1008 c 0,76,77
 182 1008 182 1008 159.5 987.5 c 128,-1,78
 137 967 137 967 137 925 c 2,79,-1
 137 919 l 2,64,65
EndSplineSet
EndChar

StartChar: uni0E99
Encoding: 3737 3737 217
Width: 1316
GlyphClass: 2
Flags: W
LayerCount: 2
Fore
SplineSet
9 914 m 1,0,1
 11 1104 11 1104 225 1104 c 0,2,3
 347 1104 347 1104 409 1027 c 128,-1,4
 471 950 471 950 471 797 c 2,5,-1
 471 403 l 2,6,7
 471 246 471 246 549.5 172 c 128,-1,8
 628 98 628 98 787 98 c 0,9,10
 934 98 934 98 1000.5 165 c 128,-1,11
 1067 232 1067 232 1067 372 c 2,12,-1
 1067 1104 l 1,13,-1
 1224 1104 l 1,14,-1
 1224 428 l 2,15,16
 1224 211 1224 211 1115 105.5 c 128,-1,17
 1006 0 1006 0 786 0 c 0,18,19
 708 0 708 0 642.5 15 c 128,-1,20
 577 30 577 30 526.5 59.5 c 128,-1,21
 476 89 476 89 442.5 133 c 128,-1,22
 409 177 409 177 395 235 c 1,23,24
 369 123 369 123 278.5 61.5 c 128,-1,25
 188 0 188 0 39 0 c 1,26,-1
 39 99 l 1,27,28
 170 99 170 99 242.5 176.5 c 128,-1,29
 315 254 315 254 315 400 c 2,30,-1
 315 763 l 1,31,32
 255 737 255 737 210 737 c 0,33,34
 166 737 166 737 129.5 749 c 128,-1,35
 93 761 93 761 66.5 783.5 c 128,-1,36
 40 806 40 806 25 839 c 128,-1,37
 10 872 10 872 9 914 c 1,0,1
132 913 m 0,38,39
 132 860 132 860 162 840.5 c 128,-1,40
 192 821 192 821 257 821 c 2,41,-1
 315 821 l 1,42,-1
 315 858 l 2,43,44
 315 938 315 938 293.5 973 c 128,-1,45
 272 1008 272 1008 227 1008 c 0,46,47
 179 1008 179 1008 155.5 986 c 128,-1,48
 132 964 132 964 132 913 c 0,38,39
EndSplineSet
EndChar

StartChar: uni0E9A
Encoding: 3738 3738 218
Width: 1218
GlyphClass: 2
Flags: W
LayerCount: 2
Fore
SplineSet
249 1104 m 0,0,1
 293 1104 293 1104 332 1090 c 128,-1,2
 371 1076 371 1076 400.5 1050.5 c 128,-1,3
 430 1025 430 1025 447.5 989.5 c 128,-1,4
 465 954 465 954 465 912 c 0,5,6
 465 877 465 877 438 772 c 2,7,-1
 337 377 l 2,8,9
 337 376 337 376 336.5 375 c 128,-1,10
 336 374 336 374 336 373 c 0,11,12
 331 349 331 349 327.5 323 c 128,-1,13
 324 297 324 297 324 268 c 0,14,15
 324 230 324 230 345 198.5 c 128,-1,16
 366 167 366 167 406.5 144.5 c 128,-1,17
 447 122 447 122 506 110 c 128,-1,18
 565 98 565 98 640 98 c 0,19,20
 731 98 731 98 794 116 c 128,-1,21
 857 134 857 134 895.5 174.5 c 128,-1,22
 934 215 934 215 951 279 c 128,-1,23
 968 343 968 343 968 436 c 2,24,-1
 968 1104 l 1,25,-1
 1125 1104 l 1,26,-1
 1125 463 l 2,27,28
 1125 338 1125 338 1097 250.5 c 128,-1,29
 1069 163 1069 163 1010.5 107 c 128,-1,30
 952 51 952 51 861.5 25.5 c 128,-1,31
 771 0 771 0 645 0 c 0,32,33
 537 0 537 0 449 19.5 c 128,-1,34
 361 39 361 39 298 76.5 c 128,-1,35
 235 114 235 114 201 167.5 c 128,-1,36
 167 221 167 221 167 290 c 0,37,38
 167 320 167 320 170.5 342 c 128,-1,39
 174 364 174 364 180 384 c 2,40,-1
 284 749 l 1,41,42
 236 736 236 736 210 736 c 0,43,44
 169 736 169 736 133 749 c 128,-1,45
 97 762 97 762 70.5 786 c 128,-1,46
 44 810 44 810 29 844 c 128,-1,47
 14 878 14 878 14 921 c 0,48,49
 14 1012 14 1012 73.5 1057.5 c 128,-1,50
 133 1103 133 1103 249 1104 c 0,0,1
138 921 m 0,51,52
 138 892 138 892 145.5 872.5 c 128,-1,53
 153 853 153 853 168.5 841.5 c 128,-1,54
 184 830 184 830 208.5 825.5 c 128,-1,55
 233 821 233 821 267 821 c 2,56,-1
 303 821 l 1,57,-1
 321 884 l 2,58,59
 324 895 324 895 325 902 c 128,-1,60
 326 909 326 909 326 913 c 0,61,62
 326 956 326 956 300.5 982 c 128,-1,63
 275 1008 275 1008 224 1008 c 0,64,65
 181 1008 181 1008 160 985.5 c 128,-1,66
 139 963 139 963 138 921 c 0,51,52
EndSplineSet
EndChar

StartChar: uni0E9B
Encoding: 3739 3739 219
Width: 1219
GlyphClass: 2
Flags: W
LayerCount: 2
Fore
SplineSet
245 1104 m 1,0,1
 292 1104 292 1104 332.5 1092 c 128,-1,2
 373 1080 373 1080 402.5 1058 c 128,-1,3
 432 1036 432 1036 449 1003.5 c 128,-1,4
 466 971 466 971 466 931 c 0,5,6
 466 864 466 864 446 802 c 1,7,-1
 338 376 l 2,8,9
 330 347 330 347 327.5 322.5 c 128,-1,10
 325 298 325 298 325 278 c 0,11,12
 325 237 325 237 347 204 c 128,-1,13
 369 171 369 171 411 147.5 c 128,-1,14
 453 124 453 124 513.5 111 c 128,-1,15
 574 98 574 98 652 98 c 0,16,17
 740 98 740 98 800.5 117 c 128,-1,18
 861 136 861 136 898.5 177.5 c 128,-1,19
 936 219 936 219 953 284.5 c 128,-1,20
 970 350 970 350 970 444 c 2,21,-1
 970 1427 l 1,22,-1
 1127 1427 l 1,23,-1
 1127 483 l 2,24,25
 1127 351 1127 351 1100 259 c 128,-1,26
 1073 167 1073 167 1015.5 109.5 c 128,-1,27
 958 52 958 52 867 26 c 128,-1,28
 776 0 776 0 649 0 c 0,29,30
 540 0 540 0 451.5 19 c 128,-1,31
 363 38 363 38 300 75 c 128,-1,32
 237 112 237 112 202.5 166 c 128,-1,33
 168 220 168 220 168 290 c 0,34,35
 168 322 168 322 171.5 345.5 c 128,-1,36
 175 369 175 369 181 389 c 2,37,-1
 284 748 l 1,38,39
 237 736 237 736 206 736 c 0,40,41
 167 736 167 736 132.5 749.5 c 128,-1,42
 98 763 98 763 71.5 787.5 c 128,-1,43
 45 812 45 812 30 846 c 128,-1,44
 15 880 15 880 15 921 c 0,45,46
 15 1097 15 1097 245 1104 c 1,0,1
139 923 m 1,47,48
 139 863 139 863 169 842 c 128,-1,49
 199 821 199 821 265 821 c 2,50,-1
 304 821 l 1,51,-1
 322 884 l 1,52,53
 324 895 324 895 325.5 905 c 128,-1,54
 327 915 327 915 327 924 c 0,55,56
 327 963 327 963 303.5 985.5 c 128,-1,57
 280 1008 280 1008 234 1008 c 1,58,59
 143 999 143 999 139 923 c 1,47,48
EndSplineSet
EndChar

StartChar: uni0E9C
Encoding: 3740 3740 220
Width: 1553
GlyphClass: 2
Flags: W
LayerCount: 2
Fore
SplineSet
1095 1104 m 1,0,1
 1283 1103 1283 1103 1318 897 c 1,2,3
 1355 952 1355 952 1355 1053 c 2,4,-1
 1355 1238 l 1,5,-1
 1472 1238 l 1,6,-1
 1472 1053 l 2,7,8
 1472 968 1472 968 1437.5 904.5 c 128,-1,9
 1403 841 1403 841 1336 798 c 1,10,-1
 1330 794 l 1,11,12
 1331 767 1331 767 1331 750.5 c 128,-1,13
 1331 734 1331 734 1331 724 c 2,14,-1
 1331 482 l 2,15,16
 1331 237 1331 237 1245 118.5 c 128,-1,17
 1159 0 1159 0 989 0 c 0,18,19
 876 0 876 0 803 57.5 c 128,-1,20
 730 115 730 115 713 226 c 1,21,22
 699 117 699 117 630 58.5 c 128,-1,23
 561 0 561 0 440 0 c 0,24,25
 346 0 346 0 280.5 25.5 c 128,-1,26
 215 51 215 51 173.5 106.5 c 128,-1,27
 132 162 132 162 113.5 250.5 c 128,-1,28
 95 339 95 339 95 465 c 2,29,-1
 95 804 l 2,30,31
 95 953 95 953 156.5 1028.5 c 128,-1,32
 218 1104 218 1104 339 1104 c 0,33,34
 448 1104 448 1104 503.5 1056 c 128,-1,35
 559 1008 559 1008 559 914 c 0,36,37
 559 877 559 877 545 844.5 c 128,-1,38
 531 812 531 812 505.5 788 c 128,-1,39
 480 764 480 764 442.5 750.5 c 128,-1,40
 405 737 405 737 359 737 c 0,41,42
 335 737 335 737 308.5 742 c 128,-1,43
 282 747 282 747 252 758 c 1,44,-1
 252 410 l 2,45,46
 252 318 252 318 263 258 c 128,-1,47
 274 198 274 198 297 162.5 c 128,-1,48
 320 127 320 127 356 112.5 c 128,-1,49
 392 98 392 98 442 98 c 0,50,51
 541 98 541 98 587 175 c 128,-1,52
 633 252 633 252 633 417 c 2,53,-1
 633 473 l 1,54,-1
 792 473 l 1,55,-1
 792 416 l 2,56,57
 792 258 792 258 841 178 c 128,-1,58
 890 98 890 98 985 98 c 0,59,60
 1087 98 1087 98 1130.5 172.5 c 128,-1,61
 1174 247 1174 247 1174 403 c 2,62,-1
 1174 743 l 1,63,64
 1135 737 1135 737 1087 737 c 0,65,66
 979 737 979 737 923.5 783.5 c 128,-1,67
 868 830 868 830 868 917 c 0,68,69
 868 1011 868 1011 924.5 1056 c 128,-1,70
 981 1101 981 1101 1095 1104 c 1,0,1
1174 858 m 2,71,72
 1174 940 1174 940 1151.5 974 c 128,-1,73
 1129 1008 1129 1008 1081 1008 c 0,74,75
 1038 1008 1038 1008 1015 985 c 128,-1,76
 992 962 992 962 992 919 c 0,77,78
 992 890 992 890 999.5 871 c 128,-1,79
 1007 852 1007 852 1023.5 840.5 c 128,-1,80
 1040 829 1040 829 1067 824.5 c 128,-1,81
 1094 820 1094 820 1133 820 c 0,82,83
 1153 820 1153 820 1174 823 c 1,84,-1
 1174 858 l 2,71,72
347 1008 m 1,85,86
 296 1008 296 1008 274 970.5 c 128,-1,87
 252 933 252 933 252 858 c 2,88,-1
 252 821 l 1,89,-1
 304 821 l 2,90,91
 341 821 341 821 366 826 c 128,-1,92
 391 831 391 831 406 842 c 128,-1,93
 421 853 421 853 427.5 870.5 c 128,-1,94
 434 888 434 888 434 913 c 0,95,96
 434 960 434 960 411.5 983.5 c 128,-1,97
 389 1007 389 1007 347 1008 c 1,85,86
EndSplineSet
EndChar

StartChar: uni0E9D
Encoding: 3741 3741 221
Width: 1431
GlyphClass: 2
Flags: W
LayerCount: 2
Fore
SplineSet
447 98 m 1,0,1
 548 98 548 98 592.5 174 c 128,-1,2
 637 250 637 250 637 405 c 2,3,-1
 637 475 l 1,4,-1
 794 475 l 1,5,-1
 794 405 l 2,6,7
 794 259 794 259 840.5 178.5 c 128,-1,8
 887 98 887 98 980 98 c 0,9,10
 1035 98 1035 98 1073.5 114 c 128,-1,11
 1112 130 1112 130 1135.5 166.5 c 128,-1,12
 1159 203 1159 203 1169.5 261.5 c 128,-1,13
 1180 320 1180 320 1180 405 c 2,14,-1
 1180 1427 l 1,15,-1
 1339 1427 l 1,16,-1
 1339 482 l 2,17,18
 1339 350 1339 350 1319.5 258 c 128,-1,19
 1300 166 1300 166 1259 109 c 128,-1,20
 1218 52 1218 52 1153 26 c 128,-1,21
 1088 0 1088 0 997 0 c 1,22,23
 762 3 762 3 716 226 c 1,24,25
 690 108 690 108 624 55 c 128,-1,26
 558 2 558 2 444 0 c 1,27,28
 349 1 349 1 282.5 26 c 128,-1,29
 216 51 216 51 174 107 c 128,-1,30
 132 163 132 163 113 252 c 128,-1,31
 94 341 94 341 94 470 c 2,32,-1
 94 777 l 2,33,34
 94 943 94 943 153.5 1021 c 128,-1,35
 213 1099 213 1099 338 1104 c 1,36,37
 447 1102 447 1102 502.5 1057.5 c 128,-1,38
 558 1013 558 1013 558 924 c 0,39,40
 558 882 558 882 544.5 847.5 c 128,-1,41
 531 813 531 813 505.5 788.5 c 128,-1,42
 480 764 480 764 442.5 750.5 c 128,-1,43
 405 737 405 737 356 737 c 0,44,45
 311 737 311 737 251 763 c 1,46,-1
 251 405 l 2,47,48
 251 320 251 320 261.5 261.5 c 128,-1,49
 272 203 272 203 295.5 167 c 128,-1,50
 319 131 319 131 356.5 115 c 128,-1,51
 394 99 394 99 447 98 c 1,0,1
352 1008 m 0,52,53
 294 1008 294 1008 272.5 971.5 c 128,-1,54
 251 935 251 935 251 858 c 2,55,-1
 251 821 l 1,56,-1
 304 821 l 2,57,58
 342 821 342 821 367 826.5 c 128,-1,59
 392 832 392 832 407 843 c 128,-1,60
 422 854 422 854 428 872 c 128,-1,61
 434 890 434 890 434 914 c 0,62,63
 434 958 434 958 414 983 c 128,-1,64
 394 1008 394 1008 352 1008 c 0,52,53
EndSplineSet
EndChar

StartChar: uni0E9E
Encoding: 3742 3742 222
Width: 1446
GlyphClass: 2
Flags: W
LayerCount: 2
Fore
SplineSet
470 98 m 0,0,1
 569 98 569 98 613 171.5 c 128,-1,2
 657 245 657 245 657 397 c 2,3,-1
 657 1104 l 1,4,-1
 815 1104 l 1,5,-1
 815 397 l 2,6,7
 815 248 815 248 865.5 173 c 128,-1,8
 916 98 916 98 1016 98 c 0,9,10
 1114 98 1114 98 1156 172.5 c 128,-1,11
 1198 247 1198 247 1198 402 c 2,12,-1
 1198 1104 l 1,13,-1
 1355 1104 l 1,14,-1
 1355 483 l 2,15,16
 1355 351 1355 351 1336.5 259.5 c 128,-1,17
 1318 168 1318 168 1277 110 c 128,-1,18
 1236 52 1236 52 1171.5 26 c 128,-1,19
 1107 0 1107 0 1016 0 c 0,20,21
 955 0 955 0 908.5 14.5 c 128,-1,22
 862 29 862 29 828.5 58 c 128,-1,23
 795 87 795 87 772.5 130 c 128,-1,24
 750 173 750 173 736 231 c 1,25,26
 725 168 725 168 703 124.5 c 128,-1,27
 681 81 681 81 645 53 c 128,-1,28
 609 25 609 25 559.5 12.5 c 128,-1,29
 510 0 510 0 445 0 c 0,30,31
 307 0 307 0 234 69.5 c 128,-1,32
 161 139 161 139 161 275 c 0,33,34
 161 325 161 325 178 384 c 2,35,-1
 281 748 l 1,36,37
 234 736 234 736 208 736 c 0,38,39
 164 736 164 736 128 748.5 c 128,-1,40
 92 761 92 761 66.5 785 c 128,-1,41
 41 809 41 809 26.5 844.5 c 128,-1,42
 12 880 12 880 12 926 c 0,43,44
 12 1011 12 1011 71 1057.5 c 128,-1,45
 130 1104 130 1104 247 1104 c 0,46,47
 291 1104 291 1104 330 1090 c 128,-1,48
 369 1076 369 1076 398.5 1050.5 c 128,-1,49
 428 1025 428 1025 445.5 989.5 c 128,-1,50
 463 954 463 954 463 910 c 0,51,52
 463 875 463 875 449 821 c 2,53,-1
 344 409 l 2,54,55
 331 358 331 358 326 317 c 128,-1,56
 321 276 321 276 321 247 c 0,57,58
 321 176 321 176 358.5 137 c 128,-1,59
 396 98 396 98 470 98 c 0,0,1
136 923 m 0,60,61
 136 892 136 892 143 872.5 c 128,-1,62
 150 853 150 853 165 841.5 c 128,-1,63
 180 830 180 830 203.5 825.5 c 128,-1,64
 227 821 227 821 260 821 c 2,65,-1
 301 821 l 1,66,-1
 317 876 l 2,67,68
 321 890 321 890 321.5 902 c 128,-1,69
 322 914 322 914 324 922 c 1,70,71
 324 959 324 959 298 983.5 c 128,-1,72
 272 1008 272 1008 223 1008 c 0,73,74
 180 1008 180 1008 158.5 986 c 128,-1,75
 137 964 137 964 136 923 c 0,60,61
EndSplineSet
EndChar

StartChar: uni0E9F
Encoding: 3743 3743 223
Width: 1526
GlyphClass: 2
Flags: W
LayerCount: 2
Fore
SplineSet
319 263 m 0,0,1
 319 185 319 185 356 141.5 c 128,-1,2
 393 98 393 98 464 98 c 0,3,4
 520 98 520 98 557.5 114 c 128,-1,5
 595 130 595 130 617 165.5 c 128,-1,6
 639 201 639 201 648 258 c 128,-1,7
 657 315 657 315 657 397 c 2,8,-1
 657 1104 l 1,9,-1
 815 1104 l 1,10,-1
 815 397 l 2,11,12
 815 316 815 316 827.5 259 c 128,-1,13
 840 202 840 202 865.5 166.5 c 128,-1,14
 891 131 891 131 930 114.5 c 128,-1,15
 969 98 969 98 1021 98 c 0,16,17
 1070 98 1070 98 1103.5 115 c 128,-1,18
 1137 132 1137 132 1157.5 169 c 128,-1,19
 1178 206 1178 206 1187 263 c 128,-1,20
 1196 320 1196 320 1196 401 c 2,21,-1
 1196 1428 l 1,22,-1
 1353 1428 l 1,23,-1
 1353 483 l 2,24,25
 1353 350 1353 350 1334 258 c 128,-1,26
 1315 166 1315 166 1274 108.5 c 128,-1,27
 1233 51 1233 51 1169 25.5 c 128,-1,28
 1105 0 1105 0 1015 0 c 0,29,30
 953 0 953 0 906.5 13.5 c 128,-1,31
 860 27 860 27 826.5 55 c 128,-1,32
 793 83 793 83 771 126.5 c 128,-1,33
 749 170 749 170 736 231 c 1,34,35
 716 108 716 108 645.5 54 c 128,-1,36
 575 0 575 0 453 0 c 2,37,-1
 442 0 l 1,38,39
 380 1 380 1 328.5 20.5 c 128,-1,40
 277 40 277 40 239.5 76 c 128,-1,41
 202 112 202 112 181 162 c 128,-1,42
 160 212 160 212 160 274 c 0,43,44
 160 299 160 299 164 327 c 128,-1,45
 168 355 168 355 177 387 c 2,46,-1
 282 754 l 1,47,48
 246 745 246 745 227.5 743 c 128,-1,49
 209 741 209 741 195 741 c 0,50,51
 155 741 155 741 121.5 754 c 128,-1,52
 88 767 88 767 63.5 790.5 c 128,-1,53
 39 814 39 814 25.5 847.5 c 128,-1,54
 12 881 12 881 12 922 c 0,55,56
 12 1010 12 1010 68 1057 c 128,-1,57
 124 1104 124 1104 236 1104 c 0,58,59
 285 1104 285 1104 326.5 1091 c 128,-1,60
 368 1078 368 1078 398.5 1054 c 128,-1,61
 429 1030 429 1030 446 995.5 c 128,-1,62
 463 961 463 961 463 919 c 0,63,64
 463 901 463 901 458.5 877 c 128,-1,65
 454 853 454 853 446 822 c 2,66,-1
 347 426 l 1,67,68
 331 375 331 375 320 274 c 0,69,70
 319 271 319 271 319 263 c 0,0,1
135 916 m 1,71,72
 135 863 135 863 167 842.5 c 128,-1,73
 199 822 199 822 265 822 c 2,74,-1
 300 822 l 1,75,-1
 311 862 l 1,76,77
 316 884 316 884 320 900 c 128,-1,78
 324 916 324 916 324 927 c 0,79,80
 324 959 324 959 296.5 984.5 c 128,-1,81
 269 1010 269 1010 222 1010 c 0,82,83
 137 1010 137 1010 135 916 c 1,71,72
EndSplineSet
EndChar

StartChar: uni0EA1
Encoding: 3745 3745 224
Width: 1495
GlyphClass: 2
Flags: W
LayerCount: 2
Fore
SplineSet
962 98 m 1,0,1
 1097 98 1097 98 1171 167.5 c 128,-1,2
 1245 237 1245 237 1245 374 c 2,3,-1
 1245 1104 l 1,4,-1
 1403 1104 l 1,5,-1
 1403 467 l 2,6,7
 1403 231 1403 231 1293 115.5 c 128,-1,8
 1183 0 1183 0 963 0 c 0,9,10
 801 0 801 0 704 59.5 c 128,-1,11
 607 119 607 119 573 236 c 1,12,13
 543 119 543 119 454 59.5 c 128,-1,14
 365 0 365 0 216 0 c 0,15,16
 174 0 174 0 132 10 c 128,-1,17
 90 20 90 20 57 42 c 128,-1,18
 24 64 24 64 3.5 99.5 c 128,-1,19
 -17 135 -17 135 -17 185 c 0,20,21
 -17 266 -17 266 34 316.5 c 128,-1,22
 85 367 85 367 180 367 c 0,23,24
 280 367 280 367 331 326 c 128,-1,25
 382 285 382 285 382 206 c 0,26,27
 382 173 382 173 359 109 c 1,28,29
 494 158 494 158 494 414 c 2,30,-1
 494 1104 l 1,31,-1
 651 1104 l 1,32,-1
 651 415 l 2,33,34
 651 252 651 252 728 176 c 128,-1,35
 805 100 805 100 962 98 c 1,0,1
107 182 m 0,36,37
 107 156 107 156 113 139 c 128,-1,38
 119 122 119 122 134 112 c 128,-1,39
 149 102 149 102 173.5 98 c 128,-1,40
 198 94 198 94 235 94 c 0,41,42
 243 94 243 94 252.5 94.5 c 128,-1,43
 262 95 262 95 272 95 c 1,44,-1
 272 191 l 2,45,46
 272 236 272 236 251 259.5 c 128,-1,47
 230 283 230 283 191 283 c 0,48,49
 147 283 147 283 127 257 c 128,-1,50
 107 231 107 231 107 182 c 0,36,37
EndSplineSet
EndChar

StartChar: uni0EA2
Encoding: 3746 3746 225
Width: 1224
GlyphClass: 2
Flags: W
LayerCount: 2
Fore
SplineSet
592 98 m 0,0,1
 689 98 689 98 756 115.5 c 128,-1,2
 823 133 823 133 864.5 173 c 128,-1,3
 906 213 906 213 924 276 c 128,-1,4
 942 339 942 339 942 431 c 2,5,-1
 942 1073 l 2,6,7
 942 1172 942 1172 954.5 1254.5 c 128,-1,8
 967 1337 967 1337 1000 1415 c 1,9,-1
 1151 1415 l 1,10,11
 1125 1318 1125 1318 1113 1228 c 128,-1,12
 1101 1138 1101 1138 1101 1050 c 2,13,-1
 1101 446 l 2,14,15
 1101 324 1101 324 1072 239 c 128,-1,16
 1043 154 1043 154 981.5 101.5 c 128,-1,17
 920 49 920 49 823.5 25 c 128,-1,18
 727 1 727 1 592 1 c 0,19,20
 357 1 357 1 229.5 71 c 128,-1,21
 102 141 102 141 102 280 c 0,22,23
 102 326 102 326 122 366.5 c 128,-1,24
 142 407 142 407 177 437 c 128,-1,25
 212 467 212 467 259.5 484 c 128,-1,26
 307 501 307 501 362 501 c 1,27,28
 234 515 234 515 168 589.5 c 128,-1,29
 102 664 102 664 102 800 c 0,30,31
 102 868 102 868 118.5 924 c 128,-1,32
 135 980 135 980 166.5 1020 c 128,-1,33
 198 1060 198 1060 244.5 1082 c 128,-1,34
 291 1104 291 1104 351 1104 c 0,35,36
 448 1104 448 1104 504.5 1056.5 c 128,-1,37
 561 1009 561 1009 561 920 c 0,38,39
 561 835 561 835 511.5 787 c 128,-1,40
 462 739 462 739 367 737 c 0,41,42
 359 737 359 737 344.5 738.5 c 128,-1,43
 330 740 330 740 310 742 c 1,44,-1
 256 752 l 1,45,-1
 256 732 l 2,46,47
 256 696 256 696 268 664.5 c 128,-1,48
 280 633 280 633 302.5 609.5 c 128,-1,49
 325 586 325 586 356.5 572 c 128,-1,50
 388 558 388 558 426 558 c 2,51,-1
 560 558 l 1,52,-1
 560 445 l 1,53,-1
 426 445 l 2,54,55
 392 445 392 445 361 433 c 128,-1,56
 330 421 330 421 306.5 398.5 c 128,-1,57
 283 376 283 376 269 345 c 128,-1,58
 255 314 255 314 255 276 c 0,59,60
 255 193 255 193 334.5 145 c 128,-1,61
 414 97 414 97 572 97 c 0,62,63
 577 97 577 97 582 97.5 c 128,-1,64
 587 98 587 98 592 98 c 0,0,1
357 1008 m 0,65,66
 312 1008 312 1008 284 973.5 c 128,-1,67
 256 939 256 939 256 870 c 2,68,-1
 256 821 l 1,69,-1
 319 821 l 2,70,71
 385 821 385 821 410.5 842 c 128,-1,72
 436 863 436 863 438 913 c 1,73,74
 435 1007 435 1007 357 1008 c 0,65,66
EndSplineSet
EndChar

StartChar: uni0EA3
Encoding: 3747 3747 226
Width: 1253
GlyphClass: 2
Flags: W
LayerCount: 2
Fore
SplineSet
310 535 m 0,0,1
 413 535 413 535 468.5 489.5 c 128,-1,2
 524 444 524 444 524 353 c 0,3,4
 524 316 524 316 511 284 c 128,-1,5
 498 252 498 252 474.5 227.5 c 128,-1,6
 451 203 451 203 418 189 c 128,-1,7
 385 175 385 175 345 174 c 1,8,-1
 257 189 l 1,9,10
 309 144 309 144 395.5 120 c 128,-1,11
 482 96 482 96 605 96 c 0,12,13
 801 96 801 96 902.5 144 c 128,-1,14
 1004 192 1004 192 1005 296 c 0,15,16
 1005 336 1005 336 997 364 c 128,-1,17
 989 392 989 392 968 414 c 128,-1,18
 947 436 947 436 910 454 c 128,-1,19
 873 472 873 472 815 492 c 2,20,-1
 393 637 l 2,21,22
 306 667 306 667 250.5 693.5 c 128,-1,23
 195 720 195 720 162.5 747.5 c 128,-1,24
 130 775 130 775 117 806.5 c 128,-1,25
 104 838 104 838 104 878 c 0,26,27
 102 992 102 992 225 1048 c 128,-1,28
 348 1104 348 1104 591 1104 c 0,29,30
 743 1104 743 1104 848.5 1086 c 128,-1,31
 954 1068 954 1068 1019.5 1029.5 c 128,-1,32
 1085 991 1085 991 1114.5 930.5 c 128,-1,33
 1144 870 1144 870 1144 785 c 2,34,-1
 1144 764 l 1,35,-1
 1018 764 l 1,36,-1
 1018 789 l 2,37,38
 1018 849 1018 849 996 890 c 128,-1,39
 974 931 974 931 924 956.5 c 128,-1,40
 874 982 874 982 793.5 993.5 c 128,-1,41
 713 1005 713 1005 596 1005 c 0,42,43
 505 1005 505 1005 441.5 998 c 128,-1,44
 378 991 378 991 338 976 c 128,-1,45
 298 961 298 961 280 937.5 c 128,-1,46
 262 914 262 914 262 882 c 0,47,48
 262 858 262 858 272 839.5 c 128,-1,49
 282 821 282 821 311.5 803 c 128,-1,50
 341 785 341 785 393 764.5 c 128,-1,51
 445 744 445 744 529 716 c 2,52,-1
 656 674 l 2,53,54
 765 639 765 639 844.5 610 c 128,-1,55
 924 581 924 581 980.5 554.5 c 128,-1,56
 1037 528 1037 528 1072.5 502.5 c 128,-1,57
 1108 477 1108 477 1128 448.5 c 128,-1,58
 1148 420 1148 420 1155.5 387 c 128,-1,59
 1163 354 1163 354 1163 312 c 0,60,61
 1164 160 1164 160 1020 80 c 128,-1,62
 876 0 876 0 601 0 c 0,63,64
 485 0 485 0 389 21.5 c 128,-1,65
 293 43 293 43 225 83 c 128,-1,66
 157 123 157 123 119.5 180 c 128,-1,67
 82 237 82 237 82 307 c 0,68,69
 82 421 82 421 139.5 477.5 c 128,-1,70
 197 534 197 534 310 535 c 0,0,1
401 352 m 1,71,72
 401 398 401 398 381.5 422.5 c 128,-1,73
 362 447 362 447 323 447 c 0,74,75
 263 447 263 447 231.5 412 c 128,-1,76
 200 377 200 377 200 312 c 0,77,78
 200 283 200 283 211 253 c 1,79,-1
 247 253 l 2,80,81
 297 253 297 253 327 258 c 128,-1,82
 357 263 357 263 373 274.5 c 128,-1,83
 389 286 389 286 394.5 305 c 128,-1,84
 400 324 400 324 401 352 c 1,71,72
EndSplineSet
EndChar

StartChar: uni0EA5
Encoding: 3749 3749 227
Width: 1298
GlyphClass: 2
Flags: W
LayerCount: 2
Fore
SplineSet
932 104 m 0,0,1
 974 104 974 104 997 129.5 c 128,-1,2
 1020 155 1020 155 1031.5 192.5 c 128,-1,3
 1043 230 1043 230 1045.5 273 c 128,-1,4
 1048 316 1048 316 1048 351 c 2,5,-1
 1048 623 l 2,6,7
 1048 739 1048 739 1030.5 813 c 128,-1,8
 1013 887 1013 887 969.5 929.5 c 128,-1,9
 926 972 926 972 850.5 988.5 c 128,-1,10
 775 1005 775 1005 660 1005 c 2,11,-1
 656 1005 l 2,12,13
 452 1005 452 1005 342.5 931 c 128,-1,14
 233 857 233 857 231 713 c 1,15,-1
 94 713 l 1,16,17
 94 903 94 903 240 1003.5 c 128,-1,18
 386 1104 386 1104 679 1104 c 0,19,20
 826 1104 826 1104 926.5 1077.5 c 128,-1,21
 1027 1051 1027 1051 1089 994.5 c 128,-1,22
 1151 938 1151 938 1178.5 849.5 c 128,-1,23
 1206 761 1206 761 1206 636 c 2,24,-1
 1206 413 l 2,25,26
 1206 303 1206 303 1189 225 c 128,-1,27
 1172 147 1172 147 1137 97 c 128,-1,28
 1102 47 1102 47 1049 23.5 c 128,-1,29
 996 0 996 0 923 0 c 0,30,31
 797 0 797 0 694 132 c 0,32,33
 675 155 675 155 646.5 200.5 c 128,-1,34
 618 246 618 246 578 313 c 0,35,36
 541 375 541 375 514 413 c 128,-1,37
 487 451 487 451 465 472 c 128,-1,38
 443 493 443 493 423 500.5 c 128,-1,39
 403 508 403 508 381 508 c 0,40,41
 313 508 313 508 274.5 464.5 c 128,-1,42
 236 421 236 421 226 339 c 1,43,44
 257 349 257 349 276 355 c 128,-1,45
 295 361 295 361 305.5 364.5 c 128,-1,46
 316 368 316 368 320.5 369 c 128,-1,47
 325 370 325 370 327 370 c 0,48,49
 370 370 370 370 407 357.5 c 128,-1,50
 444 345 444 345 470.5 321 c 128,-1,51
 497 297 497 297 512 261.5 c 128,-1,52
 527 226 527 226 527 181 c 0,53,54
 527 91 527 91 469.5 45.5 c 128,-1,55
 412 0 412 0 299 0 c 0,56,57
 249 0 249 0 206.5 19 c 128,-1,58
 164 38 164 38 133.5 73 c 128,-1,59
 103 108 103 108 85.5 157 c 128,-1,60
 68 206 68 206 68 266 c 0,61,62
 68 338 68 338 91.5 401 c 128,-1,63
 115 464 115 464 156.5 511 c 128,-1,64
 198 558 198 558 255 585 c 128,-1,65
 312 612 312 612 378 612 c 0,66,67
 447 612 447 612 508.5 576.5 c 128,-1,68
 570 541 570 541 627 471 c 0,69,70
 649 444 649 444 679 398 c 128,-1,71
 709 352 709 352 750 285 c 0,72,73
 784 228 784 228 809.5 192.5 c 128,-1,74
 835 157 835 157 855.5 137.5 c 128,-1,75
 876 118 876 118 894 111 c 128,-1,76
 912 104 912 104 932 104 c 0,0,1
404 192 m 1,77,78
 404 240 404 240 375 259 c 128,-1,79
 346 278 346 278 288 283 c 1,80,-1
 221 283 l 1,81,-1
 221 264 l 2,82,83
 221 215 221 215 226.5 182.5 c 128,-1,84
 232 150 232 150 243 130.5 c 128,-1,85
 254 111 254 111 272 102.5 c 128,-1,86
 290 94 290 94 316 94 c 0,87,88
 358 94 358 94 379.5 116.5 c 128,-1,89
 401 139 401 139 404 192 c 1,77,78
EndSplineSet
EndChar

StartChar: uni0EA7
Encoding: 3751 3751 228
Width: 1300
GlyphClass: 2
Flags: W
LayerCount: 2
Fore
SplineSet
634 96 m 0,0,1
 1050 96 1050 96 1050 464 c 2,2,-1
 1050 623 l 2,3,4
 1050 739 1050 739 1031 813 c 128,-1,5
 1012 887 1012 887 966 930 c 128,-1,6
 920 973 920 973 841.5 989 c 128,-1,7
 763 1005 763 1005 645 1005 c 0,8,9
 449 1005 449 1005 345 932 c 128,-1,10
 241 859 241 859 237 713 c 1,11,-1
 100 713 l 1,12,13
 100 805 100 805 137 877.5 c 128,-1,14
 174 950 174 950 244.5 1000.5 c 128,-1,15
 315 1051 315 1051 418 1077.5 c 128,-1,16
 521 1104 521 1104 653 1104 c 0,17,18
 804 1104 804 1104 909.5 1080.5 c 128,-1,19
 1015 1057 1015 1057 1081 1006 c 128,-1,20
 1147 955 1147 955 1177 873.5 c 128,-1,21
 1207 792 1207 792 1207 677 c 2,22,-1
 1207 450 l 2,23,24
 1207 342 1207 342 1170 258 c 128,-1,25
 1133 174 1133 174 1060.5 116.5 c 128,-1,26
 988 59 988 59 882 29.5 c 128,-1,27
 776 0 776 0 638 0 c 0,28,29
 519 0 519 0 421.5 21.5 c 128,-1,30
 324 43 324 43 253.5 83 c 128,-1,31
 183 123 183 123 144.5 178.5 c 128,-1,32
 106 234 106 234 106 303 c 0,33,34
 106 355 106 355 123 398 c 128,-1,35
 140 441 140 441 172 471.5 c 128,-1,36
 204 502 204 502 251.5 518.5 c 128,-1,37
 299 535 299 535 361 535 c 0,38,39
 465 535 465 535 520.5 489.5 c 128,-1,40
 576 444 576 444 576 353 c 0,41,42
 576 265 576 265 532 219.5 c 128,-1,43
 488 174 488 174 400 174 c 1,44,-1
 297 192 l 1,45,46
 387 96 387 96 634 96 c 0,0,1
451 352 m 0,47,48
 451 403 451 403 428 424.5 c 128,-1,49
 405 446 405 446 358 446 c 0,50,51
 307 446 307 446 280 411 c 128,-1,52
 253 376 253 376 253 312 c 0,53,54
 253 283 253 283 261 253 c 1,55,-1
 278 253 l 2,56,57
 336 253 336 253 370 258.5 c 128,-1,58
 404 264 404 264 422 275.5 c 128,-1,59
 440 287 440 287 445.5 306 c 128,-1,60
 451 325 451 325 451 352 c 0,47,48
EndSplineSet
EndChar

StartChar: uni0EAA
Encoding: 3754 3754 229
Width: 1379
GlyphClass: 2
Flags: W
LayerCount: 2
Fore
SplineSet
105 272 m 256,0,1
 105 406 105 406 179.5 482 c 128,-1,2
 254 558 254 558 392 558 c 0,3,4
 451 558 451 558 498 544 c 128,-1,5
 545 530 545 530 586 499 c 128,-1,6
 627 468 627 468 664.5 418.5 c 128,-1,7
 702 369 702 369 743 299 c 0,8,9
 764 263 764 263 785.5 228 c 128,-1,10
 807 193 807 193 832.5 165.5 c 128,-1,11
 858 138 858 138 889.5 121.5 c 128,-1,12
 921 105 921 105 961 105 c 0,13,14
 1006 105 1006 105 1031.5 128.5 c 128,-1,15
 1057 152 1057 152 1069.5 188.5 c 128,-1,16
 1082 225 1082 225 1085 269.5 c 128,-1,17
 1088 314 1088 314 1088 355 c 2,18,-1
 1088 758 l 1,19,20
 1077 730 1077 730 1038 704.5 c 128,-1,21
 999 679 999 679 942.5 660 c 128,-1,22
 886 641 886 641 816.5 630 c 128,-1,23
 747 619 747 619 675 619 c 0,24,25
 392 619 392 619 258 675 c 128,-1,26
 124 731 124 731 124 844 c 0,27,28
 124 908 124 908 166 956.5 c 128,-1,29
 208 1005 208 1005 282 1038 c 128,-1,30
 356 1071 356 1071 456.5 1087.5 c 128,-1,31
 557 1104 557 1104 675 1104 c 0,32,33
 753 1104 753 1104 816.5 1096.5 c 128,-1,34
 880 1089 880 1089 932 1075 c 128,-1,35
 984 1061 984 1061 1026 1040.5 c 128,-1,36
 1068 1020 1068 1020 1104 994 c 1,37,38
 1121 1026 1121 1026 1135.5 1088 c 128,-1,39
 1150 1150 1150 1150 1150 1229 c 1,40,-1
 1276 1229 l 1,41,42
 1276 1205 1276 1205 1269.5 1163.5 c 128,-1,43
 1263 1122 1263 1122 1251.5 1074 c 128,-1,44
 1240 1026 1240 1026 1224 977.5 c 128,-1,45
 1208 929 1208 929 1190 892 c 1,46,47
 1198 883 1198 883 1208 860.5 c 128,-1,48
 1218 838 1218 838 1226.5 805.5 c 128,-1,49
 1235 773 1235 773 1241 732.5 c 128,-1,50
 1247 692 1247 692 1247 649 c 2,51,-1
 1247 401 l 2,52,53
 1247 196 1247 196 1175 98.5 c 128,-1,54
 1103 1 1103 1 958 1 c 0,55,56
 902 1 902 1 857.5 16 c 128,-1,57
 813 31 813 31 773.5 65 c 128,-1,58
 734 99 734 99 694.5 153.5 c 128,-1,59
 655 208 655 208 610 288 c 0,60,61
 582 336 582 336 558 369.5 c 128,-1,62
 534 403 534 403 510 424 c 128,-1,63
 486 445 486 445 460 454.5 c 128,-1,64
 434 464 434 464 402 464 c 0,65,66
 330 464 330 464 293 433 c 128,-1,67
 256 402 256 402 244 339 c 1,68,-1
 356 367 l 1,69,70
 398 367 398 367 432.5 355 c 128,-1,71
 467 343 467 343 492 320 c 128,-1,72
 517 297 517 297 530.5 264 c 128,-1,73
 544 231 544 231 544 189 c 0,74,75
 544 95 544 95 488 47.5 c 128,-1,76
 432 0 432 0 321 0 c 0,77,78
 218 0 218 0 161.5 69 c 128,-1,79
 105 138 105 138 105 272 c 256,0,1
1056 885 m 1,80,81
 1007 944 1007 944 911.5 974.5 c 128,-1,82
 816 1005 816 1005 675 1005 c 0,83,84
 582 1005 582 1005 508.5 994 c 128,-1,85
 435 983 435 983 384 962.5 c 128,-1,86
 333 942 333 942 306 912 c 128,-1,87
 279 882 279 882 279 844 c 0,88,89
 279 780 279 780 376.5 750.5 c 128,-1,90
 474 721 474 721 675 721 c 0,91,92
 841 721 841 721 933.5 761.5 c 128,-1,93
 1026 802 1026 802 1056 885 c 1,80,81
238 253 m 2,94,95
 238 210 238 210 243.5 181 c 128,-1,96
 249 152 249 152 260 133 c 128,-1,97
 271 114 271 114 288 105 c 128,-1,98
 305 96 305 96 329 94 c 1,99,100
 373 95 373 95 397 117.5 c 128,-1,101
 421 140 421 140 421 193 c 256,102,103
 421 246 421 246 387 264.5 c 128,-1,104
 353 283 353 283 279 283 c 2,105,-1
 239 283 l 1,106,107
 238 278 238 278 238 274 c 2,108,-1
 238 253 l 2,94,95
EndSplineSet
EndChar

StartChar: uni0EAB
Encoding: 3755 3755 230
Width: 1860
GlyphClass: 2
Flags: W
LayerCount: 2
Fore
SplineSet
619 0 m 0,0,1
 519 0 519 0 437 20 c 128,-1,2
 355 40 355 40 296.5 79 c 128,-1,3
 238 118 238 118 206 175 c 128,-1,4
 174 232 174 232 174 306 c 0,5,6
 174 356 174 356 189 410 c 2,7,-1
 284 755 l 1,8,9
 216 737 216 737 210 737 c 0,10,11
 168 737 168 737 132 749.5 c 128,-1,12
 96 762 96 762 70.5 785.5 c 128,-1,13
 45 809 45 809 30.5 843.5 c 128,-1,14
 16 878 16 878 16 923 c 0,15,16
 16 1011 16 1011 69.5 1057.5 c 128,-1,17
 123 1104 123 1104 229 1104 c 0,18,19
 280 1104 280 1104 323 1091.5 c 128,-1,20
 366 1079 366 1079 397.5 1055.5 c 128,-1,21
 429 1032 429 1032 447 998.5 c 128,-1,22
 465 965 465 965 465 923 c 0,23,24
 465 880 465 880 442 788 c 2,25,-1
 345 408 l 2,26,27
 337 379 337 379 334 355 c 128,-1,28
 331 331 331 331 331 311 c 0,29,30
 331 207 331 207 399.5 152 c 128,-1,31
 468 97 468 97 611 97 c 0,32,33
 691 97 691 97 746 113.5 c 128,-1,34
 801 130 801 130 834.5 170 c 128,-1,35
 868 210 868 210 882.5 275 c 128,-1,36
 897 340 897 340 897 438 c 2,37,-1
 897 749 l 1,38,39
 855 736 855 736 818 736 c 0,40,41
 704 736 704 736 646.5 783.5 c 128,-1,42
 589 831 589 831 589 923 c 0,43,44
 589 973 589 973 609 1007.5 c 128,-1,45
 629 1042 629 1042 662.5 1063 c 128,-1,46
 696 1084 696 1084 738.5 1093 c 128,-1,47
 781 1102 781 1102 826 1102 c 0,48,49
 1012 1102 1012 1102 1050 931 c 1,50,51
 1085 954 1085 954 1127.5 984 c 128,-1,52
 1170 1014 1170 1014 1216.5 1040.5 c 128,-1,53
 1263 1067 1263 1067 1311 1085.5 c 128,-1,54
 1359 1104 1359 1104 1405 1104 c 0,55,56
 1489 1104 1489 1104 1548.5 1077.5 c 128,-1,57
 1608 1051 1608 1051 1646 996.5 c 128,-1,58
 1684 942 1684 942 1701.5 859 c 128,-1,59
 1719 776 1719 776 1719 662 c 2,60,-1
 1719 0 l 1,61,-1
 1563 0 l 1,62,-1
 1563 658 l 2,63,64
 1563 764 1563 764 1555 831.5 c 128,-1,65
 1547 899 1547 899 1528.5 937.5 c 128,-1,66
 1510 976 1510 976 1478.5 990.5 c 128,-1,67
 1447 1005 1447 1005 1401 1005 c 0,68,69
 1359 1005 1359 1005 1313.5 984.5 c 128,-1,70
 1268 964 1268 964 1222 935 c 128,-1,71
 1176 906 1176 906 1133 874.5 c 128,-1,72
 1090 843 1090 843 1054 822 c 1,73,-1
 1054 463 l 2,74,75
 1054 350 1054 350 1035 263.5 c 128,-1,76
 1016 177 1016 177 967.5 118.5 c 128,-1,77
 919 60 919 60 834.5 30 c 128,-1,78
 750 0 750 0 619 0 c 0,0,1
712 931 m 1,79,80
 714 878 714 878 744 852 c 128,-1,81
 774 826 774 826 826 824 c 1,82,83
 860 826 860 826 897 842 c 1,84,-1
 897 916 l 2,85,86
 897 961 897 961 876 985.5 c 128,-1,87
 855 1010 855 1010 815 1010 c 0,88,89
 765 1010 765 1010 738.5 989.5 c 128,-1,90
 712 969 712 969 712 931 c 1,79,80
138 921 m 1,91,92
 138 892 138 892 146 872.5 c 128,-1,93
 154 853 154 853 170.5 841.5 c 128,-1,94
 187 830 187 830 212.5 825.5 c 128,-1,95
 238 821 238 821 273 821 c 2,96,-1
 302 821 l 1,97,98
 325 898 325 898 325 924 c 0,99,100
 325 959 325 959 301 983.5 c 128,-1,101
 277 1008 277 1008 236 1008 c 0,102,103
 188 1008 188 1008 164 984 c 128,-1,104
 140 960 140 960 138 921 c 1,91,92
EndSplineSet
EndChar

